%TF.GenerationSoftware,KiCad,Pcbnew,9.0.9*%
%TF.CreationDate,2026-09-28T04:10:49+00:00*%
%TF.ProjectId,NIVA-insole-R,4e495641-2d69-46e7-936f-6c652d522e6b,rev?*%
%TF.SameCoordinates,Original*%
%TF.FileFunction,Profile,NP*%
%FSLAX46Y46*%
G04 Gerber Fmt 4.6, Leading zero omitted, Abs format (unit mm)*
G04 Created by KiCad (PCBNEW 9.0.9) date 2026-09-28 04:10:49*
%MOMM*%
%LPD*%
G01*
G04 APERTURE LIST*
%TA.AperFunction,Profile*%
%ADD10C,0.100000*%
%TD*%
G04 APERTURE END LIST*
D10*
X110500502Y83988799D02*
X110503045Y100091461D01*
X110503045Y100091461D02*
X111502468Y115086969D01*
X110524317Y83732407D02*
X110500502Y83988799D01*
X110599443Y83462816D02*
X110524317Y83732407D01*
X111502468Y115086969D02*
X111555443Y115402824D01*
X111555443Y115402824D02*
X111609344Y115560593D01*
X111609344Y115560593D02*
X111738846Y115810974D01*
X111738846Y115810974D02*
X111948416Y116069737D01*
X111948416Y116069737D02*
X122086143Y126207463D01*
X113500000Y84453336D02*
X113520941Y84249757D01*
X113502214Y99983278D02*
X113500000Y84453336D01*
X113520941Y84249757D02*
X113563670Y84102213D01*
X113563670Y84102213D02*
X119281922Y68856936D01*
X114434193Y113962964D02*
X113502214Y99983278D01*
X114454017Y114105231D02*
X114434193Y113962964D01*
X114494020Y114243191D02*
X114454017Y114105231D01*
X114577260Y114415537D02*
X114494020Y114243191D01*
X114724872Y114603551D02*
X114577260Y114415537D01*
X116500075Y92993864D02*
X116536790Y93741227D01*
X116508808Y135361875D02*
X116557229Y135924160D01*
X116508808Y134638124D02*
X116508808Y135361875D01*
X116536790Y93741227D02*
X116645381Y94469180D01*
X116536790Y92258772D02*
X116500075Y92993864D01*
X116557229Y135924160D02*
X116680963Y136637256D01*
X116557229Y134075839D02*
X116508808Y134638124D01*
X116645381Y94469180D02*
X116824800Y95182984D01*
X116645381Y91530819D02*
X116536790Y92258772D01*
X116680963Y136637256D02*
X116876685Y137346763D01*
X116680963Y133362743D02*
X116557229Y134075839D01*
X116824800Y132817015D02*
X116680963Y133362743D01*
X116824800Y95182984D02*
X117000416Y95693461D01*
X116824800Y90817015D02*
X116645381Y91530819D01*
X116876685Y137346763D02*
X117141009Y138033670D01*
X116940557Y90467574D02*
X116824800Y90817015D01*
X117000416Y95693461D02*
X117217525Y96201084D01*
X117068625Y132135571D02*
X116824800Y132817015D01*
X117141009Y138033670D02*
X117471388Y138691360D01*
X117141009Y89966329D02*
X116940557Y90467574D01*
X117217525Y96201084D02*
X117388549Y96540851D01*
X117303643Y131622468D02*
X117068625Y132135571D01*
X117388549Y96540851D02*
X117666944Y97017625D01*
X117471388Y138691360D02*
X117864642Y139313501D01*
X117471388Y89308639D02*
X117141009Y89966329D01*
X117666944Y130982374D02*
X117303643Y131622468D01*
X117666944Y97017625D02*
X117972349Y97462771D01*
X117767449Y88828163D02*
X117471388Y89308639D01*
X117864642Y139313501D02*
X118316983Y139894101D01*
X117972349Y97462771D02*
X118316983Y97894101D01*
X118091235Y130380972D02*
X117666944Y130982374D01*
X118206372Y88237355D02*
X117767449Y88828163D01*
X118316983Y139894101D02*
X118824054Y140427567D01*
X118316983Y97894101D02*
X118572432Y98175945D01*
X118572432Y129824054D02*
X118091235Y130380972D01*
X118572432Y98175945D02*
X118967904Y98561198D01*
X118692413Y87701090D02*
X118206372Y88237355D01*
X118824054Y140427567D02*
X119380972Y140908764D01*
X118958812Y129447042D02*
X118572432Y129824054D01*
X118967904Y98561198D02*
X119380972Y98908764D01*
X119105898Y87316983D02*
X118692413Y87701090D01*
X119237355Y129206372D02*
X118958812Y129447042D01*
X119281922Y68856936D02*
X119376292Y68686321D01*
X119376292Y68686321D02*
X119501977Y68537260D01*
X119380972Y140908764D02*
X119982374Y141333055D01*
X119380972Y98908764D02*
X119828163Y99232550D01*
X119436329Y59897786D02*
X110599443Y83462816D01*
X119479058Y59750242D02*
X119436329Y59897786D01*
X119498686Y59597894D02*
X119479058Y59750242D01*
X119501977Y68537260D02*
X119654197Y68415422D01*
X119506681Y-64138554D02*
X119498686Y59597894D01*
X119528256Y-64287230D02*
X119506681Y-64138554D01*
X119597868Y-64531559D02*
X119528256Y-64287230D01*
X119654197Y68415422D02*
X119827166Y68325438D01*
X119686498Y128864642D02*
X119237355Y129206372D01*
X119686498Y86864642D02*
X119105898Y87316983D01*
X119731329Y-64800380D02*
X119597868Y-64531559D01*
X119827166Y68325438D02*
X120014308Y68270728D01*
X119828163Y99232550D02*
X120149530Y99436054D01*
X119982374Y141333055D02*
X120622468Y141696356D01*
X120014308Y68270728D02*
X120208510Y68253372D01*
X120139005Y86570254D02*
X119686498Y86864642D01*
X120149530Y99436054D02*
X120633429Y99701873D01*
X120208510Y68253372D02*
X120402388Y68274031D01*
X120308639Y128471388D02*
X119686498Y128864642D01*
X120402388Y68274031D02*
X120588572Y68331918D01*
X120459148Y86388549D02*
X120139005Y86570254D01*
X120588572Y68331918D02*
X120718885Y68398492D01*
X120622468Y141696356D02*
X121295089Y141995167D01*
X120633429Y99701873D02*
X121135571Y99931374D01*
X120718885Y68398492D02*
X120838086Y68483371D01*
X120838086Y68483371D02*
X121005262Y68660417D01*
X120966329Y128141009D02*
X120308639Y128471388D01*
X121005262Y68660417D02*
X121124691Y68872619D01*
X121124234Y86073321D02*
X120459148Y86388549D01*
X121124691Y68872619D02*
X121170353Y69011646D01*
X121135571Y99931374D02*
X121641584Y100119465D01*
X121170353Y69011646D02*
X121195236Y69155848D01*
X121195236Y69155848D02*
X121200000Y71983839D01*
X121200000Y71983839D02*
X121214599Y72209398D01*
X121214599Y72209398D02*
X122496288Y82075742D01*
X121295089Y141995167D02*
X121993761Y142226611D01*
X121641584Y100119465D02*
X122005587Y100229884D01*
X121816864Y127813629D02*
X120966329Y128141009D01*
X121847976Y85813752D02*
X121124234Y86073321D01*
X121982918Y127711644D02*
X121816864Y127813629D01*
X121993761Y142226611D02*
X122711753Y142388459D01*
X122005587Y100229884D02*
X122542854Y100357012D01*
X122063394Y85702437D02*
X121847976Y85813752D01*
X122086143Y126207463D02*
X122181721Y126318167D01*
X122126040Y127579390D02*
X121982918Y127711644D01*
X122181721Y126318167D02*
X122282149Y126485167D01*
X122212426Y85577996D02*
X122063394Y85702437D01*
X122240794Y127421890D02*
X122126040Y127579390D01*
X122282149Y126485167D02*
X122348281Y126668473D01*
X122322823Y127245125D02*
X122240794Y127421890D01*
X122334602Y85427101D02*
X122212426Y85577996D01*
X122348281Y126668473D02*
X122377607Y126861125D01*
X122369012Y127055807D02*
X122322823Y127245125D01*
X122377607Y126861125D02*
X122369012Y127055807D01*
X122442651Y85210026D02*
X122334602Y85427101D01*
X122489383Y85021579D02*
X122442651Y85210026D01*
X122496288Y82075742D02*
X122500000Y84876249D01*
X122500000Y84876249D02*
X122489383Y85021579D01*
X122542854Y100357012D02*
X123075839Y100442770D01*
X122711753Y142388459D02*
X123442152Y142479151D01*
X123075839Y100442770D02*
X123625867Y100490589D01*
X123442152Y142479151D02*
X124177923Y142497816D01*
X123625867Y100490589D02*
X124177923Y100497816D01*
X124177923Y142497816D02*
X124911981Y142444272D01*
X124177923Y100497816D02*
X124557847Y100479151D01*
X124200000Y-61904401D02*
X124210935Y-62051884D01*
X124200928Y71881259D02*
X124200000Y-61904401D01*
X124210935Y-62051884D02*
X124243502Y-62196142D01*
X124243502Y-62196142D02*
X124343708Y-62420894D01*
X124343708Y-62420894D02*
X130855339Y-73216493D01*
X124557847Y100479151D02*
X125094398Y100419649D01*
X124911981Y142444272D02*
X125637256Y142319036D01*
X125094398Y100419649D02*
X125637256Y100319036D01*
X125159282Y125048601D02*
X114724872Y114603551D01*
X125328129Y125303999D02*
X125159282Y125048601D01*
X125431276Y125553017D02*
X125328129Y125303999D01*
X125468195Y125695459D02*
X125431276Y125553017D01*
X125485400Y81790601D02*
X124200928Y71881259D01*
X125499397Y125987742D02*
X125468195Y125695459D01*
X125500000Y84876249D02*
X125500000Y82016160D01*
X125500000Y82016160D02*
X125485400Y81790601D01*
X125510616Y127021579D02*
X125499397Y125987742D01*
X125510616Y85021579D02*
X125500000Y84876249D01*
X125557348Y127210026D02*
X125510616Y127021579D01*
X125557348Y85210026D02*
X125510616Y85021579D01*
X125615863Y127343478D02*
X125557348Y127210026D01*
X125615863Y85343478D02*
X125557348Y85210026D01*
X125637256Y142319036D02*
X126346763Y142123314D01*
X125637256Y100319036D02*
X126171241Y100178761D01*
X125693152Y127467009D02*
X125615863Y127343478D01*
X125722814Y85505521D02*
X125615863Y85343478D01*
X125787573Y127577996D02*
X125693152Y127467009D01*
X125822517Y85611788D02*
X125722814Y85505521D01*
X125897121Y127674082D02*
X125787573Y127577996D01*
X125936605Y85702437D02*
X125822517Y85611788D01*
X126062656Y127775544D02*
X125897121Y127674082D01*
X126106875Y85795734D02*
X125936605Y85702437D01*
X126171241Y100178761D02*
X126532425Y100059442D01*
X126346763Y142123314D02*
X127033670Y141858990D01*
X126532425Y100059442D02*
X127033670Y99858990D01*
X126693461Y128000416D02*
X126062656Y127775544D01*
X126693461Y86000416D02*
X126106875Y85795734D01*
X127033670Y141858990D02*
X127691360Y141528611D01*
X127033670Y99858990D02*
X127530028Y99617235D01*
X127044888Y128145982D02*
X126693461Y128000416D01*
X127044888Y86145982D02*
X126693461Y86000416D01*
X127530028Y99617235D02*
X128007258Y99339620D01*
X127530028Y86382764D02*
X127044888Y86145982D01*
X127540851Y128388549D02*
X127044888Y128145982D01*
X127691360Y141528611D02*
X128313501Y141135357D01*
X127718542Y-77679761D02*
X119731329Y-64800380D01*
X127860994Y86570254D02*
X127530028Y86382764D01*
X127911168Y-77931251D02*
X127718542Y-77679761D01*
X128007258Y99339620D02*
X128323534Y99128291D01*
X128017625Y128666944D02*
X127540851Y128388549D01*
X128141605Y-78129711D02*
X127911168Y-77931251D01*
X128313501Y141135357D02*
X128894101Y140683016D01*
X128323534Y99128291D02*
X128753159Y98801412D01*
X128323534Y86871708D02*
X127860994Y86570254D01*
X128407341Y-78277602D02*
X128141605Y-78129711D01*
X128462771Y128972349D02*
X128017625Y128666944D01*
X128697449Y-78368841D02*
X128407341Y-78277602D01*
X128753159Y98801412D02*
X129167058Y98436029D01*
X128753159Y87198587D02*
X128323534Y86871708D01*
X128894101Y140683016D02*
X129427567Y140175945D01*
X128894101Y129316983D02*
X128462771Y128972349D01*
X129012696Y-78400000D02*
X128697449Y-78368841D01*
X129041187Y87447042D02*
X128753159Y87198587D01*
X129167058Y98436029D02*
X129436029Y98167058D01*
X129298909Y129692413D02*
X128894101Y129316983D01*
X129427567Y140175945D02*
X129908764Y139619027D01*
X129436029Y98167058D02*
X129801412Y97753159D01*
X129436029Y87832941D02*
X129041187Y87447042D01*
X129675001Y130096606D02*
X129298909Y129692413D01*
X129793627Y88237355D02*
X129436029Y87832941D01*
X129801412Y97753159D02*
X130027650Y97462771D01*
X129908764Y139619027D02*
X130333055Y139017625D01*
X129916313Y130390646D02*
X129675001Y130096606D01*
X130027650Y97462771D02*
X130333055Y97017625D01*
X130128291Y88676465D02*
X129793627Y88237355D01*
X130232550Y130828163D02*
X129916313Y130390646D01*
X130333055Y139017625D02*
X130696356Y138377531D01*
X130333055Y97017625D02*
X130701873Y96366570D01*
X130339620Y88992741D02*
X130128291Y88676465D01*
X130522562Y131297962D02*
X130232550Y130828163D01*
X130617235Y89469971D02*
X130339620Y88992741D01*
X130696356Y138377531D02*
X130995167Y137704910D01*
X130701873Y131633429D02*
X130522562Y131297962D01*
X130701873Y96366570D02*
X130858990Y96033670D01*
X130855339Y-73216493D02*
X130972197Y-73373230D01*
X130858990Y96033670D02*
X131059442Y95532425D01*
X130858990Y89966329D02*
X130617235Y89469971D01*
X130926678Y132124234D02*
X130701873Y131633429D01*
X130972197Y-73373230D02*
X131117319Y-73504234D01*
X130995167Y137704910D02*
X131226611Y137006238D01*
X131059442Y95532425D02*
X131276652Y94816381D01*
X131059442Y90467574D02*
X130858990Y89966329D01*
X131117319Y-73504234D02*
X131285156Y-73604499D01*
X131119465Y132641584D02*
X130926678Y132124234D01*
X131178761Y90828758D02*
X131059442Y90467574D01*
X131226611Y137006238D02*
X131388459Y136288246D01*
X131229884Y133005587D02*
X131119465Y132641584D01*
X131276652Y94816381D02*
X131388459Y94288246D01*
X131285156Y-73604499D02*
X131469294Y-73670192D01*
X131319036Y91362743D02*
X131178761Y90828758D01*
X131354618Y133530819D02*
X131229884Y133005587D01*
X131388459Y136288246D02*
X131479151Y135557847D01*
X131388459Y94288246D02*
X131442770Y93924160D01*
X131417849Y91893463D02*
X131319036Y91362743D01*
X131442770Y93924160D02*
X131497816Y93177923D01*
X131444272Y134088018D02*
X131354618Y133530819D01*
X131464411Y92270984D02*
X131417849Y91893463D01*
X131469294Y-73670192D02*
X131662695Y-73698801D01*
X131479151Y135557847D02*
X131497816Y134822076D01*
X131497515Y92809808D02*
X131464411Y92270984D01*
X131497816Y134822076D02*
X131444272Y134088018D01*
X131497816Y93177923D02*
X131497515Y92809808D01*
X131662695Y-73698801D02*
X135917880Y-73700000D01*
X135502183Y-68177923D02*
X135508808Y-67638124D01*
X135508808Y-67638124D02*
X135582150Y-66893463D01*
X135520848Y-68557847D02*
X135502183Y-68177923D01*
X135580350Y-69094398D02*
X135520848Y-68557847D01*
X135582150Y-66893463D02*
X135680963Y-66362743D01*
X135645381Y-69469180D02*
X135580350Y-69094398D01*
X135680963Y-66362743D02*
X135773388Y-65993761D01*
X135770115Y-69994412D02*
X135645381Y-69469180D01*
X135773388Y-65993761D02*
X135936423Y-65479128D01*
X135917880Y-73700000D02*
X136111876Y-73681002D01*
X135936423Y-65479128D02*
X136073321Y-65124234D01*
X135936423Y-70520871D02*
X135770115Y-69994412D01*
X136073321Y-65124234D02*
X136303643Y-64622468D01*
X136073321Y-70875765D02*
X135936423Y-70520871D01*
X136111876Y-73681002D02*
X136343164Y-73605059D01*
X136298126Y-71366570D02*
X136073321Y-70875765D01*
X136303643Y-64622468D02*
X136563945Y-64149530D01*
X136343164Y-73605059D02*
X136510663Y-73505362D01*
X136477437Y-71702037D02*
X136298126Y-71366570D01*
X136510663Y-73505362D02*
X136687696Y-73338266D01*
X136563945Y-64149530D02*
X136864642Y-63686498D01*
X136687696Y-73338266D02*
X136819108Y-73133345D01*
X136805262Y-72238966D02*
X136477437Y-71702037D01*
X136819108Y-73133345D02*
X136897112Y-72902743D01*
X136864642Y-63686498D02*
X137091235Y-63380972D01*
X136890367Y-72467042D02*
X136805262Y-72238966D01*
X136897112Y-72902743D02*
X136917840Y-72708924D01*
X136917840Y-72708924D02*
X136890367Y-72467042D01*
X137091235Y-63380972D02*
X137438801Y-62967904D01*
X137438801Y-62967904D02*
X137824054Y-62572432D01*
X137824054Y-62572432D02*
X138105898Y-62316983D01*
X138105898Y-62316983D02*
X138527371Y-61979658D01*
X138527371Y-61979658D02*
X138982374Y-61666944D01*
X138982374Y-61666944D02*
X139308639Y-61471388D01*
X139308639Y-61471388D02*
X139787822Y-61222771D01*
X139787822Y-61222771D02*
X140295089Y-61004832D01*
X140295089Y-61004832D02*
X140653236Y-60876685D01*
X140653236Y-60876685D02*
X141171715Y-60726329D01*
X141171715Y-60726329D02*
X141711753Y-60611540D01*
X141711753Y-60611540D02*
X142088018Y-60555727D01*
X142088018Y-60555727D02*
X142822076Y-60502183D01*
X142822076Y-60502183D02*
X143545609Y-60519945D01*
X143545609Y-60519945D02*
X144106536Y-60582150D01*
X144106536Y-60582150D02*
X144828284Y-60726329D01*
X144828284Y-60726329D02*
X145520871Y-60936423D01*
X145520871Y-60936423D02*
X146201084Y-61217525D01*
X146201084Y-61217525D02*
X146850469Y-61563945D01*
X146850469Y-61563945D02*
X147323534Y-61871708D01*
X147323534Y-61871708D02*
X147894101Y-62316983D01*
X147894101Y-62316983D02*
X148307586Y-62701090D01*
X148307586Y-62701090D02*
X148793627Y-63237355D01*
X148793627Y-63237355D02*
X149128291Y-63676465D01*
X149128291Y-63676465D02*
X149429745Y-64139005D01*
X149429745Y-64139005D02*
X149696356Y-64622468D01*
X149696356Y-64622468D02*
X149995167Y-65295089D01*
X149983224Y-78400000D02*
X129012696Y-78400000D01*
X149995167Y-65295089D02*
X150204265Y-65893124D01*
X150204265Y-65893124D02*
X150297562Y-66063394D01*
X150217303Y-78384271D02*
X149983224Y-78400000D01*
X150297562Y-66063394D02*
X150422003Y-66212426D01*
X150422003Y-66212426D02*
X150614107Y-66360386D01*
X150500291Y-89499705D02*
X150500294Y-82500291D01*
X150500294Y-82500291D02*
X160999732Y-82500294D01*
X150614107Y-66360386D02*
X150836176Y-66457758D01*
X150836176Y-66457758D02*
X151026672Y-66495276D01*
X151026672Y-66495276D02*
X151512257Y-66500602D01*
X151512257Y-66500602D02*
X151804540Y-66531804D01*
X151804540Y-66531804D02*
X152085119Y-66619427D01*
X152085119Y-66619427D02*
X152322828Y-66746486D01*
X152322828Y-66746486D02*
X152441732Y-66833173D01*
X152441732Y-66833173D02*
X155978427Y-70357106D01*
X155978427Y-70357106D02*
X156089834Y-70453207D01*
X156089834Y-70453207D02*
X156214137Y-70531921D01*
X156214137Y-70531921D02*
X156442553Y-70620031D01*
X156442553Y-70620031D02*
X156636466Y-70648795D01*
X156636466Y-70648795D02*
X159500000Y-70650000D01*
X159500000Y-70650000D02*
X159646730Y-70639176D01*
X159646730Y-70639176D02*
X159790284Y-70606940D01*
X159790284Y-70606940D02*
X159927555Y-70553989D01*
X159927555Y-70553989D02*
X160134393Y-70423010D01*
X160123273Y-77051000D02*
X150217303Y-78384271D01*
X160134393Y-70423010D02*
X160240951Y-70321558D01*
X160240951Y-70321558D02*
X160331469Y-70205570D01*
X160331469Y-70205570D02*
X160403989Y-70077555D01*
X160403989Y-70077555D02*
X160456940Y-69940284D01*
X160456940Y-69940284D02*
X160489176Y-69796730D01*
X160489176Y-69796730D02*
X160500000Y-69650000D01*
X160500000Y-69650000D02*
X160508489Y41154400D01*
X160508489Y41154400D02*
X160529927Y41295512D01*
X160529927Y41295512D02*
X160603605Y41546374D01*
X160603605Y41546374D02*
X160744669Y41821149D01*
X160744669Y41821149D02*
X178341178Y69193497D01*
X160999705Y-89499708D02*
X150500291Y-89499705D01*
X160999732Y-82500294D02*
X161046354Y-82728655D01*
X161011168Y-88350963D02*
X160999705Y-89499708D01*
X161046354Y-82728655D02*
X161150222Y-82949179D01*
X161060302Y-88157993D02*
X161011168Y-88350963D01*
X161121768Y-88021763D02*
X161060302Y-88157993D01*
X161150222Y-82949179D02*
X161269909Y-83103358D01*
X161202851Y-87896216D02*
X161121768Y-88021763D01*
X161269909Y-83103358D02*
X161457791Y-83258662D01*
X161301739Y-87784155D02*
X161202851Y-87896216D01*
X161457419Y-87659996D02*
X161301739Y-87784155D01*
X161457791Y-83258662D02*
X161631737Y-83347200D01*
X161631737Y-83347200D02*
X161867866Y-83407718D01*
X161681464Y-87552088D02*
X161457419Y-87659996D01*
X161867866Y-83407718D02*
X162062955Y-83413760D01*
X161875597Y-87507768D02*
X161681464Y-87552088D01*
X162062955Y-83413760D02*
X162302376Y-83367970D01*
X162297901Y-87469801D02*
X161875597Y-87507768D01*
X162302376Y-83367970D02*
X162523605Y-83265614D01*
X162523605Y-83265614D02*
X162713497Y-83112775D01*
X162572310Y-87385908D02*
X162297901Y-87469801D01*
X162713497Y-83112775D02*
X167019210Y-78673596D01*
X162729703Y-87309891D02*
X162572310Y-87385908D01*
X162966014Y-87147117D02*
X162729703Y-87309891D01*
X163500000Y23480101D02*
X163510941Y23332579D01*
X163500000Y10519898D02*
X163500000Y-67950000D01*
X163500000Y-67950000D02*
X163519214Y-68145090D01*
X163501133Y40313338D02*
X163500000Y23480101D01*
X163510941Y23332579D02*
X163543525Y23188285D01*
X163510941Y10667420D02*
X163500000Y10519898D01*
X163518080Y40455041D02*
X163501133Y40313338D01*
X163519214Y-68145090D02*
X163576120Y-68332683D01*
X163543525Y23188285D02*
X163643783Y22963484D01*
X163543525Y10811714D02*
X163510941Y10667420D01*
X163555025Y40592889D02*
X163518080Y40455041D01*
X163576120Y-68332683D02*
X163668530Y-68505570D01*
X163597039Y10949622D02*
X163543525Y10811714D01*
X163643783Y22963484D02*
X163729364Y22842825D01*
X163658821Y40806502D02*
X163555025Y40592889D01*
X163668530Y-68505570D02*
X163792893Y-68657106D01*
X163670313Y11078127D02*
X163597039Y10949622D01*
X163729364Y22842825D02*
X163869326Y22704053D01*
X163792893Y-68657106D02*
X163944429Y-68781469D01*
X163831808Y11263887D02*
X163670313Y11078127D01*
X163869326Y22704053D02*
X163990710Y22619506D01*
X163944429Y-68781469D02*
X164117316Y-68873879D01*
X163948874Y11354320D02*
X163831808Y11263887D01*
X163990710Y22619506D02*
X164123239Y22553791D01*
X164077999Y11426493D02*
X163948874Y11354320D01*
X164117316Y-68873879D02*
X164304909Y-68930785D01*
X164123239Y22553791D02*
X164264013Y22508345D01*
X164216359Y11478828D02*
X164077999Y11426493D01*
X164264013Y22508345D02*
X164409950Y22484164D01*
X164304909Y-68930785D02*
X164500000Y-68950000D01*
X164360926Y11510180D02*
X164216359Y11478828D01*
X164409950Y22484164D02*
X164607039Y22485847D01*
X164500000Y-68950000D02*
X165549067Y-68948795D01*
X164508536Y11519861D02*
X164360926Y11510180D01*
X164607039Y22485847D02*
X164752543Y22512516D01*
X164655960Y11507661D02*
X164508536Y11519861D01*
X164752543Y22512516D02*
X164892520Y22560358D01*
X164892520Y22560358D02*
X165065291Y22655210D01*
X164892520Y11439641D02*
X164655960Y11507661D01*
X165023908Y11371672D02*
X164892520Y11439641D01*
X165065291Y22655210D02*
X165676465Y23128291D01*
X165549067Y-68948795D02*
X165742980Y-68920031D01*
X165676465Y23128291D02*
X166139005Y23429745D01*
X165686498Y10864642D02*
X165023908Y11371672D01*
X165742980Y-68920031D02*
X165927555Y-68853989D01*
X165927555Y-68853989D02*
X166134393Y-68723010D01*
X166134393Y-68723010D02*
X166240951Y-68621558D01*
X166139005Y23429745D02*
X166622468Y23696356D01*
X166240951Y-68621558D02*
X166331469Y-68505570D01*
X166286231Y-77051189D02*
X160123273Y-77051000D01*
X166308639Y10471388D02*
X165686498Y10864642D01*
X166331469Y-68505570D02*
X166403989Y-68377555D01*
X166403989Y-68377555D02*
X166456940Y-68240284D01*
X166456940Y-68240284D02*
X166498795Y-67999067D01*
X166478980Y-77079603D02*
X166286231Y-77051189D01*
X166498795Y-67999067D02*
X166500537Y3011579D01*
X166500537Y3011579D02*
X166525986Y3276547D01*
X166525986Y3276547D02*
X166606705Y3554303D01*
X166606705Y3554303D02*
X168394427Y7142956D01*
X166622468Y23696356D02*
X166966329Y23858990D01*
X166706196Y-77166659D02*
X166478980Y-77079603D01*
X166787822Y10222771D02*
X166308639Y10471388D01*
X166905661Y-77306015D02*
X166706196Y-77166659D01*
X166966329Y23858990D02*
X167479128Y24063576D01*
X167019210Y-78673596D02*
X167125292Y-78510176D01*
X167037242Y-77449703D02*
X166905661Y-77306015D01*
X167116235Y-77572755D02*
X167037242Y-77449703D01*
X167124234Y10073321D02*
X166787822Y10222771D01*
X167125292Y-78510176D02*
X167182910Y-78375780D01*
X167176439Y-77706013D02*
X167116235Y-77572755D01*
X167182910Y-78375780D02*
X167220312Y-78234419D01*
X167216565Y-77846625D02*
X167176439Y-77706013D01*
X167220312Y-78234419D02*
X167237418Y-78040338D01*
X167237418Y-78040338D02*
X167216565Y-77846625D01*
X167479128Y24063576D02*
X168005587Y24229884D01*
X167937343Y9775544D02*
X167124234Y10073321D01*
X168005587Y24229884D02*
X168711753Y24388459D01*
X168102878Y9674082D02*
X167937343Y9775544D01*
X168245687Y9542545D02*
X168102878Y9674082D01*
X168334602Y9427101D02*
X168245687Y9542545D01*
X168394427Y7142956D02*
X168467008Y7335426D01*
X168405797Y9299960D02*
X168334602Y9427101D01*
X168457758Y9163823D02*
X168405797Y9299960D01*
X168467008Y7335426D02*
X168500000Y7590169D01*
X168489383Y9021579D02*
X168457758Y9163823D01*
X168500000Y7590169D02*
X168489383Y9021579D01*
X168711753Y24388459D02*
X169258772Y24463209D01*
X169258772Y24463209D02*
X169638124Y24491191D01*
X169500000Y-66250000D02*
X169510823Y-66396730D01*
X169505303Y2512680D02*
X169500000Y-66250000D01*
X169510823Y-66396730D02*
X169558455Y-66586889D01*
X169532991Y2664573D02*
X169505303Y2512680D01*
X169558455Y-66586889D02*
X169642271Y-66764102D01*
X169605572Y2857043D02*
X169532991Y2664573D01*
X169638124Y24491191D02*
X170177923Y24497816D01*
X169642271Y-66764102D02*
X169726989Y-66884393D01*
X169726989Y-66884393D02*
X169865606Y-67023010D01*
X169865606Y-67023010D02*
X169985897Y-67107728D01*
X169985897Y-67107728D02*
X170163110Y-67191544D01*
X170163110Y-67191544D02*
X170353269Y-67239176D01*
X170177923Y24497816D02*
X170557847Y24479151D01*
X170353269Y-67239176D02*
X171979595Y-67250000D01*
X170358662Y-79549988D02*
X162966014Y-87147117D01*
X170515546Y-79430312D02*
X170358662Y-79549988D01*
X170557847Y24479151D02*
X171094398Y24419649D01*
X170646993Y-79362093D02*
X170515546Y-79430312D01*
X170835159Y-79302691D02*
X170646993Y-79362093D01*
X171031325Y-79281393D02*
X170835159Y-79302691D01*
X171094398Y24419649D02*
X171469180Y24354618D01*
X171179110Y-79290981D02*
X171031325Y-79281393D01*
X171323857Y-79322290D02*
X171179110Y-79290981D01*
X171336456Y6318811D02*
X169605572Y2857043D01*
X171442073Y6588152D02*
X171336456Y6318811D01*
X171462393Y-79374634D02*
X171323857Y-79322290D01*
X171469180Y24354618D02*
X171994412Y24229884D01*
X171475884Y6734883D02*
X171442073Y6588152D01*
X171499462Y6988420D02*
X171475884Y6734883D01*
X171501181Y8924845D02*
X171499462Y6988420D01*
X171542241Y9163823D02*
X171501181Y8924845D01*
X171615863Y9343478D02*
X171542241Y9163823D01*
X171632223Y-79475097D02*
X171462393Y-79374634D01*
X171693152Y9467009D02*
X171615863Y9343478D01*
X171779020Y-79606951D02*
X171632223Y-79475097D01*
X171787573Y9577996D02*
X171693152Y9467009D01*
X171870523Y-79723395D02*
X171779020Y-79606951D01*
X171897121Y9674082D02*
X171787573Y9577996D01*
X171943826Y-79852076D02*
X171870523Y-79723395D01*
X171979595Y-67250000D02*
X172219097Y-67220895D01*
X171994412Y24229884D02*
X172358415Y24119465D01*
X172000234Y-79999766D02*
X171943826Y-79852076D01*
X172019471Y9753228D02*
X171897121Y9674082D01*
X172152023Y9813752D02*
X172019471Y9753228D01*
X172219097Y-67220895D02*
X172401309Y-67156728D01*
X172358415Y24119465D02*
X172864428Y23931374D01*
X172401309Y-67156728D02*
X172567784Y-67058723D01*
X172502183Y80177923D02*
X172555727Y80911981D01*
X172520848Y79442152D02*
X172502183Y80177923D01*
X172555727Y80911981D02*
X172680963Y81637256D01*
X172567784Y-67058723D02*
X172712308Y-66930537D01*
X172611540Y78711753D02*
X172520848Y79442152D01*
X172680963Y81637256D02*
X172876685Y82346763D01*
X172712308Y-66930537D02*
X172829488Y-66776954D01*
X172773388Y77993761D02*
X172611540Y78711753D01*
X172829488Y-66776954D02*
X172914951Y-66603706D01*
X172864428Y23931374D02*
X173366570Y23701873D01*
X172864428Y10068625D02*
X172152023Y9813752D01*
X172876685Y82346763D02*
X173141009Y83033670D01*
X172914951Y-66603706D02*
X172956267Y-66464733D01*
X172956267Y-66464733D02*
X173000269Y-66000410D01*
X173000269Y-66000410D02*
X192839595Y-72943858D01*
X173004832Y77295089D02*
X172773388Y77993761D01*
X173141009Y83033670D02*
X173388549Y83540851D01*
X173217525Y76798915D02*
X173004832Y77295089D01*
X173366570Y23701873D02*
X173850469Y23436054D01*
X173366570Y10298126D02*
X172864428Y10068625D01*
X173388549Y83540851D02*
X173666944Y84017625D01*
X173388549Y76459148D02*
X173217525Y76798915D01*
X173570254Y76139005D02*
X173388549Y76459148D01*
X173666944Y84017625D02*
X173979658Y84472628D01*
X173850469Y23436054D02*
X174171836Y23232550D01*
X173860994Y10570254D02*
X173366570Y10298126D01*
X173864642Y75686498D02*
X173570254Y76139005D01*
X173979658Y84472628D02*
X174324998Y84903393D01*
X174171836Y23232550D02*
X174619027Y22908764D01*
X174324998Y84903393D02*
X174824054Y85427567D01*
X174324998Y75096606D02*
X173864642Y75686498D01*
X174462771Y10972349D02*
X173860994Y10570254D01*
X174572432Y74824054D02*
X174324998Y75096606D01*
X174619027Y22908764D02*
X175041187Y22552957D01*
X174824054Y85427567D02*
X175237355Y85793627D01*
X174894101Y11316983D02*
X174462771Y10972349D01*
X174958812Y74447042D02*
X174572432Y74824054D01*
X175041187Y22552957D02*
X175436029Y22167058D01*
X175237355Y85793627D02*
X175686498Y86135357D01*
X175298909Y11692413D02*
X174894101Y11316983D01*
X175436029Y22167058D02*
X175801412Y21753159D01*
X175537228Y73972349D02*
X174958812Y74447042D01*
X175683016Y12105898D02*
X175298909Y11692413D01*
X175686498Y86135357D02*
X176149530Y86436054D01*
X175801412Y21753159D02*
X176128291Y21323534D01*
X176027650Y12537228D02*
X175683016Y12105898D01*
X176128291Y21323534D02*
X176429745Y20860994D01*
X176149530Y86436054D02*
X176787822Y86777228D01*
X176149530Y73563945D02*
X175537228Y73972349D01*
X176429745Y20860994D02*
X176617235Y20530028D01*
X176429745Y13139005D02*
X176027650Y12537228D01*
X176617235Y20530028D02*
X176858990Y20033670D01*
X176622468Y73303643D02*
X176149530Y73563945D01*
X176701873Y13633429D02*
X176429745Y13139005D01*
X176787822Y86777228D02*
X177295089Y86995167D01*
X176858990Y20033670D02*
X177063576Y19520871D01*
X176966329Y73141009D02*
X176622468Y73303643D01*
X176995167Y14295089D02*
X176701873Y13633429D01*
X177063576Y19520871D02*
X177229884Y18994412D01*
X177178761Y14828758D02*
X176995167Y14295089D01*
X177229884Y18994412D02*
X177354618Y18469180D01*
X177295089Y86995167D02*
X177828758Y87178761D01*
X177306538Y73000416D02*
X176966329Y73141009D01*
X177354618Y18469180D02*
X177442770Y17924160D01*
X177354618Y15530819D02*
X177178761Y14828758D01*
X177442770Y17924160D02*
X177490589Y17374132D01*
X177444272Y16088018D02*
X177354618Y15530819D01*
X177490589Y17374132D02*
X177497515Y16809808D01*
X177497515Y16809808D02*
X177444272Y16088018D01*
X177828758Y87178761D02*
X178362743Y87319036D01*
X177937343Y72775544D02*
X177306538Y73000416D01*
X178140937Y72643842D02*
X177937343Y72775544D01*
X178306847Y72467009D02*
X178140937Y72643842D01*
X178341178Y69193497D02*
X178409588Y69318745D01*
X178362743Y87319036D02*
X178905601Y87419649D01*
X178384136Y72343478D02*
X178306847Y72467009D01*
X178409588Y69318745D02*
X178459473Y69452455D01*
X178442651Y72210026D02*
X178384136Y72343478D01*
X178459473Y69452455D02*
X178489816Y69591905D01*
X178481151Y72069487D02*
X178442651Y72210026D01*
X178489816Y69591905D02*
X178500000Y69734254D01*
X178498818Y71924845D02*
X178481151Y72069487D01*
X178500000Y69734254D02*
X178498818Y71924845D01*
X178905601Y87419649D02*
X179454390Y87480054D01*
X179454390Y87480054D02*
X180177923Y87497816D01*
X180177923Y87497816D02*
X180729015Y87464411D01*
X180729015Y87464411D02*
X181469180Y87354618D01*
X181327220Y68302198D02*
X163658821Y40806502D01*
X181438938Y68577381D02*
X181327220Y68302198D01*
X181469180Y87354618D02*
X181828284Y87273670D01*
X181493771Y68869271D02*
X181438938Y68577381D01*
X181504723Y71973327D02*
X181493771Y68869271D01*
X181557348Y72210026D02*
X181504723Y71973327D01*
X181665397Y72427101D02*
X181557348Y72210026D01*
X181822517Y72611788D02*
X181665397Y72427101D01*
X181828284Y87273670D02*
X182346763Y87123314D01*
X182019471Y72753228D02*
X181822517Y72611788D01*
X182152023Y72813752D02*
X182019471Y72753228D01*
X182346763Y87123314D02*
X183044888Y86854017D01*
X182693461Y73000416D02*
X182152023Y72813752D01*
X183044888Y86854017D02*
X183530028Y86617235D01*
X183044888Y73145982D02*
X182693461Y73000416D01*
X183530028Y86617235D02*
X183860994Y86429745D01*
X183530028Y73382764D02*
X183044888Y73145982D01*
X183860994Y86429745D02*
X184171836Y86232550D01*
X183860994Y73570254D02*
X183530028Y73382764D01*
X184171836Y86232550D02*
X184609353Y85916313D01*
X184171836Y73767449D02*
X183860994Y73570254D01*
X184609353Y85916313D02*
X185175945Y85427567D01*
X184609353Y74083686D02*
X184171836Y73767449D01*
X185167058Y74563970D02*
X184609353Y74083686D01*
X185175945Y85427567D02*
X185436029Y85167058D01*
X185436029Y85167058D02*
X185793627Y84762644D01*
X185436029Y74832941D02*
X185167058Y74563970D01*
X185793627Y84762644D02*
X186027650Y84462771D01*
X185793627Y75237355D02*
X185436029Y74832941D01*
X186027650Y84462771D02*
X186333055Y84017625D01*
X186239368Y75838366D02*
X185793627Y75237355D01*
X186333055Y84017625D02*
X186528611Y83691360D01*
X186522562Y76297962D02*
X186239368Y75838366D01*
X186528611Y83691360D02*
X186777228Y83212177D01*
X186701873Y76633429D02*
X186522562Y76297962D01*
X186777228Y83212177D02*
X187063576Y82520871D01*
X186858990Y76966329D02*
X186701873Y76633429D01*
X187059442Y77467574D02*
X186858990Y76966329D01*
X187063576Y82520871D02*
X187178761Y82171241D01*
X187178761Y82171241D02*
X187316348Y81649229D01*
X187276652Y78183618D02*
X187059442Y77467574D01*
X187316348Y81649229D02*
X187444272Y80911981D01*
X187388459Y78711753D02*
X187276652Y78183618D01*
X187444272Y80911981D02*
X187490589Y80374132D01*
X187444272Y79088018D02*
X187388459Y78711753D01*
X187490589Y80374132D02*
X187499924Y80006135D01*
X187490589Y79625867D02*
X187444272Y79088018D01*
X187499924Y80006135D02*
X187490589Y79625867D01*
X191408012Y-86469337D02*
X172000234Y-79999766D01*
X191586466Y-86548946D02*
X191408012Y-86469337D01*
X191746031Y-86661740D02*
X191586466Y-86548946D01*
X191880615Y-86803411D02*
X191746031Y-86661740D01*
X192000187Y-86999703D02*
X191880615Y-86803411D01*
X192839595Y-72943858D02*
X193026156Y-72989608D01*
X193026156Y-72989608D02*
X193169945Y-73000000D01*
X193169945Y-73000000D02*
X305049067Y-72998795D01*
X305049067Y-72998795D02*
X305195090Y-72980785D01*
X305049067Y-87001204D02*
X192000187Y-86999703D01*
X305195090Y-72980785D02*
X305336889Y-72941544D01*
X305195090Y-87019214D02*
X305049067Y-87001204D01*
X305336889Y-72941544D02*
X305471396Y-72881921D01*
X305336889Y-87058455D02*
X305195090Y-87019214D01*
X305471396Y-72881921D02*
X305595699Y-72803207D01*
X305471396Y-87118078D02*
X305336889Y-87058455D01*
X305595699Y-72803207D02*
X305707106Y-72707106D01*
X305595699Y-87196792D02*
X305471396Y-87118078D01*
X305707106Y-72707106D02*
X305803207Y-72595699D01*
X305707106Y-87292893D02*
X305595699Y-87196792D01*
X305803207Y-72595699D02*
X305881921Y-72471396D01*
X305803207Y-87404300D02*
X305707106Y-87292893D01*
X305881921Y-72471396D02*
X305941544Y-72336889D01*
X305881921Y-87528603D02*
X305803207Y-87404300D01*
X305941544Y-72336889D02*
X305980785Y-72195090D01*
X305941544Y-87663110D02*
X305881921Y-87528603D01*
X305980785Y-72195090D02*
X305998795Y-72049067D01*
X305980785Y-87804909D02*
X305941544Y-87663110D01*
X305998795Y-72049067D02*
X306011132Y-70291785D01*
X305998795Y-87950932D02*
X305980785Y-87804909D01*
X306011132Y-70291785D02*
X306057248Y-70026013D01*
X306011132Y-89708214D02*
X305998795Y-87950932D01*
X306057248Y-70026013D02*
X306113062Y-69837873D01*
X306089968Y-90092222D02*
X306011132Y-89708214D01*
X306113062Y-69837873D02*
X306278493Y-69482472D01*
X306157214Y-90276586D02*
X306089968Y-90092222D01*
X306278493Y-69482472D02*
X306401135Y-69298926D01*
X306278493Y-90517527D02*
X306157214Y-90276586D01*
X306401135Y-69298926D02*
X306526560Y-69147993D01*
X306401135Y-90701073D02*
X306278493Y-90517527D01*
X306526560Y-69147993D02*
X306818635Y-68886518D01*
X306526560Y-90852006D02*
X306401135Y-90701073D01*
X306721920Y-91038004D02*
X306526560Y-90852006D01*
X306818635Y-68886518D02*
X307156109Y-68687048D01*
X306878825Y-91155872D02*
X306721920Y-91038004D01*
X307156109Y-68687048D02*
X307407777Y-68589968D01*
X307223413Y-91342785D02*
X306878825Y-91155872D01*
X307407777Y-68589968D02*
X307597845Y-68541118D01*
X307407777Y-91410031D02*
X307223413Y-91342785D01*
X307597845Y-68541118D02*
X307791785Y-68511132D01*
X307621911Y-91463668D02*
X307407777Y-91410031D01*
X307791785Y-68511132D02*
X308006136Y-68500000D01*
X308006136Y-68500000D02*
X325993863Y-68500000D01*
X308006136Y-91500000D02*
X307621911Y-91463668D01*
X325993863Y-68500000D02*
X326305552Y-68523745D01*
X326085866Y-91497892D02*
X308006136Y-91500000D01*
X326305552Y-68523745D02*
X326662126Y-68613062D01*
X326402154Y-91458881D02*
X326085866Y-91497892D01*
X326662126Y-68613062D02*
X326953471Y-68742206D01*
X326776586Y-91342785D02*
X326402154Y-91458881D01*
X326953471Y-68742206D02*
X327259111Y-68946428D01*
X327100772Y-91169504D02*
X326776586Y-91342785D01*
X327259111Y-68946428D02*
X327489918Y-69166174D01*
X327352006Y-90973439D02*
X327100772Y-91169504D01*
X327489918Y-69166174D02*
X327708891Y-69461426D01*
X327613481Y-90681364D02*
X327352006Y-90973439D01*
X327708891Y-69461426D02*
X327852175Y-69746083D01*
X327812951Y-90343890D02*
X327613481Y-90681364D01*
X327852175Y-69746083D02*
X327958881Y-70097845D01*
X327942751Y-89973986D02*
X327812951Y-90343890D01*
X327958881Y-70097845D02*
X327997892Y-70414133D01*
X327997892Y-70414133D02*
X327997892Y-89585866D01*
X327997892Y-89585866D02*
X327942751Y-89973986D01*
M02*
