%TF.GenerationSoftware,KiCad,Pcbnew,9.0.9*%
%TF.CreationDate,2026-09-28T04:10:49+00:00*%
%TF.ProjectId,NIVA-insole-R,4e495641-2d69-46e7-936f-6c652d522e6b,rev?*%
%TF.SameCoordinates,Original*%
%TF.FileFunction,Soldermask,Top*%
%TF.FilePolarity,Negative*%
%FSLAX46Y46*%
G04 Gerber Fmt 4.6, Leading zero omitted, Abs format (unit mm)*
G04 Created by KiCad (PCBNEW 9.0.9) date 2026-09-28 04:10:49*
%MOMM*%
%LPD*%
G01*
G04 APERTURE LIST*
G04 Aperture macros list*
%AMRoundRect*
0 Rectangle with rounded corners*
0 $1 Rounding radius*
0 $2 $3 $4 $5 $6 $7 $8 $9 X,Y pos of 4 corners*
0 Add a 4 corners polygon primitive as box body*
4,1,4,$2,$3,$4,$5,$6,$7,$8,$9,$2,$3,0*
0 Add four circle primitives for the rounded corners*
1,1,$1+$1,$2,$3*
1,1,$1+$1,$4,$5*
1,1,$1+$1,$6,$7*
1,1,$1+$1,$8,$9*
0 Add four rect primitives between the rounded corners*
20,1,$1+$1,$2,$3,$4,$5,0*
20,1,$1+$1,$4,$5,$6,$7,0*
20,1,$1+$1,$6,$7,$8,$9,0*
20,1,$1+$1,$8,$9,$2,$3,0*%
%AMFreePoly0*
4,1,135,0.150000,11.396400,-0.164700,11.376300,-0.471700,11.339400,-0.809800,11.278600,-1.110400,11.206200,-1.406600,11.117400,-1.697400,11.012300,-1.982000,10.891300,-2.268600,10.750000,2.244000,10.750000,2.527500,10.632000,2.893100,10.450000,-2.770500,10.450000,-3.040900,10.256700,-3.307800,10.040400,-3.560900,9.808100,-3.809000,9.550000,4.095300,9.550000,4.373300,9.250000,-4.061000,9.250000,
-4.208600,9.052600,-4.344100,8.853800,-4.488200,8.619800,-4.604900,8.409500,-4.635700,8.350000,4.996200,8.350000,5.148700,8.050000,-4.778100,8.050000,-4.945400,7.621700,-5.018700,7.392700,-5.084800,7.150000,5.475200,7.150000,5.544900,6.850000,-5.150700,6.850000,-5.215900,6.417200,-5.248000,5.950000,5.647900,5.950000,5.647900,5.650000,-5.248000,5.650000,-5.215900,5.182800,
-5.150700,4.750000,5.544900,4.750000,5.475200,4.450000,-5.084800,4.450000,-5.018700,4.207300,-4.945400,3.978300,-4.778100,3.550000,5.148700,3.550000,4.996200,3.250000,-4.635700,3.250000,-4.505500,3.009900,-4.362700,2.775000,-4.208600,2.547400,-4.061000,2.350000,4.373300,2.350000,4.095300,2.050000,-3.809000,2.050000,-3.560900,1.791900,-3.307800,1.559600,-3.040900,1.343300,
-2.770500,1.150000,2.893100,1.150000,2.586600,0.995000,2.244000,0.850000,-2.268600,0.850000,-1.982000,0.708700,-1.697400,0.587700,-1.406600,0.482600,-1.110400,0.393800,-0.809800,0.321400,-0.471700,0.260600,-0.164700,0.223700,0.150000,0.203600,0.150000,-0.196600,-0.201500,-0.174600,-0.530400,-0.135100,-0.856600,-0.077400,-1.179200,-0.001900,-1.497100,0.091400,-1.809400,0.202000,
-2.148600,0.345000,-2.445900,0.491200,-2.703000,0.634800,-2.952700,0.790800,-3.194600,0.958900,-3.427800,1.138700,-3.652000,1.329700,-3.866500,1.531400,-4.070900,1.743400,-4.264600,1.965300,-4.447200,2.196300,-4.618300,2.436000,-4.777300,2.683900,-4.924100,2.939200,-5.058100,3.201400,-5.179100,3.469900,-5.286800,3.744000,-5.380800,4.023100,-5.461100,4.306400,-5.527400,4.593400,
-5.579500,4.883200,-5.617400,5.175300,-5.640900,5.468800,-5.649900,5.763200,-5.644500,6.057600,-5.624600,6.351500,-5.590300,6.643900,-5.541800,6.934400,-5.479000,7.222100,-5.402200,7.506400,-5.311600,7.786600,-5.207300,8.062000,-5.089600,8.332000,-4.958800,8.595900,-4.796400,8.884600,-4.638800,9.133400,-4.469200,9.374200,-4.264600,9.634700,-4.070900,9.856600,-3.840300,10.094400,
-3.596800,10.319100,-3.341400,10.530100,-3.104800,10.705500,-2.828800,10.888700,-2.543100,11.056400,-2.281700,11.192000,-1.980100,11.329100,-1.671300,11.449300,-1.391700,11.541600,-1.072100,11.629000,-0.784400,11.691800,-0.457500,11.745400,-0.164800,11.777900,0.150000,11.796600,0.150000,11.396400,0.150000,11.396400,$1*%
%AMFreePoly1*
4,1,133,0.128100,11.780900,0.421000,11.750300,0.712000,11.705300,1.000500,11.646000,1.285700,11.572700,1.567000,11.485500,1.843700,11.384600,2.115100,11.270200,2.380500,11.142700,2.639400,11.002300,2.891000,10.849300,3.134900,10.684200,3.370300,10.507300,3.596800,10.319100,3.813800,10.120000,4.020800,9.910500,4.193300,9.719000,4.380100,9.491400,4.555500,9.254800,4.719100,9.010000,
4.870500,8.757400,5.009300,8.497700,5.135300,8.231400,5.234600,7.993700,5.335500,7.717000,5.418600,7.450000,5.487600,7.186300,5.548600,6.898200,5.595400,6.607500,5.627900,6.314800,5.645900,6.020800,5.649900,5.763200,5.640900,5.468800,5.621100,5.211900,5.590300,4.956100,5.541800,4.665600,5.479000,4.377900,5.402200,4.093600,5.323600,3.848100,5.221000,3.572100,
5.105000,3.301400,4.992700,3.069500,4.852300,2.810600,4.699300,2.559000,4.555500,2.345200,4.380100,2.108600,4.193300,1.881000,3.995500,1.662800,3.787200,1.454500,3.569000,1.256700,3.341400,1.069900,3.104800,0.894500,2.860000,0.730900,2.639400,0.597700,2.380500,0.457300,2.115100,0.329800,1.843700,0.215400,1.567000,0.114500,1.285700,0.027300,1.000500,-0.046000,
0.712000,-0.105300,0.421000,-0.150300,0.128100,-0.180900,-0.150000,-0.196600,-0.150000,0.203600,0.301400,0.238000,0.742500,0.307600,1.176700,0.412100,1.601100,0.550900,1.824700,0.639500,2.044300,0.737700,2.440100,0.944500,2.818100,1.182300,3.176700,1.450000,-3.377800,1.450000,-3.585000,1.601800,-3.768700,1.750000,3.517500,1.750000,3.729400,1.963500,3.912700,2.168300,
4.106700,2.409100,4.280000,2.650000,-4.612300,2.650000,-4.818500,2.950000,4.470500,2.950000,4.588800,3.160200,4.712300,3.405700,4.810500,3.625300,4.899500,3.850000,-5.278200,3.850000,-5.386600,4.150000,5.001400,4.150000,5.121400,4.606600,5.199500,5.050000,-5.596700,5.050000,-5.630800,5.350000,5.231900,5.350000,5.250000,5.800000,5.231900,6.250000,-5.630800,6.250000,
-5.596700,6.550000,5.199500,6.550000,5.121400,6.993400,5.001400,7.450000,-5.386600,7.450000,-5.278200,7.750000,4.899500,7.750000,4.810500,7.974700,4.712300,8.194300,4.588800,8.439800,4.470500,8.650000,-4.818500,8.650000,-4.612300,8.950000,4.280000,8.950000,4.106700,9.190900,3.912700,9.431700,3.729400,9.636500,3.517500,9.850000,-3.768700,9.850000,-3.585000,9.998200,
-3.377800,10.150000,3.176700,10.150000,2.818100,10.417700,2.440100,10.655500,2.229000,10.770800,2.013200,10.876900,1.601100,11.049100,1.176700,11.187900,0.742500,11.292400,0.301400,11.362000,-0.150000,11.396400,-0.150000,11.796600,0.128100,11.780900,0.128100,11.780900,$1*%
G04 Aperture macros list end*
%ADD10C,6.300000*%
%ADD11R,6.000000X2.000000*%
%ADD12FreePoly0,0.000000*%
%ADD13FreePoly1,0.000000*%
%ADD14FreePoly0,90.000000*%
%ADD15FreePoly1,90.000000*%
%ADD16RoundRect,0.200000X0.275000X-0.200000X0.275000X0.200000X-0.275000X0.200000X-0.275000X-0.200000X0*%
%ADD17R,2.000000X1.200000*%
G04 APERTURE END LIST*
%TO.C,FSR2*%
D10*
X127150000Y93000000D02*
G75*
G02*
X120850000Y93000000I-3150000J0D01*
G01*
X120850000Y93000000D02*
G75*
G02*
X127150000Y93000000I3150000J0D01*
G01*
%TO.C,FSR4*%
X173150000Y17000000D02*
G75*
G02*
X166850000Y17000000I-3150000J0D01*
G01*
X166850000Y17000000D02*
G75*
G02*
X173150000Y17000000I3150000J0D01*
G01*
%TO.C,FSR5*%
X146150000Y-68000000D02*
G75*
G02*
X139850000Y-68000000I-3150000J0D01*
G01*
X139850000Y-68000000D02*
G75*
G02*
X146150000Y-68000000I3150000J0D01*
G01*
%TO.C,FSR1*%
X127150000Y135000000D02*
G75*
G02*
X120850000Y135000000I-3150000J0D01*
G01*
X120850000Y135000000D02*
G75*
G02*
X127150000Y135000000I3150000J0D01*
G01*
%TO.C,FSR3*%
X183150000Y80000000D02*
G75*
G02*
X176850000Y80000000I-3150000J0D01*
G01*
X176850000Y80000000D02*
G75*
G02*
X183150000Y80000000I3150000J0D01*
G01*
%TD*%
D11*
%TO.C,J2*%
X155000000Y-84600000D03*
X155000000Y-87400000D03*
%TD*%
D12*
%TO.C,FSR2*%
X123650000Y87200000D03*
D13*
X124350000Y87200000D03*
%TD*%
D12*
%TO.C,FSR4*%
X169650000Y11200000D03*
D13*
X170350000Y11200000D03*
%TD*%
D14*
%TO.C,FSR5*%
X148800000Y-68350000D03*
D15*
X148800000Y-67650000D03*
%TD*%
D12*
%TO.C,FSR1*%
X123650000Y129200000D03*
D13*
X124350000Y129200000D03*
%TD*%
D16*
%TO.C,R1*%
X318000000Y-88825000D03*
X318000000Y-87175000D03*
%TD*%
D17*
%TO.C,J1*%
X324000000Y-71000000D03*
X324000000Y-81000000D03*
X324000000Y-79000000D03*
X324000000Y-75000000D03*
X324000000Y-73000000D03*
X324000000Y-77000000D03*
X324000000Y-83000000D03*
X324000000Y-85000000D03*
X324000000Y-87000000D03*
X324000000Y-89000000D03*
%TD*%
D12*
%TO.C,FSR3*%
X179650000Y74200000D03*
D13*
X180350000Y74200000D03*
%TD*%
M02*
