ISO-10303-21;
HEADER;
FILE_DESCRIPTION(('FreeCAD Model'),'2;1');
FILE_NAME('Open CASCADE Shape Model','2026-09-27T23:12:55',('FreeCAD'),(
    'FreeCAD'),'Open CASCADE STEP processor 7.9','FreeCAD','Unknown');
FILE_SCHEMA(('AUTOMOTIVE_DESIGN { 1 0 10303 214 1 1 1 1 }'));
ENDSEC;
DATA;
#1 = APPLICATION_PROTOCOL_DEFINITION('international standard',
  'automotive_design',2000,#2);
#2 = APPLICATION_CONTEXT(
  'core data for automotive mechanical design processes');
#3 = SHAPE_DEFINITION_REPRESENTATION(#4,#10);
#4 = PRODUCT_DEFINITION_SHAPE('','',#5);
#5 = PRODUCT_DEFINITION('design','',#6,#9);
#6 = PRODUCT_DEFINITION_FORMATION('','',#7);
#7 = PRODUCT('Open CASCADE STEP translator 7.9 8',
  'Open CASCADE STEP translator 7.9 8','',(#8));
#8 = PRODUCT_CONTEXT('',#2,'mechanical');
#9 = PRODUCT_DEFINITION_CONTEXT('part definition',#2,'design');
#10 = ADVANCED_BREP_SHAPE_REPRESENTATION('',(#11,#15),#869);
#11 = AXIS2_PLACEMENT_3D('',#12,#13,#14);
#12 = CARTESIAN_POINT('',(0.,0.,0.));
#13 = DIRECTION('',(0.,0.,1.));
#14 = DIRECTION('',(1.,0.,-0.));
#15 = MANIFOLD_SOLID_BREP('',#16);
#16 = CLOSED_SHELL('',(#17,#57,#124,#149,#278,#295,#312,#329,#346,#363,
    #375,#406,#431,#456,#480,#504,#529,#554,#571,#657,#688,#713,#737,
    #762,#786,#811,#835,#853));
#17 = ADVANCED_FACE('',(#18),#52,.F.);
#18 = FACE_BOUND('',#19,.F.);
#19 = EDGE_LOOP('',(#20,#30,#38,#46));
#20 = ORIENTED_EDGE('',*,*,#21,.F.);
#21 = EDGE_CURVE('',#22,#24,#26,.T.);
#22 = VERTEX_POINT('',#23);
#23 = CARTESIAN_POINT('',(18.099,34.1,14.2));
#24 = VERTEX_POINT('',#25);
#25 = CARTESIAN_POINT('',(23.901,34.1,14.2));
#26 = LINE('',#27,#28);
#27 = CARTESIAN_POINT('',(18.099,34.1,14.2));
#28 = VECTOR('',#29,1.);
#29 = DIRECTION('',(1.,0.,0.));
#30 = ORIENTED_EDGE('',*,*,#31,.T.);
#31 = EDGE_CURVE('',#22,#32,#34,.T.);
#32 = VERTEX_POINT('',#33);
#33 = CARTESIAN_POINT('',(18.099,34.1,17.4));
#34 = LINE('',#35,#36);
#35 = CARTESIAN_POINT('',(18.099,34.1,14.2));
#36 = VECTOR('',#37,1.);
#37 = DIRECTION('',(0.,0.,1.));
#38 = ORIENTED_EDGE('',*,*,#39,.T.);
#39 = EDGE_CURVE('',#32,#40,#42,.T.);
#40 = VERTEX_POINT('',#41);
#41 = CARTESIAN_POINT('',(23.901,34.1,17.4));
#42 = LINE('',#43,#44);
#43 = CARTESIAN_POINT('',(19.5495,34.1,17.4));
#44 = VECTOR('',#45,1.);
#45 = DIRECTION('',(1.,0.,0.));
#46 = ORIENTED_EDGE('',*,*,#47,.F.);
#47 = EDGE_CURVE('',#24,#40,#48,.T.);
#48 = LINE('',#49,#50);
#49 = CARTESIAN_POINT('',(23.901,34.1,14.2));
#50 = VECTOR('',#51,1.);
#51 = DIRECTION('',(0.,0.,1.));
#52 = PLANE('',#53);
#53 = AXIS2_PLACEMENT_3D('',#54,#55,#56);
#54 = CARTESIAN_POINT('',(18.099,34.1,14.2));
#55 = DIRECTION('',(0.,1.,0.));
#56 = DIRECTION('',(1.,0.,0.));
#57 = ADVANCED_FACE('',(#58),#119,.F.);
#58 = FACE_BOUND('',#59,.F.);
#59 = EDGE_LOOP('',(#60,#61,#70,#78,#87,#95,#104,#112));
#60 = ORIENTED_EDGE('',*,*,#21,.T.);
#61 = ORIENTED_EDGE('',*,*,#62,.T.);
#62 = EDGE_CURVE('',#24,#63,#65,.T.);
#63 = VERTEX_POINT('',#64);
#64 = CARTESIAN_POINT('',(24.8,34.999,14.2));
#65 = CIRCLE('',#66,0.899);
#66 = AXIS2_PLACEMENT_3D('',#67,#68,#69);
#67 = CARTESIAN_POINT('',(23.901,34.999,14.2));
#68 = DIRECTION('',(0.,0.,1.));
#69 = DIRECTION('',(1.185555176463E-14,-1.,0.));
#70 = ORIENTED_EDGE('',*,*,#71,.T.);
#71 = EDGE_CURVE('',#63,#72,#74,.T.);
#72 = VERTEX_POINT('',#73);
#73 = CARTESIAN_POINT('',(24.8,35.001,14.2));
#74 = LINE('',#75,#76);
#75 = CARTESIAN_POINT('',(24.8,34.999,14.2));
#76 = VECTOR('',#77,1.);
#77 = DIRECTION('',(0.,1.,0.));
#78 = ORIENTED_EDGE('',*,*,#79,.T.);
#79 = EDGE_CURVE('',#72,#80,#82,.T.);
#80 = VERTEX_POINT('',#81);
#81 = CARTESIAN_POINT('',(23.901,35.9,14.2));
#82 = CIRCLE('',#83,0.899);
#83 = AXIS2_PLACEMENT_3D('',#84,#85,#86);
#84 = CARTESIAN_POINT('',(23.901,35.001,14.2));
#85 = DIRECTION('',(0.,0.,1.));
#86 = DIRECTION('',(1.,7.903701176419E-15,-0.));
#87 = ORIENTED_EDGE('',*,*,#88,.T.);
#88 = EDGE_CURVE('',#80,#89,#91,.T.);
#89 = VERTEX_POINT('',#90);
#90 = CARTESIAN_POINT('',(18.099,35.9,14.2));
#91 = LINE('',#92,#93);
#92 = CARTESIAN_POINT('',(23.901,35.9,14.2));
#93 = VECTOR('',#94,1.);
#94 = DIRECTION('',(-1.,0.,0.));
#95 = ORIENTED_EDGE('',*,*,#96,.T.);
#96 = EDGE_CURVE('',#89,#97,#99,.T.);
#97 = VERTEX_POINT('',#98);
#98 = CARTESIAN_POINT('',(17.2,35.001,14.2));
#99 = CIRCLE('',#100,0.899);
#100 = AXIS2_PLACEMENT_3D('',#101,#102,#103);
#101 = CARTESIAN_POINT('',(18.099,35.001,14.2));
#102 = DIRECTION('',(0.,0.,1.));
#103 = DIRECTION('',(-7.903701176419E-15,1.,0.));
#104 = ORIENTED_EDGE('',*,*,#105,.T.);
#105 = EDGE_CURVE('',#97,#106,#108,.T.);
#106 = VERTEX_POINT('',#107);
#107 = CARTESIAN_POINT('',(17.2,34.999,14.2));
#108 = LINE('',#109,#110);
#109 = CARTESIAN_POINT('',(17.2,35.001,14.2));
#110 = VECTOR('',#111,1.);
#111 = DIRECTION('',(0.,-1.,0.));
#112 = ORIENTED_EDGE('',*,*,#113,.T.);
#113 = EDGE_CURVE('',#106,#22,#114,.T.);
#114 = CIRCLE('',#115,0.899);
#115 = AXIS2_PLACEMENT_3D('',#116,#117,#118);
#116 = CARTESIAN_POINT('',(18.099,34.999,14.2));
#117 = DIRECTION('',(0.,0.,1.));
#118 = DIRECTION('',(-1.,-7.903701176419E-15,0.));
#119 = PLANE('',#120);
#120 = AXIS2_PLACEMENT_3D('',#121,#122,#123);
#121 = CARTESIAN_POINT('',(21.,35.,14.2));
#122 = DIRECTION('',(0.,0.,1.));
#123 = DIRECTION('',(1.,0.,-0.));
#124 = ADVANCED_FACE('',(#125),#144,.T.);
#125 = FACE_BOUND('',#126,.F.);
#126 = EDGE_LOOP('',(#127,#128,#129,#138));
#127 = ORIENTED_EDGE('',*,*,#62,.F.);
#128 = ORIENTED_EDGE('',*,*,#47,.T.);
#129 = ORIENTED_EDGE('',*,*,#130,.F.);
#130 = EDGE_CURVE('',#131,#40,#133,.T.);
#131 = VERTEX_POINT('',#132);
#132 = CARTESIAN_POINT('',(24.8,34.999,17.4));
#133 = CIRCLE('',#134,0.899);
#134 = AXIS2_PLACEMENT_3D('',#135,#136,#137);
#135 = CARTESIAN_POINT('',(23.901,34.999,17.4));
#136 = DIRECTION('',(0.,-0.,-1.));
#137 = DIRECTION('',(1.185555176463E-14,-1.,0.));
#138 = ORIENTED_EDGE('',*,*,#139,.F.);
#139 = EDGE_CURVE('',#63,#131,#140,.T.);
#140 = LINE('',#141,#142);
#141 = CARTESIAN_POINT('',(24.8,34.999,14.2));
#142 = VECTOR('',#143,1.);
#143 = DIRECTION('',(0.,0.,1.));
#144 = CYLINDRICAL_SURFACE('',#145,0.899);
#145 = AXIS2_PLACEMENT_3D('',#146,#147,#148);
#146 = CARTESIAN_POINT('',(23.901,34.999,14.2));
#147 = DIRECTION('',(-0.,-0.,-1.));
#148 = DIRECTION('',(1.185555176463E-14,-1.,0.));
#149 = ADVANCED_FACE('',(#150,#220),#273,.F.);
#150 = FACE_BOUND('',#151,.F.);
#151 = EDGE_LOOP('',(#152,#162,#171,#179,#188,#196,#205,#213));
#152 = ORIENTED_EDGE('',*,*,#153,.T.);
#153 = EDGE_CURVE('',#154,#156,#158,.T.);
#154 = VERTEX_POINT('',#155);
#155 = CARTESIAN_POINT('',(17.4,33.2,17.4));
#156 = VERTEX_POINT('',#157);
#157 = CARTESIAN_POINT('',(24.6,33.2,17.4));
#158 = LINE('',#159,#160);
#159 = CARTESIAN_POINT('',(17.4,33.2,17.4));
#160 = VECTOR('',#161,1.);
#161 = DIRECTION('',(1.,0.,0.));
#162 = ORIENTED_EDGE('',*,*,#163,.T.);
#163 = EDGE_CURVE('',#156,#164,#166,.T.);
#164 = VERTEX_POINT('',#165);
#165 = CARTESIAN_POINT('',(25.8,34.4,17.4));
#166 = CIRCLE('',#167,1.2);
#167 = AXIS2_PLACEMENT_3D('',#168,#169,#170);
#168 = CARTESIAN_POINT('',(24.6,34.4,17.4));
#169 = DIRECTION('',(0.,0.,1.));
#170 = DIRECTION('',(8.881784197001E-15,-1.,0.));
#171 = ORIENTED_EDGE('',*,*,#172,.T.);
#172 = EDGE_CURVE('',#164,#173,#175,.T.);
#173 = VERTEX_POINT('',#174);
#174 = CARTESIAN_POINT('',(25.8,35.6,17.4));
#175 = LINE('',#176,#177);
#176 = CARTESIAN_POINT('',(25.8,34.4,17.4));
#177 = VECTOR('',#178,1.);
#178 = DIRECTION('',(0.,1.,0.));
#179 = ORIENTED_EDGE('',*,*,#180,.T.);
#180 = EDGE_CURVE('',#173,#181,#183,.T.);
#181 = VERTEX_POINT('',#182);
#182 = CARTESIAN_POINT('',(24.6,36.8,17.4));
#183 = CIRCLE('',#184,1.2);
#184 = AXIS2_PLACEMENT_3D('',#185,#186,#187);
#185 = CARTESIAN_POINT('',(24.6,35.6,17.4));
#186 = DIRECTION('',(0.,0.,1.));
#187 = DIRECTION('',(1.,5.921189464667E-15,-0.));
#188 = ORIENTED_EDGE('',*,*,#189,.T.);
#189 = EDGE_CURVE('',#181,#190,#192,.T.);
#190 = VERTEX_POINT('',#191);
#191 = CARTESIAN_POINT('',(17.4,36.8,17.4));
#192 = LINE('',#193,#194);
#193 = CARTESIAN_POINT('',(24.6,36.8,17.4));
#194 = VECTOR('',#195,1.);
#195 = DIRECTION('',(-1.,0.,0.));
#196 = ORIENTED_EDGE('',*,*,#197,.T.);
#197 = EDGE_CURVE('',#190,#198,#200,.T.);
#198 = VERTEX_POINT('',#199);
#199 = CARTESIAN_POINT('',(16.2,35.6,17.4));
#200 = CIRCLE('',#201,1.2);
#201 = AXIS2_PLACEMENT_3D('',#202,#203,#204);
#202 = CARTESIAN_POINT('',(17.4,35.6,17.4));
#203 = DIRECTION('',(0.,0.,1.));
#204 = DIRECTION('',(-8.881784197001E-15,1.,0.));
#205 = ORIENTED_EDGE('',*,*,#206,.T.);
#206 = EDGE_CURVE('',#198,#207,#209,.T.);
#207 = VERTEX_POINT('',#208);
#208 = CARTESIAN_POINT('',(16.2,34.4,17.4));
#209 = LINE('',#210,#211);
#210 = CARTESIAN_POINT('',(16.2,35.6,17.4));
#211 = VECTOR('',#212,1.);
#212 = DIRECTION('',(0.,-1.,0.));
#213 = ORIENTED_EDGE('',*,*,#214,.T.);
#214 = EDGE_CURVE('',#207,#154,#215,.T.);
#215 = CIRCLE('',#216,1.2);
#216 = AXIS2_PLACEMENT_3D('',#217,#218,#219);
#217 = CARTESIAN_POINT('',(17.4,34.4,17.4));
#218 = DIRECTION('',(0.,0.,1.));
#219 = DIRECTION('',(-1.,-5.921189464667E-15,0.));
#220 = FACE_BOUND('',#221,.F.);
#221 = EDGE_LOOP('',(#222,#223,#232,#240,#249,#257,#266,#272));
#222 = ORIENTED_EDGE('',*,*,#39,.F.);
#223 = ORIENTED_EDGE('',*,*,#224,.T.);
#224 = EDGE_CURVE('',#32,#225,#227,.T.);
#225 = VERTEX_POINT('',#226);
#226 = CARTESIAN_POINT('',(17.2,34.999,17.4));
#227 = CIRCLE('',#228,0.899);
#228 = AXIS2_PLACEMENT_3D('',#229,#230,#231);
#229 = CARTESIAN_POINT('',(18.099,34.999,17.4));
#230 = DIRECTION('',(-0.,0.,-1.));
#231 = DIRECTION('',(-1.,-7.903701176419E-15,0.));
#232 = ORIENTED_EDGE('',*,*,#233,.F.);
#233 = EDGE_CURVE('',#234,#225,#236,.T.);
#234 = VERTEX_POINT('',#235);
#235 = CARTESIAN_POINT('',(17.2,35.001,17.4));
#236 = LINE('',#237,#238);
#237 = CARTESIAN_POINT('',(17.2,35.0005,17.4));
#238 = VECTOR('',#239,1.);
#239 = DIRECTION('',(0.,-1.,0.));
#240 = ORIENTED_EDGE('',*,*,#241,.T.);
#241 = EDGE_CURVE('',#234,#242,#244,.T.);
#242 = VERTEX_POINT('',#243);
#243 = CARTESIAN_POINT('',(18.099,35.9,17.4));
#244 = CIRCLE('',#245,0.899);
#245 = AXIS2_PLACEMENT_3D('',#246,#247,#248);
#246 = CARTESIAN_POINT('',(18.099,35.001,17.4));
#247 = DIRECTION('',(-0.,0.,-1.));
#248 = DIRECTION('',(-7.903701176419E-15,1.,0.));
#249 = ORIENTED_EDGE('',*,*,#250,.F.);
#250 = EDGE_CURVE('',#251,#242,#253,.T.);
#251 = VERTEX_POINT('',#252);
#252 = CARTESIAN_POINT('',(23.901,35.9,17.4));
#253 = LINE('',#254,#255);
#254 = CARTESIAN_POINT('',(22.4505,35.9,17.4));
#255 = VECTOR('',#256,1.);
#256 = DIRECTION('',(-1.,0.,0.));
#257 = ORIENTED_EDGE('',*,*,#258,.T.);
#258 = EDGE_CURVE('',#251,#259,#261,.T.);
#259 = VERTEX_POINT('',#260);
#260 = CARTESIAN_POINT('',(24.8,35.001,17.4));
#261 = CIRCLE('',#262,0.899);
#262 = AXIS2_PLACEMENT_3D('',#263,#264,#265);
#263 = CARTESIAN_POINT('',(23.901,35.001,17.4));
#264 = DIRECTION('',(0.,-0.,-1.));
#265 = DIRECTION('',(1.,7.903701176419E-15,-0.));
#266 = ORIENTED_EDGE('',*,*,#267,.F.);
#267 = EDGE_CURVE('',#131,#259,#268,.T.);
#268 = LINE('',#269,#270);
#269 = CARTESIAN_POINT('',(24.8,34.9995,17.4));
#270 = VECTOR('',#271,1.);
#271 = DIRECTION('',(0.,1.,-0.));
#272 = ORIENTED_EDGE('',*,*,#130,.T.);
#273 = PLANE('',#274);
#274 = AXIS2_PLACEMENT_3D('',#275,#276,#277);
#275 = CARTESIAN_POINT('',(21.,35.,17.4));
#276 = DIRECTION('',(0.,0.,1.));
#277 = DIRECTION('',(1.,0.,-0.));
#278 = ADVANCED_FACE('',(#279),#290,.T.);
#279 = FACE_BOUND('',#280,.F.);
#280 = EDGE_LOOP('',(#281,#282,#288,#289));
#281 = ORIENTED_EDGE('',*,*,#113,.F.);
#282 = ORIENTED_EDGE('',*,*,#283,.T.);
#283 = EDGE_CURVE('',#106,#225,#284,.T.);
#284 = LINE('',#285,#286);
#285 = CARTESIAN_POINT('',(17.2,34.999,14.2));
#286 = VECTOR('',#287,1.);
#287 = DIRECTION('',(0.,0.,1.));
#288 = ORIENTED_EDGE('',*,*,#224,.F.);
#289 = ORIENTED_EDGE('',*,*,#31,.F.);
#290 = CYLINDRICAL_SURFACE('',#291,0.899);
#291 = AXIS2_PLACEMENT_3D('',#292,#293,#294);
#292 = CARTESIAN_POINT('',(18.099,34.999,14.2));
#293 = DIRECTION('',(-0.,-0.,-1.));
#294 = DIRECTION('',(-1.,-7.903701176419E-15,0.));
#295 = ADVANCED_FACE('',(#296),#307,.F.);
#296 = FACE_BOUND('',#297,.F.);
#297 = EDGE_LOOP('',(#298,#299,#300,#301));
#298 = ORIENTED_EDGE('',*,*,#71,.F.);
#299 = ORIENTED_EDGE('',*,*,#139,.T.);
#300 = ORIENTED_EDGE('',*,*,#267,.T.);
#301 = ORIENTED_EDGE('',*,*,#302,.F.);
#302 = EDGE_CURVE('',#72,#259,#303,.T.);
#303 = LINE('',#304,#305);
#304 = CARTESIAN_POINT('',(24.8,35.001,14.2));
#305 = VECTOR('',#306,1.);
#306 = DIRECTION('',(0.,0.,1.));
#307 = PLANE('',#308);
#308 = AXIS2_PLACEMENT_3D('',#309,#310,#311);
#309 = CARTESIAN_POINT('',(24.8,34.999,14.2));
#310 = DIRECTION('',(-1.,0.,0.));
#311 = DIRECTION('',(0.,1.,0.));
#312 = ADVANCED_FACE('',(#313),#324,.T.);
#313 = FACE_BOUND('',#314,.F.);
#314 = EDGE_LOOP('',(#315,#316,#317,#318));
#315 = ORIENTED_EDGE('',*,*,#79,.F.);
#316 = ORIENTED_EDGE('',*,*,#302,.T.);
#317 = ORIENTED_EDGE('',*,*,#258,.F.);
#318 = ORIENTED_EDGE('',*,*,#319,.F.);
#319 = EDGE_CURVE('',#80,#251,#320,.T.);
#320 = LINE('',#321,#322);
#321 = CARTESIAN_POINT('',(23.901,35.9,14.2));
#322 = VECTOR('',#323,1.);
#323 = DIRECTION('',(0.,0.,1.));
#324 = CYLINDRICAL_SURFACE('',#325,0.899);
#325 = AXIS2_PLACEMENT_3D('',#326,#327,#328);
#326 = CARTESIAN_POINT('',(23.901,35.001,14.2));
#327 = DIRECTION('',(-0.,-0.,-1.));
#328 = DIRECTION('',(1.,7.903701176419E-15,-0.));
#329 = ADVANCED_FACE('',(#330),#341,.F.);
#330 = FACE_BOUND('',#331,.F.);
#331 = EDGE_LOOP('',(#332,#333,#334,#335));
#332 = ORIENTED_EDGE('',*,*,#88,.F.);
#333 = ORIENTED_EDGE('',*,*,#319,.T.);
#334 = ORIENTED_EDGE('',*,*,#250,.T.);
#335 = ORIENTED_EDGE('',*,*,#336,.F.);
#336 = EDGE_CURVE('',#89,#242,#337,.T.);
#337 = LINE('',#338,#339);
#338 = CARTESIAN_POINT('',(18.099,35.9,14.2));
#339 = VECTOR('',#340,1.);
#340 = DIRECTION('',(0.,0.,1.));
#341 = PLANE('',#342);
#342 = AXIS2_PLACEMENT_3D('',#343,#344,#345);
#343 = CARTESIAN_POINT('',(23.901,35.9,14.2));
#344 = DIRECTION('',(0.,-1.,0.));
#345 = DIRECTION('',(-1.,0.,0.));
#346 = ADVANCED_FACE('',(#347),#358,.T.);
#347 = FACE_BOUND('',#348,.F.);
#348 = EDGE_LOOP('',(#349,#350,#351,#352));
#349 = ORIENTED_EDGE('',*,*,#96,.F.);
#350 = ORIENTED_EDGE('',*,*,#336,.T.);
#351 = ORIENTED_EDGE('',*,*,#241,.F.);
#352 = ORIENTED_EDGE('',*,*,#353,.F.);
#353 = EDGE_CURVE('',#97,#234,#354,.T.);
#354 = LINE('',#355,#356);
#355 = CARTESIAN_POINT('',(17.2,35.001,14.2));
#356 = VECTOR('',#357,1.);
#357 = DIRECTION('',(0.,0.,1.));
#358 = CYLINDRICAL_SURFACE('',#359,0.899);
#359 = AXIS2_PLACEMENT_3D('',#360,#361,#362);
#360 = CARTESIAN_POINT('',(18.099,35.001,14.2));
#361 = DIRECTION('',(-0.,-0.,-1.));
#362 = DIRECTION('',(-7.903701176419E-15,1.,0.));
#363 = ADVANCED_FACE('',(#364),#370,.F.);
#364 = FACE_BOUND('',#365,.F.);
#365 = EDGE_LOOP('',(#366,#367,#368,#369));
#366 = ORIENTED_EDGE('',*,*,#105,.F.);
#367 = ORIENTED_EDGE('',*,*,#353,.T.);
#368 = ORIENTED_EDGE('',*,*,#233,.T.);
#369 = ORIENTED_EDGE('',*,*,#283,.F.);
#370 = PLANE('',#371);
#371 = AXIS2_PLACEMENT_3D('',#372,#373,#374);
#372 = CARTESIAN_POINT('',(17.2,35.001,14.2));
#373 = DIRECTION('',(1.,0.,-0.));
#374 = DIRECTION('',(0.,-1.,0.));
#375 = ADVANCED_FACE('',(#376),#401,.F.);
#376 = FACE_BOUND('',#377,.F.);
#377 = EDGE_LOOP('',(#378,#386,#394,#400));
#378 = ORIENTED_EDGE('',*,*,#379,.T.);
#379 = EDGE_CURVE('',#154,#380,#382,.T.);
#380 = VERTEX_POINT('',#381);
#381 = CARTESIAN_POINT('',(17.4,33.2,18.2));
#382 = LINE('',#383,#384);
#383 = CARTESIAN_POINT('',(17.4,33.2,17.4));
#384 = VECTOR('',#385,1.);
#385 = DIRECTION('',(0.,0.,1.));
#386 = ORIENTED_EDGE('',*,*,#387,.T.);
#387 = EDGE_CURVE('',#380,#388,#390,.T.);
#388 = VERTEX_POINT('',#389);
#389 = CARTESIAN_POINT('',(24.6,33.2,18.2));
#390 = LINE('',#391,#392);
#391 = CARTESIAN_POINT('',(17.4,33.2,18.2));
#392 = VECTOR('',#393,1.);
#393 = DIRECTION('',(1.,0.,0.));
#394 = ORIENTED_EDGE('',*,*,#395,.F.);
#395 = EDGE_CURVE('',#156,#388,#396,.T.);
#396 = LINE('',#397,#398);
#397 = CARTESIAN_POINT('',(24.6,33.2,17.4));
#398 = VECTOR('',#399,1.);
#399 = DIRECTION('',(0.,0.,1.));
#400 = ORIENTED_EDGE('',*,*,#153,.F.);
#401 = PLANE('',#402);
#402 = AXIS2_PLACEMENT_3D('',#403,#404,#405);
#403 = CARTESIAN_POINT('',(17.4,33.2,17.4));
#404 = DIRECTION('',(0.,1.,0.));
#405 = DIRECTION('',(1.,0.,0.));
#406 = ADVANCED_FACE('',(#407),#426,.T.);
#407 = FACE_BOUND('',#408,.F.);
#408 = EDGE_LOOP('',(#409,#417,#424,#425));
#409 = ORIENTED_EDGE('',*,*,#410,.T.);
#410 = EDGE_CURVE('',#207,#411,#413,.T.);
#411 = VERTEX_POINT('',#412);
#412 = CARTESIAN_POINT('',(16.2,34.4,18.2));
#413 = LINE('',#414,#415);
#414 = CARTESIAN_POINT('',(16.2,34.4,17.4));
#415 = VECTOR('',#416,1.);
#416 = DIRECTION('',(0.,0.,1.));
#417 = ORIENTED_EDGE('',*,*,#418,.T.);
#418 = EDGE_CURVE('',#411,#380,#419,.T.);
#419 = CIRCLE('',#420,1.2);
#420 = AXIS2_PLACEMENT_3D('',#421,#422,#423);
#421 = CARTESIAN_POINT('',(17.4,34.4,18.2));
#422 = DIRECTION('',(0.,0.,1.));
#423 = DIRECTION('',(-1.,-5.921189464667E-15,0.));
#424 = ORIENTED_EDGE('',*,*,#379,.F.);
#425 = ORIENTED_EDGE('',*,*,#214,.F.);
#426 = CYLINDRICAL_SURFACE('',#427,1.2);
#427 = AXIS2_PLACEMENT_3D('',#428,#429,#430);
#428 = CARTESIAN_POINT('',(17.4,34.4,17.4));
#429 = DIRECTION('',(-0.,-0.,-1.));
#430 = DIRECTION('',(-1.,-5.921189464667E-15,0.));
#431 = ADVANCED_FACE('',(#432),#451,.T.);
#432 = FACE_BOUND('',#433,.F.);
#433 = EDGE_LOOP('',(#434,#435,#444,#450));
#434 = ORIENTED_EDGE('',*,*,#395,.T.);
#435 = ORIENTED_EDGE('',*,*,#436,.T.);
#436 = EDGE_CURVE('',#388,#437,#439,.T.);
#437 = VERTEX_POINT('',#438);
#438 = CARTESIAN_POINT('',(25.8,34.4,18.2));
#439 = CIRCLE('',#440,1.2);
#440 = AXIS2_PLACEMENT_3D('',#441,#442,#443);
#441 = CARTESIAN_POINT('',(24.6,34.4,18.2));
#442 = DIRECTION('',(0.,0.,1.));
#443 = DIRECTION('',(8.881784197001E-15,-1.,0.));
#444 = ORIENTED_EDGE('',*,*,#445,.F.);
#445 = EDGE_CURVE('',#164,#437,#446,.T.);
#446 = LINE('',#447,#448);
#447 = CARTESIAN_POINT('',(25.8,34.4,17.4));
#448 = VECTOR('',#449,1.);
#449 = DIRECTION('',(0.,0.,1.));
#450 = ORIENTED_EDGE('',*,*,#163,.F.);
#451 = CYLINDRICAL_SURFACE('',#452,1.2);
#452 = AXIS2_PLACEMENT_3D('',#453,#454,#455);
#453 = CARTESIAN_POINT('',(24.6,34.4,17.4));
#454 = DIRECTION('',(-0.,-0.,-1.));
#455 = DIRECTION('',(8.881784197001E-15,-1.,0.));
#456 = ADVANCED_FACE('',(#457),#475,.F.);
#457 = FACE_BOUND('',#458,.F.);
#458 = EDGE_LOOP('',(#459,#467,#473,#474));
#459 = ORIENTED_EDGE('',*,*,#460,.T.);
#460 = EDGE_CURVE('',#198,#461,#463,.T.);
#461 = VERTEX_POINT('',#462);
#462 = CARTESIAN_POINT('',(16.2,35.6,18.2));
#463 = LINE('',#464,#465);
#464 = CARTESIAN_POINT('',(16.2,35.6,17.4));
#465 = VECTOR('',#466,1.);
#466 = DIRECTION('',(0.,0.,1.));
#467 = ORIENTED_EDGE('',*,*,#468,.T.);
#468 = EDGE_CURVE('',#461,#411,#469,.T.);
#469 = LINE('',#470,#471);
#470 = CARTESIAN_POINT('',(16.2,35.6,18.2));
#471 = VECTOR('',#472,1.);
#472 = DIRECTION('',(0.,-1.,0.));
#473 = ORIENTED_EDGE('',*,*,#410,.F.);
#474 = ORIENTED_EDGE('',*,*,#206,.F.);
#475 = PLANE('',#476);
#476 = AXIS2_PLACEMENT_3D('',#477,#478,#479);
#477 = CARTESIAN_POINT('',(16.2,35.6,17.4));
#478 = DIRECTION('',(1.,0.,-0.));
#479 = DIRECTION('',(0.,-1.,0.));
#480 = ADVANCED_FACE('',(#481),#499,.F.);
#481 = FACE_BOUND('',#482,.F.);
#482 = EDGE_LOOP('',(#483,#484,#492,#498));
#483 = ORIENTED_EDGE('',*,*,#445,.T.);
#484 = ORIENTED_EDGE('',*,*,#485,.T.);
#485 = EDGE_CURVE('',#437,#486,#488,.T.);
#486 = VERTEX_POINT('',#487);
#487 = CARTESIAN_POINT('',(25.8,35.6,18.2));
#488 = LINE('',#489,#490);
#489 = CARTESIAN_POINT('',(25.8,34.4,18.2));
#490 = VECTOR('',#491,1.);
#491 = DIRECTION('',(0.,1.,0.));
#492 = ORIENTED_EDGE('',*,*,#493,.F.);
#493 = EDGE_CURVE('',#173,#486,#494,.T.);
#494 = LINE('',#495,#496);
#495 = CARTESIAN_POINT('',(25.8,35.6,17.4));
#496 = VECTOR('',#497,1.);
#497 = DIRECTION('',(0.,0.,1.));
#498 = ORIENTED_EDGE('',*,*,#172,.F.);
#499 = PLANE('',#500);
#500 = AXIS2_PLACEMENT_3D('',#501,#502,#503);
#501 = CARTESIAN_POINT('',(25.8,34.4,17.4));
#502 = DIRECTION('',(-1.,0.,0.));
#503 = DIRECTION('',(0.,1.,0.));
#504 = ADVANCED_FACE('',(#505),#524,.T.);
#505 = FACE_BOUND('',#506,.F.);
#506 = EDGE_LOOP('',(#507,#515,#522,#523));
#507 = ORIENTED_EDGE('',*,*,#508,.T.);
#508 = EDGE_CURVE('',#190,#509,#511,.T.);
#509 = VERTEX_POINT('',#510);
#510 = CARTESIAN_POINT('',(17.4,36.8,18.2));
#511 = LINE('',#512,#513);
#512 = CARTESIAN_POINT('',(17.4,36.8,17.4));
#513 = VECTOR('',#514,1.);
#514 = DIRECTION('',(0.,0.,1.));
#515 = ORIENTED_EDGE('',*,*,#516,.T.);
#516 = EDGE_CURVE('',#509,#461,#517,.T.);
#517 = CIRCLE('',#518,1.2);
#518 = AXIS2_PLACEMENT_3D('',#519,#520,#521);
#519 = CARTESIAN_POINT('',(17.4,35.6,18.2));
#520 = DIRECTION('',(0.,0.,1.));
#521 = DIRECTION('',(-8.881784197001E-15,1.,0.));
#522 = ORIENTED_EDGE('',*,*,#460,.F.);
#523 = ORIENTED_EDGE('',*,*,#197,.F.);
#524 = CYLINDRICAL_SURFACE('',#525,1.2);
#525 = AXIS2_PLACEMENT_3D('',#526,#527,#528);
#526 = CARTESIAN_POINT('',(17.4,35.6,17.4));
#527 = DIRECTION('',(-0.,-0.,-1.));
#528 = DIRECTION('',(-8.881784197001E-15,1.,0.));
#529 = ADVANCED_FACE('',(#530),#549,.T.);
#530 = FACE_BOUND('',#531,.F.);
#531 = EDGE_LOOP('',(#532,#533,#542,#548));
#532 = ORIENTED_EDGE('',*,*,#493,.T.);
#533 = ORIENTED_EDGE('',*,*,#534,.T.);
#534 = EDGE_CURVE('',#486,#535,#537,.T.);
#535 = VERTEX_POINT('',#536);
#536 = CARTESIAN_POINT('',(24.6,36.8,18.2));
#537 = CIRCLE('',#538,1.2);
#538 = AXIS2_PLACEMENT_3D('',#539,#540,#541);
#539 = CARTESIAN_POINT('',(24.6,35.6,18.2));
#540 = DIRECTION('',(0.,0.,1.));
#541 = DIRECTION('',(1.,5.921189464667E-15,-0.));
#542 = ORIENTED_EDGE('',*,*,#543,.F.);
#543 = EDGE_CURVE('',#181,#535,#544,.T.);
#544 = LINE('',#545,#546);
#545 = CARTESIAN_POINT('',(24.6,36.8,17.4));
#546 = VECTOR('',#547,1.);
#547 = DIRECTION('',(0.,0.,1.));
#548 = ORIENTED_EDGE('',*,*,#180,.F.);
#549 = CYLINDRICAL_SURFACE('',#550,1.2);
#550 = AXIS2_PLACEMENT_3D('',#551,#552,#553);
#551 = CARTESIAN_POINT('',(24.6,35.6,17.4));
#552 = DIRECTION('',(-0.,-0.,-1.));
#553 = DIRECTION('',(1.,5.921189464667E-15,-0.));
#554 = ADVANCED_FACE('',(#555),#566,.F.);
#555 = FACE_BOUND('',#556,.F.);
#556 = EDGE_LOOP('',(#557,#558,#564,#565));
#557 = ORIENTED_EDGE('',*,*,#543,.T.);
#558 = ORIENTED_EDGE('',*,*,#559,.T.);
#559 = EDGE_CURVE('',#535,#509,#560,.T.);
#560 = LINE('',#561,#562);
#561 = CARTESIAN_POINT('',(24.6,36.8,18.2));
#562 = VECTOR('',#563,1.);
#563 = DIRECTION('',(-1.,0.,0.));
#564 = ORIENTED_EDGE('',*,*,#508,.F.);
#565 = ORIENTED_EDGE('',*,*,#189,.F.);
#566 = PLANE('',#567);
#567 = AXIS2_PLACEMENT_3D('',#568,#569,#570);
#568 = CARTESIAN_POINT('',(24.6,36.8,17.4));
#569 = DIRECTION('',(0.,-1.,0.));
#570 = DIRECTION('',(-1.,0.,0.));
#571 = ADVANCED_FACE('',(#572,#582),#652,.T.);
#572 = FACE_BOUND('',#573,.T.);
#573 = EDGE_LOOP('',(#574,#575,#576,#577,#578,#579,#580,#581));
#574 = ORIENTED_EDGE('',*,*,#387,.T.);
#575 = ORIENTED_EDGE('',*,*,#436,.T.);
#576 = ORIENTED_EDGE('',*,*,#485,.T.);
#577 = ORIENTED_EDGE('',*,*,#534,.T.);
#578 = ORIENTED_EDGE('',*,*,#559,.T.);
#579 = ORIENTED_EDGE('',*,*,#516,.T.);
#580 = ORIENTED_EDGE('',*,*,#468,.T.);
#581 = ORIENTED_EDGE('',*,*,#418,.T.);
#582 = FACE_BOUND('',#583,.T.);
#583 = EDGE_LOOP('',(#584,#594,#603,#611,#620,#628,#637,#645));
#584 = ORIENTED_EDGE('',*,*,#585,.F.);
#585 = EDGE_CURVE('',#586,#588,#590,.T.);
#586 = VERTEX_POINT('',#587);
#587 = CARTESIAN_POINT('',(18.099,34.1,18.2));
#588 = VERTEX_POINT('',#589);
#589 = CARTESIAN_POINT('',(23.901,34.1,18.2));
#590 = LINE('',#591,#592);
#591 = CARTESIAN_POINT('',(19.5495,34.1,18.2));
#592 = VECTOR('',#593,1.);
#593 = DIRECTION('',(1.,0.,0.));
#594 = ORIENTED_EDGE('',*,*,#595,.T.);
#595 = EDGE_CURVE('',#586,#596,#598,.T.);
#596 = VERTEX_POINT('',#597);
#597 = CARTESIAN_POINT('',(17.2,34.999,18.2));
#598 = CIRCLE('',#599,0.899);
#599 = AXIS2_PLACEMENT_3D('',#600,#601,#602);
#600 = CARTESIAN_POINT('',(18.099,34.999,18.2));
#601 = DIRECTION('',(-0.,0.,-1.));
#602 = DIRECTION('',(-1.,-7.903701176419E-15,0.));
#603 = ORIENTED_EDGE('',*,*,#604,.F.);
#604 = EDGE_CURVE('',#605,#596,#607,.T.);
#605 = VERTEX_POINT('',#606);
#606 = CARTESIAN_POINT('',(17.2,35.001,18.2));
#607 = LINE('',#608,#609);
#608 = CARTESIAN_POINT('',(17.2,35.0005,18.2));
#609 = VECTOR('',#610,1.);
#610 = DIRECTION('',(0.,-1.,0.));
#611 = ORIENTED_EDGE('',*,*,#612,.T.);
#612 = EDGE_CURVE('',#605,#613,#615,.T.);
#613 = VERTEX_POINT('',#614);
#614 = CARTESIAN_POINT('',(18.099,35.9,18.2));
#615 = CIRCLE('',#616,0.899);
#616 = AXIS2_PLACEMENT_3D('',#617,#618,#619);
#617 = CARTESIAN_POINT('',(18.099,35.001,18.2));
#618 = DIRECTION('',(-0.,0.,-1.));
#619 = DIRECTION('',(-7.903701176419E-15,1.,0.));
#620 = ORIENTED_EDGE('',*,*,#621,.F.);
#621 = EDGE_CURVE('',#622,#613,#624,.T.);
#622 = VERTEX_POINT('',#623);
#623 = CARTESIAN_POINT('',(23.901,35.9,18.2));
#624 = LINE('',#625,#626);
#625 = CARTESIAN_POINT('',(22.4505,35.9,18.2));
#626 = VECTOR('',#627,1.);
#627 = DIRECTION('',(-1.,0.,0.));
#628 = ORIENTED_EDGE('',*,*,#629,.T.);
#629 = EDGE_CURVE('',#622,#630,#632,.T.);
#630 = VERTEX_POINT('',#631);
#631 = CARTESIAN_POINT('',(24.8,35.001,18.2));
#632 = CIRCLE('',#633,0.899);
#633 = AXIS2_PLACEMENT_3D('',#634,#635,#636);
#634 = CARTESIAN_POINT('',(23.901,35.001,18.2));
#635 = DIRECTION('',(0.,-0.,-1.));
#636 = DIRECTION('',(1.,7.903701176419E-15,-0.));
#637 = ORIENTED_EDGE('',*,*,#638,.F.);
#638 = EDGE_CURVE('',#639,#630,#641,.T.);
#639 = VERTEX_POINT('',#640);
#640 = CARTESIAN_POINT('',(24.8,34.999,18.2));
#641 = LINE('',#642,#643);
#642 = CARTESIAN_POINT('',(24.8,34.9995,18.2));
#643 = VECTOR('',#644,1.);
#644 = DIRECTION('',(0.,1.,-0.));
#645 = ORIENTED_EDGE('',*,*,#646,.T.);
#646 = EDGE_CURVE('',#639,#588,#647,.T.);
#647 = CIRCLE('',#648,0.899);
#648 = AXIS2_PLACEMENT_3D('',#649,#650,#651);
#649 = CARTESIAN_POINT('',(23.901,34.999,18.2));
#650 = DIRECTION('',(0.,-0.,-1.));
#651 = DIRECTION('',(1.185555176463E-14,-1.,0.));
#652 = PLANE('',#653);
#653 = AXIS2_PLACEMENT_3D('',#654,#655,#656);
#654 = CARTESIAN_POINT('',(21.,35.,18.2));
#655 = DIRECTION('',(0.,0.,1.));
#656 = DIRECTION('',(1.,0.,-0.));
#657 = ADVANCED_FACE('',(#658),#683,.F.);
#658 = FACE_BOUND('',#659,.F.);
#659 = EDGE_LOOP('',(#660,#661,#669,#677));
#660 = ORIENTED_EDGE('',*,*,#585,.F.);
#661 = ORIENTED_EDGE('',*,*,#662,.T.);
#662 = EDGE_CURVE('',#586,#663,#665,.T.);
#663 = VERTEX_POINT('',#664);
#664 = CARTESIAN_POINT('',(18.099,34.1,20.2));
#665 = LINE('',#666,#667);
#666 = CARTESIAN_POINT('',(18.099,34.1,14.2));
#667 = VECTOR('',#668,1.);
#668 = DIRECTION('',(0.,0.,1.));
#669 = ORIENTED_EDGE('',*,*,#670,.T.);
#670 = EDGE_CURVE('',#663,#671,#673,.T.);
#671 = VERTEX_POINT('',#672);
#672 = CARTESIAN_POINT('',(23.901,34.1,20.2));
#673 = LINE('',#674,#675);
#674 = CARTESIAN_POINT('',(18.099,34.1,20.2));
#675 = VECTOR('',#676,1.);
#676 = DIRECTION('',(1.,0.,0.));
#677 = ORIENTED_EDGE('',*,*,#678,.F.);
#678 = EDGE_CURVE('',#588,#671,#679,.T.);
#679 = LINE('',#680,#681);
#680 = CARTESIAN_POINT('',(23.901,34.1,14.2));
#681 = VECTOR('',#682,1.);
#682 = DIRECTION('',(0.,0.,1.));
#683 = PLANE('',#684);
#684 = AXIS2_PLACEMENT_3D('',#685,#686,#687);
#685 = CARTESIAN_POINT('',(18.099,34.1,14.2));
#686 = DIRECTION('',(0.,1.,0.));
#687 = DIRECTION('',(1.,0.,0.));
#688 = ADVANCED_FACE('',(#689),#708,.T.);
#689 = FACE_BOUND('',#690,.F.);
#690 = EDGE_LOOP('',(#691,#692,#693,#702));
#691 = ORIENTED_EDGE('',*,*,#646,.T.);
#692 = ORIENTED_EDGE('',*,*,#678,.T.);
#693 = ORIENTED_EDGE('',*,*,#694,.T.);
#694 = EDGE_CURVE('',#671,#695,#697,.T.);
#695 = VERTEX_POINT('',#696);
#696 = CARTESIAN_POINT('',(24.8,34.999,20.2));
#697 = CIRCLE('',#698,0.899);
#698 = AXIS2_PLACEMENT_3D('',#699,#700,#701);
#699 = CARTESIAN_POINT('',(23.901,34.999,20.2));
#700 = DIRECTION('',(0.,0.,1.));
#701 = DIRECTION('',(1.185555176463E-14,-1.,0.));
#702 = ORIENTED_EDGE('',*,*,#703,.F.);
#703 = EDGE_CURVE('',#639,#695,#704,.T.);
#704 = LINE('',#705,#706);
#705 = CARTESIAN_POINT('',(24.8,34.999,14.2));
#706 = VECTOR('',#707,1.);
#707 = DIRECTION('',(0.,0.,1.));
#708 = CYLINDRICAL_SURFACE('',#709,0.899);
#709 = AXIS2_PLACEMENT_3D('',#710,#711,#712);
#710 = CARTESIAN_POINT('',(23.901,34.999,14.2));
#711 = DIRECTION('',(-0.,-0.,-1.));
#712 = DIRECTION('',(1.185555176463E-14,-1.,0.));
#713 = ADVANCED_FACE('',(#714),#732,.F.);
#714 = FACE_BOUND('',#715,.F.);
#715 = EDGE_LOOP('',(#716,#717,#718,#726));
#716 = ORIENTED_EDGE('',*,*,#638,.F.);
#717 = ORIENTED_EDGE('',*,*,#703,.T.);
#718 = ORIENTED_EDGE('',*,*,#719,.T.);
#719 = EDGE_CURVE('',#695,#720,#722,.T.);
#720 = VERTEX_POINT('',#721);
#721 = CARTESIAN_POINT('',(24.8,35.001,20.2));
#722 = LINE('',#723,#724);
#723 = CARTESIAN_POINT('',(24.8,34.999,20.2));
#724 = VECTOR('',#725,1.);
#725 = DIRECTION('',(0.,1.,0.));
#726 = ORIENTED_EDGE('',*,*,#727,.F.);
#727 = EDGE_CURVE('',#630,#720,#728,.T.);
#728 = LINE('',#729,#730);
#729 = CARTESIAN_POINT('',(24.8,35.001,14.2));
#730 = VECTOR('',#731,1.);
#731 = DIRECTION('',(0.,0.,1.));
#732 = PLANE('',#733);
#733 = AXIS2_PLACEMENT_3D('',#734,#735,#736);
#734 = CARTESIAN_POINT('',(24.8,34.999,14.2));
#735 = DIRECTION('',(-1.,0.,0.));
#736 = DIRECTION('',(0.,1.,0.));
#737 = ADVANCED_FACE('',(#738),#757,.T.);
#738 = FACE_BOUND('',#739,.F.);
#739 = EDGE_LOOP('',(#740,#741,#742,#751));
#740 = ORIENTED_EDGE('',*,*,#629,.T.);
#741 = ORIENTED_EDGE('',*,*,#727,.T.);
#742 = ORIENTED_EDGE('',*,*,#743,.T.);
#743 = EDGE_CURVE('',#720,#744,#746,.T.);
#744 = VERTEX_POINT('',#745);
#745 = CARTESIAN_POINT('',(23.901,35.9,20.2));
#746 = CIRCLE('',#747,0.899);
#747 = AXIS2_PLACEMENT_3D('',#748,#749,#750);
#748 = CARTESIAN_POINT('',(23.901,35.001,20.2));
#749 = DIRECTION('',(0.,0.,1.));
#750 = DIRECTION('',(1.,7.903701176419E-15,-0.));
#751 = ORIENTED_EDGE('',*,*,#752,.F.);
#752 = EDGE_CURVE('',#622,#744,#753,.T.);
#753 = LINE('',#754,#755);
#754 = CARTESIAN_POINT('',(23.901,35.9,14.2));
#755 = VECTOR('',#756,1.);
#756 = DIRECTION('',(0.,0.,1.));
#757 = CYLINDRICAL_SURFACE('',#758,0.899);
#758 = AXIS2_PLACEMENT_3D('',#759,#760,#761);
#759 = CARTESIAN_POINT('',(23.901,35.001,14.2));
#760 = DIRECTION('',(-0.,-0.,-1.));
#761 = DIRECTION('',(1.,7.903701176419E-15,-0.));
#762 = ADVANCED_FACE('',(#763),#781,.F.);
#763 = FACE_BOUND('',#764,.F.);
#764 = EDGE_LOOP('',(#765,#766,#767,#775));
#765 = ORIENTED_EDGE('',*,*,#621,.F.);
#766 = ORIENTED_EDGE('',*,*,#752,.T.);
#767 = ORIENTED_EDGE('',*,*,#768,.T.);
#768 = EDGE_CURVE('',#744,#769,#771,.T.);
#769 = VERTEX_POINT('',#770);
#770 = CARTESIAN_POINT('',(18.099,35.9,20.2));
#771 = LINE('',#772,#773);
#772 = CARTESIAN_POINT('',(23.901,35.9,20.2));
#773 = VECTOR('',#774,1.);
#774 = DIRECTION('',(-1.,0.,0.));
#775 = ORIENTED_EDGE('',*,*,#776,.F.);
#776 = EDGE_CURVE('',#613,#769,#777,.T.);
#777 = LINE('',#778,#779);
#778 = CARTESIAN_POINT('',(18.099,35.9,14.2));
#779 = VECTOR('',#780,1.);
#780 = DIRECTION('',(0.,0.,1.));
#781 = PLANE('',#782);
#782 = AXIS2_PLACEMENT_3D('',#783,#784,#785);
#783 = CARTESIAN_POINT('',(23.901,35.9,14.2));
#784 = DIRECTION('',(0.,-1.,0.));
#785 = DIRECTION('',(-1.,0.,0.));
#786 = ADVANCED_FACE('',(#787),#806,.T.);
#787 = FACE_BOUND('',#788,.F.);
#788 = EDGE_LOOP('',(#789,#790,#791,#800));
#789 = ORIENTED_EDGE('',*,*,#612,.T.);
#790 = ORIENTED_EDGE('',*,*,#776,.T.);
#791 = ORIENTED_EDGE('',*,*,#792,.T.);
#792 = EDGE_CURVE('',#769,#793,#795,.T.);
#793 = VERTEX_POINT('',#794);
#794 = CARTESIAN_POINT('',(17.2,35.001,20.2));
#795 = CIRCLE('',#796,0.899);
#796 = AXIS2_PLACEMENT_3D('',#797,#798,#799);
#797 = CARTESIAN_POINT('',(18.099,35.001,20.2));
#798 = DIRECTION('',(0.,0.,1.));
#799 = DIRECTION('',(-7.903701176419E-15,1.,0.));
#800 = ORIENTED_EDGE('',*,*,#801,.F.);
#801 = EDGE_CURVE('',#605,#793,#802,.T.);
#802 = LINE('',#803,#804);
#803 = CARTESIAN_POINT('',(17.2,35.001,14.2));
#804 = VECTOR('',#805,1.);
#805 = DIRECTION('',(0.,0.,1.));
#806 = CYLINDRICAL_SURFACE('',#807,0.899);
#807 = AXIS2_PLACEMENT_3D('',#808,#809,#810);
#808 = CARTESIAN_POINT('',(18.099,35.001,14.2));
#809 = DIRECTION('',(-0.,-0.,-1.));
#810 = DIRECTION('',(-7.903701176419E-15,1.,0.));
#811 = ADVANCED_FACE('',(#812),#830,.F.);
#812 = FACE_BOUND('',#813,.F.);
#813 = EDGE_LOOP('',(#814,#815,#816,#824));
#814 = ORIENTED_EDGE('',*,*,#604,.F.);
#815 = ORIENTED_EDGE('',*,*,#801,.T.);
#816 = ORIENTED_EDGE('',*,*,#817,.T.);
#817 = EDGE_CURVE('',#793,#818,#820,.T.);
#818 = VERTEX_POINT('',#819);
#819 = CARTESIAN_POINT('',(17.2,34.999,20.2));
#820 = LINE('',#821,#822);
#821 = CARTESIAN_POINT('',(17.2,35.001,20.2));
#822 = VECTOR('',#823,1.);
#823 = DIRECTION('',(0.,-1.,0.));
#824 = ORIENTED_EDGE('',*,*,#825,.F.);
#825 = EDGE_CURVE('',#596,#818,#826,.T.);
#826 = LINE('',#827,#828);
#827 = CARTESIAN_POINT('',(17.2,34.999,14.2));
#828 = VECTOR('',#829,1.);
#829 = DIRECTION('',(0.,0.,1.));
#830 = PLANE('',#831);
#831 = AXIS2_PLACEMENT_3D('',#832,#833,#834);
#832 = CARTESIAN_POINT('',(17.2,35.001,14.2));
#833 = DIRECTION('',(1.,0.,-0.));
#834 = DIRECTION('',(0.,-1.,0.));
#835 = ADVANCED_FACE('',(#836),#848,.T.);
#836 = FACE_BOUND('',#837,.F.);
#837 = EDGE_LOOP('',(#838,#839,#840,#847));
#838 = ORIENTED_EDGE('',*,*,#595,.T.);
#839 = ORIENTED_EDGE('',*,*,#825,.T.);
#840 = ORIENTED_EDGE('',*,*,#841,.T.);
#841 = EDGE_CURVE('',#818,#663,#842,.T.);
#842 = CIRCLE('',#843,0.899);
#843 = AXIS2_PLACEMENT_3D('',#844,#845,#846);
#844 = CARTESIAN_POINT('',(18.099,34.999,20.2));
#845 = DIRECTION('',(0.,0.,1.));
#846 = DIRECTION('',(-1.,-7.903701176419E-15,0.));
#847 = ORIENTED_EDGE('',*,*,#662,.F.);
#848 = CYLINDRICAL_SURFACE('',#849,0.899);
#849 = AXIS2_PLACEMENT_3D('',#850,#851,#852);
#850 = CARTESIAN_POINT('',(18.099,34.999,14.2));
#851 = DIRECTION('',(-0.,-0.,-1.));
#852 = DIRECTION('',(-1.,-7.903701176419E-15,0.));
#853 = ADVANCED_FACE('',(#854),#864,.T.);
#854 = FACE_BOUND('',#855,.T.);
#855 = EDGE_LOOP('',(#856,#857,#858,#859,#860,#861,#862,#863));
#856 = ORIENTED_EDGE('',*,*,#670,.T.);
#857 = ORIENTED_EDGE('',*,*,#694,.T.);
#858 = ORIENTED_EDGE('',*,*,#719,.T.);
#859 = ORIENTED_EDGE('',*,*,#743,.T.);
#860 = ORIENTED_EDGE('',*,*,#768,.T.);
#861 = ORIENTED_EDGE('',*,*,#792,.T.);
#862 = ORIENTED_EDGE('',*,*,#817,.T.);
#863 = ORIENTED_EDGE('',*,*,#841,.T.);
#864 = PLANE('',#865);
#865 = AXIS2_PLACEMENT_3D('',#866,#867,#868);
#866 = CARTESIAN_POINT('',(21.,35.,20.2));
#867 = DIRECTION('',(0.,0.,1.));
#868 = DIRECTION('',(1.,0.,-0.));
#869 = ( GEOMETRIC_REPRESENTATION_CONTEXT(3) 
GLOBAL_UNCERTAINTY_ASSIGNED_CONTEXT((#873)) GLOBAL_UNIT_ASSIGNED_CONTEXT
((#870,#871,#872)) REPRESENTATION_CONTEXT('Context #1',
  '3D Context with UNIT and UNCERTAINTY') );
#870 = ( LENGTH_UNIT() NAMED_UNIT(*) SI_UNIT(.MILLI.,.METRE.) );
#871 = ( NAMED_UNIT(*) PLANE_ANGLE_UNIT() SI_UNIT($,.RADIAN.) );
#872 = ( NAMED_UNIT(*) SI_UNIT($,.STERADIAN.) SOLID_ANGLE_UNIT() );
#873 = UNCERTAINTY_MEASURE_WITH_UNIT(LENGTH_MEASURE(1.E-07),#870,
  'distance_accuracy_value','confusion accuracy');
#874 = PRODUCT_RELATED_PRODUCT_CATEGORY('part',$,(#7));
ENDSEC;
END-ISO-10303-21;
