ISO-10303-21;
HEADER;
FILE_DESCRIPTION(('FreeCAD Model'),'2;1');
FILE_NAME('Open CASCADE Shape Model','2026-09-27T23:12:55',('FreeCAD'),(
    'FreeCAD'),'Open CASCADE STEP processor 7.9','FreeCAD','Unknown');
FILE_SCHEMA(('AUTOMOTIVE_DESIGN { 1 0 10303 214 1 1 1 1 }'));
ENDSEC;
DATA;
#1 = APPLICATION_PROTOCOL_DEFINITION('international standard',
  'automotive_design',2000,#2);
#2 = APPLICATION_CONTEXT(
  'core data for automotive mechanical design processes');
#3 = SHAPE_DEFINITION_REPRESENTATION(#4,#10);
#4 = PRODUCT_DEFINITION_SHAPE('','',#5);
#5 = PRODUCT_DEFINITION('design','',#6,#9);
#6 = PRODUCT_DEFINITION_FORMATION('','',#7);
#7 = PRODUCT('Open CASCADE STEP translator 7.9 9',
  'Open CASCADE STEP translator 7.9 9','',(#8));
#8 = PRODUCT_CONTEXT('',#2,'mechanical');
#9 = PRODUCT_DEFINITION_CONTEXT('part definition',#2,'design');
#10 = ADVANCED_BREP_SHAPE_REPRESENTATION('',(#11,#15),#709);
#11 = AXIS2_PLACEMENT_3D('',#12,#13,#14);
#12 = CARTESIAN_POINT('',(0.,0.,0.));
#13 = DIRECTION('',(0.,0.,1.));
#14 = DIRECTION('',(1.,0.,-0.));
#15 = MANIFOLD_SOLID_BREP('',#16);
#16 = CLOSED_SHELL('',(#17,#57,#224,#248,#408,#425,#442,#459,#476,#493,
    #510,#527,#544,#561,#578,#595,#612,#629,#646,#663,#680,#697));
#17 = ADVANCED_FACE('',(#18),#52,.F.);
#18 = FACE_BOUND('',#19,.F.);
#19 = EDGE_LOOP('',(#20,#30,#38,#46));
#20 = ORIENTED_EDGE('',*,*,#21,.F.);
#21 = EDGE_CURVE('',#22,#24,#26,.T.);
#22 = VERTEX_POINT('',#23);
#23 = CARTESIAN_POINT('',(8.,0.3,14.));
#24 = VERTEX_POINT('',#25);
#25 = CARTESIAN_POINT('',(12.,0.3,14.));
#26 = LINE('',#27,#28);
#27 = CARTESIAN_POINT('',(8.,0.3,14.));
#28 = VECTOR('',#29,1.);
#29 = DIRECTION('',(1.,0.,0.));
#30 = ORIENTED_EDGE('',*,*,#31,.T.);
#31 = EDGE_CURVE('',#22,#32,#34,.T.);
#32 = VERTEX_POINT('',#33);
#33 = CARTESIAN_POINT('',(8.,0.3,14.5));
#34 = LINE('',#35,#36);
#35 = CARTESIAN_POINT('',(8.,0.3,14.));
#36 = VECTOR('',#37,1.);
#37 = DIRECTION('',(0.,0.,1.));
#38 = ORIENTED_EDGE('',*,*,#39,.T.);
#39 = EDGE_CURVE('',#32,#40,#42,.T.);
#40 = VERTEX_POINT('',#41);
#41 = CARTESIAN_POINT('',(12.,0.3,14.5));
#42 = LINE('',#43,#44);
#43 = CARTESIAN_POINT('',(8.,0.3,14.5));
#44 = VECTOR('',#45,1.);
#45 = DIRECTION('',(1.,0.,0.));
#46 = ORIENTED_EDGE('',*,*,#47,.T.);
#47 = EDGE_CURVE('',#40,#24,#48,.T.);
#48 = LINE('',#49,#50);
#49 = CARTESIAN_POINT('',(12.,0.3,13.95));
#50 = VECTOR('',#51,1.);
#51 = DIRECTION('',(-0.,0.,-1.));
#52 = PLANE('',#53);
#53 = AXIS2_PLACEMENT_3D('',#54,#55,#56);
#54 = CARTESIAN_POINT('',(8.,0.3,14.));
#55 = DIRECTION('',(0.,1.,0.));
#56 = DIRECTION('',(1.,0.,0.));
#57 = ADVANCED_FACE('',(#58),#219,.F.);
#58 = FACE_BOUND('',#59,.F.);
#59 = EDGE_LOOP('',(#60,#69,#70,#78,#86,#95,#103,#112,#120,#129,#137,
    #146,#154,#162,#170,#179,#187,#196,#204,#213));
#60 = ORIENTED_EDGE('',*,*,#61,.T.);
#61 = EDGE_CURVE('',#62,#22,#64,.T.);
#62 = VERTEX_POINT('',#63);
#63 = CARTESIAN_POINT('',(0.3,8.,14.));
#64 = CIRCLE('',#65,7.7);
#65 = AXIS2_PLACEMENT_3D('',#66,#67,#68);
#66 = CARTESIAN_POINT('',(8.,8.,14.));
#67 = DIRECTION('',(0.,0.,1.));
#68 = DIRECTION('',(-1.,0.,0.));
#69 = ORIENTED_EDGE('',*,*,#21,.T.);
#70 = ORIENTED_EDGE('',*,*,#71,.T.);
#71 = EDGE_CURVE('',#24,#72,#74,.T.);
#72 = VERTEX_POINT('',#73);
#73 = CARTESIAN_POINT('',(12.,1.5,14.));
#74 = LINE('',#75,#76);
#75 = CARTESIAN_POINT('',(12.,14.5,14.));
#76 = VECTOR('',#77,1.);
#77 = DIRECTION('',(-0.,1.,0.));
#78 = ORIENTED_EDGE('',*,*,#79,.T.);
#79 = EDGE_CURVE('',#72,#80,#82,.T.);
#80 = VERTEX_POINT('',#81);
#81 = CARTESIAN_POINT('',(8.,1.5,14.));
#82 = LINE('',#83,#84);
#83 = CARTESIAN_POINT('',(14.5,1.5,14.));
#84 = VECTOR('',#85,1.);
#85 = DIRECTION('',(-1.,0.,0.));
#86 = ORIENTED_EDGE('',*,*,#87,.T.);
#87 = EDGE_CURVE('',#80,#88,#90,.T.);
#88 = VERTEX_POINT('',#89);
#89 = CARTESIAN_POINT('',(1.5,8.,14.));
#90 = CIRCLE('',#91,6.5);
#91 = AXIS2_PLACEMENT_3D('',#92,#93,#94);
#92 = CARTESIAN_POINT('',(8.,8.,14.));
#93 = DIRECTION('',(-0.,0.,-1.));
#94 = DIRECTION('',(-1.,6.832141690001E-16,0.));
#95 = ORIENTED_EDGE('',*,*,#96,.T.);
#96 = EDGE_CURVE('',#88,#97,#99,.T.);
#97 = VERTEX_POINT('',#98);
#98 = CARTESIAN_POINT('',(1.5,52.,14.));
#99 = LINE('',#100,#101);
#100 = CARTESIAN_POINT('',(1.5,41.,14.));
#101 = VECTOR('',#102,1.);
#102 = DIRECTION('',(-0.,1.,0.));
#103 = ORIENTED_EDGE('',*,*,#104,.T.);
#104 = EDGE_CURVE('',#97,#105,#107,.T.);
#105 = VERTEX_POINT('',#106);
#106 = CARTESIAN_POINT('',(8.,58.5,14.));
#107 = CIRCLE('',#108,6.5);
#108 = AXIS2_PLACEMENT_3D('',#109,#110,#111);
#109 = CARTESIAN_POINT('',(8.,52.,14.));
#110 = DIRECTION('',(0.,-0.,-1.));
#111 = DIRECTION('',(9.564998366001E-16,1.,-0.));
#112 = ORIENTED_EDGE('',*,*,#113,.T.);
#113 = EDGE_CURVE('',#105,#114,#116,.T.);
#114 = VERTEX_POINT('',#115);
#115 = CARTESIAN_POINT('',(34.,58.5,14.));
#116 = LINE('',#117,#118);
#117 = CARTESIAN_POINT('',(27.5,58.5,14.));
#118 = VECTOR('',#119,1.);
#119 = DIRECTION('',(1.,0.,-0.));
#120 = ORIENTED_EDGE('',*,*,#121,.T.);
#121 = EDGE_CURVE('',#114,#122,#124,.T.);
#122 = VERTEX_POINT('',#123);
#123 = CARTESIAN_POINT('',(40.5,52.,14.));
#124 = CIRCLE('',#125,6.5);
#125 = AXIS2_PLACEMENT_3D('',#126,#127,#128);
#126 = CARTESIAN_POINT('',(34.,52.,14.));
#127 = DIRECTION('',(0.,-0.,-1.));
#128 = DIRECTION('',(1.,-1.0931426704E-15,0.));
#129 = ORIENTED_EDGE('',*,*,#130,.T.);
#130 = EDGE_CURVE('',#122,#131,#133,.T.);
#131 = VERTEX_POINT('',#132);
#132 = CARTESIAN_POINT('',(40.5,8.,14.));
#133 = LINE('',#134,#135);
#134 = CARTESIAN_POINT('',(40.5,19.,14.));
#135 = VECTOR('',#136,1.);
#136 = DIRECTION('',(0.,-1.,0.));
#137 = ORIENTED_EDGE('',*,*,#138,.T.);
#138 = EDGE_CURVE('',#131,#139,#141,.T.);
#139 = VERTEX_POINT('',#140);
#140 = CARTESIAN_POINT('',(34.,1.5,14.));
#141 = CIRCLE('',#142,6.5);
#142 = AXIS2_PLACEMENT_3D('',#143,#144,#145);
#143 = CARTESIAN_POINT('',(34.,8.,14.));
#144 = DIRECTION('',(-0.,0.,-1.));
#145 = DIRECTION('',(-1.0931426704E-15,-1.,0.));
#146 = ORIENTED_EDGE('',*,*,#147,.T.);
#147 = EDGE_CURVE('',#139,#148,#150,.T.);
#148 = VERTEX_POINT('',#149);
#149 = CARTESIAN_POINT('',(30.,1.5,14.));
#150 = LINE('',#151,#152);
#151 = CARTESIAN_POINT('',(14.5,1.5,14.));
#152 = VECTOR('',#153,1.);
#153 = DIRECTION('',(-1.,0.,0.));
#154 = ORIENTED_EDGE('',*,*,#155,.F.);
#155 = EDGE_CURVE('',#156,#148,#158,.T.);
#156 = VERTEX_POINT('',#157);
#157 = CARTESIAN_POINT('',(30.,0.3,14.));
#158 = LINE('',#159,#160);
#159 = CARTESIAN_POINT('',(30.,14.5,14.));
#160 = VECTOR('',#161,1.);
#161 = DIRECTION('',(-0.,1.,0.));
#162 = ORIENTED_EDGE('',*,*,#163,.T.);
#163 = EDGE_CURVE('',#156,#164,#166,.T.);
#164 = VERTEX_POINT('',#165);
#165 = CARTESIAN_POINT('',(34.,0.3,14.));
#166 = LINE('',#167,#168);
#167 = CARTESIAN_POINT('',(8.,0.3,14.));
#168 = VECTOR('',#169,1.);
#169 = DIRECTION('',(1.,0.,0.));
#170 = ORIENTED_EDGE('',*,*,#171,.T.);
#171 = EDGE_CURVE('',#164,#172,#174,.T.);
#172 = VERTEX_POINT('',#173);
#173 = CARTESIAN_POINT('',(41.7,8.,14.));
#174 = CIRCLE('',#175,7.7);
#175 = AXIS2_PLACEMENT_3D('',#176,#177,#178);
#176 = CARTESIAN_POINT('',(34.,8.,14.));
#177 = DIRECTION('',(0.,0.,1.));
#178 = DIRECTION('',(0.,-1.,0.));
#179 = ORIENTED_EDGE('',*,*,#180,.T.);
#180 = EDGE_CURVE('',#172,#181,#183,.T.);
#181 = VERTEX_POINT('',#182);
#182 = CARTESIAN_POINT('',(41.7,52.,14.));
#183 = LINE('',#184,#185);
#184 = CARTESIAN_POINT('',(41.7,8.,14.));
#185 = VECTOR('',#186,1.);
#186 = DIRECTION('',(0.,1.,0.));
#187 = ORIENTED_EDGE('',*,*,#188,.T.);
#188 = EDGE_CURVE('',#181,#189,#191,.T.);
#189 = VERTEX_POINT('',#190);
#190 = CARTESIAN_POINT('',(34.,59.7,14.));
#191 = CIRCLE('',#192,7.7);
#192 = AXIS2_PLACEMENT_3D('',#193,#194,#195);
#193 = CARTESIAN_POINT('',(34.,52.,14.));
#194 = DIRECTION('',(0.,0.,1.));
#195 = DIRECTION('',(1.,-9.227827737144E-16,0.));
#196 = ORIENTED_EDGE('',*,*,#197,.T.);
#197 = EDGE_CURVE('',#189,#198,#200,.T.);
#198 = VERTEX_POINT('',#199);
#199 = CARTESIAN_POINT('',(8.,59.7,14.));
#200 = LINE('',#201,#202);
#201 = CARTESIAN_POINT('',(34.,59.7,14.));
#202 = VECTOR('',#203,1.);
#203 = DIRECTION('',(-1.,0.,0.));
#204 = ORIENTED_EDGE('',*,*,#205,.T.);
#205 = EDGE_CURVE('',#198,#206,#208,.T.);
#206 = VERTEX_POINT('',#207);
#207 = CARTESIAN_POINT('',(0.3,52.,14.));
#208 = CIRCLE('',#209,7.7);
#209 = AXIS2_PLACEMENT_3D('',#210,#211,#212);
#210 = CARTESIAN_POINT('',(8.,52.,14.));
#211 = DIRECTION('',(0.,-0.,1.));
#212 = DIRECTION('',(0.,1.,0.));
#213 = ORIENTED_EDGE('',*,*,#214,.T.);
#214 = EDGE_CURVE('',#206,#62,#215,.T.);
#215 = LINE('',#216,#217);
#216 = CARTESIAN_POINT('',(0.3,52.,14.));
#217 = VECTOR('',#218,1.);
#218 = DIRECTION('',(0.,-1.,0.));
#219 = PLANE('',#220);
#220 = AXIS2_PLACEMENT_3D('',#221,#222,#223);
#221 = CARTESIAN_POINT('',(21.,30.,14.));
#222 = DIRECTION('',(0.,0.,1.));
#223 = DIRECTION('',(1.,0.,-0.));
#224 = ADVANCED_FACE('',(#225),#243,.T.);
#225 = FACE_BOUND('',#226,.T.);
#226 = EDGE_LOOP('',(#227,#235,#236,#237));
#227 = ORIENTED_EDGE('',*,*,#228,.F.);
#228 = EDGE_CURVE('',#40,#229,#231,.T.);
#229 = VERTEX_POINT('',#230);
#230 = CARTESIAN_POINT('',(12.,1.5,14.5));
#231 = LINE('',#232,#233);
#232 = CARTESIAN_POINT('',(12.,14.5,14.5));
#233 = VECTOR('',#234,1.);
#234 = DIRECTION('',(-0.,1.,0.));
#235 = ORIENTED_EDGE('',*,*,#47,.T.);
#236 = ORIENTED_EDGE('',*,*,#71,.T.);
#237 = ORIENTED_EDGE('',*,*,#238,.F.);
#238 = EDGE_CURVE('',#229,#72,#239,.T.);
#239 = LINE('',#240,#241);
#240 = CARTESIAN_POINT('',(12.,1.5,13.9));
#241 = VECTOR('',#242,1.);
#242 = DIRECTION('',(-0.,0.,-1.));
#243 = PLANE('',#244);
#244 = AXIS2_PLACEMENT_3D('',#245,#246,#247);
#245 = CARTESIAN_POINT('',(12.,-1.,13.9));
#246 = DIRECTION('',(1.,0.,-0.));
#247 = DIRECTION('',(0.,0.,1.));
#248 = ADVANCED_FACE('',(#249),#403,.T.);
#249 = FACE_BOUND('',#250,.T.);
#250 = EDGE_LOOP('',(#251,#260,#261,#262,#270,#279,#287,#296,#304,#313,
    #321,#330,#338,#346,#354,#363,#371,#380,#388,#397));
#251 = ORIENTED_EDGE('',*,*,#252,.T.);
#252 = EDGE_CURVE('',#253,#32,#255,.T.);
#253 = VERTEX_POINT('',#254);
#254 = CARTESIAN_POINT('',(0.3,8.,14.5));
#255 = CIRCLE('',#256,7.7);
#256 = AXIS2_PLACEMENT_3D('',#257,#258,#259);
#257 = CARTESIAN_POINT('',(8.,8.,14.5));
#258 = DIRECTION('',(0.,0.,1.));
#259 = DIRECTION('',(-1.,0.,0.));
#260 = ORIENTED_EDGE('',*,*,#39,.T.);
#261 = ORIENTED_EDGE('',*,*,#228,.T.);
#262 = ORIENTED_EDGE('',*,*,#263,.T.);
#263 = EDGE_CURVE('',#229,#264,#266,.T.);
#264 = VERTEX_POINT('',#265);
#265 = CARTESIAN_POINT('',(8.,1.5,14.5));
#266 = LINE('',#267,#268);
#267 = CARTESIAN_POINT('',(14.5,1.5,14.5));
#268 = VECTOR('',#269,1.);
#269 = DIRECTION('',(-1.,0.,0.));
#270 = ORIENTED_EDGE('',*,*,#271,.T.);
#271 = EDGE_CURVE('',#264,#272,#274,.T.);
#272 = VERTEX_POINT('',#273);
#273 = CARTESIAN_POINT('',(1.5,8.,14.5));
#274 = CIRCLE('',#275,6.5);
#275 = AXIS2_PLACEMENT_3D('',#276,#277,#278);
#276 = CARTESIAN_POINT('',(8.,8.,14.5));
#277 = DIRECTION('',(-0.,0.,-1.));
#278 = DIRECTION('',(-1.,6.832141690001E-16,0.));
#279 = ORIENTED_EDGE('',*,*,#280,.T.);
#280 = EDGE_CURVE('',#272,#281,#283,.T.);
#281 = VERTEX_POINT('',#282);
#282 = CARTESIAN_POINT('',(1.5,52.,14.5));
#283 = LINE('',#284,#285);
#284 = CARTESIAN_POINT('',(1.5,41.,14.5));
#285 = VECTOR('',#286,1.);
#286 = DIRECTION('',(-0.,1.,0.));
#287 = ORIENTED_EDGE('',*,*,#288,.T.);
#288 = EDGE_CURVE('',#281,#289,#291,.T.);
#289 = VERTEX_POINT('',#290);
#290 = CARTESIAN_POINT('',(8.,58.5,14.5));
#291 = CIRCLE('',#292,6.5);
#292 = AXIS2_PLACEMENT_3D('',#293,#294,#295);
#293 = CARTESIAN_POINT('',(8.,52.,14.5));
#294 = DIRECTION('',(0.,-0.,-1.));
#295 = DIRECTION('',(9.564998366001E-16,1.,-0.));
#296 = ORIENTED_EDGE('',*,*,#297,.T.);
#297 = EDGE_CURVE('',#289,#298,#300,.T.);
#298 = VERTEX_POINT('',#299);
#299 = CARTESIAN_POINT('',(34.,58.5,14.5));
#300 = LINE('',#301,#302);
#301 = CARTESIAN_POINT('',(27.5,58.5,14.5));
#302 = VECTOR('',#303,1.);
#303 = DIRECTION('',(1.,0.,-0.));
#304 = ORIENTED_EDGE('',*,*,#305,.T.);
#305 = EDGE_CURVE('',#298,#306,#308,.T.);
#306 = VERTEX_POINT('',#307);
#307 = CARTESIAN_POINT('',(40.5,52.,14.5));
#308 = CIRCLE('',#309,6.5);
#309 = AXIS2_PLACEMENT_3D('',#310,#311,#312);
#310 = CARTESIAN_POINT('',(34.,52.,14.5));
#311 = DIRECTION('',(0.,-0.,-1.));
#312 = DIRECTION('',(1.,-1.0931426704E-15,0.));
#313 = ORIENTED_EDGE('',*,*,#314,.T.);
#314 = EDGE_CURVE('',#306,#315,#317,.T.);
#315 = VERTEX_POINT('',#316);
#316 = CARTESIAN_POINT('',(40.5,8.,14.5));
#317 = LINE('',#318,#319);
#318 = CARTESIAN_POINT('',(40.5,19.,14.5));
#319 = VECTOR('',#320,1.);
#320 = DIRECTION('',(0.,-1.,0.));
#321 = ORIENTED_EDGE('',*,*,#322,.T.);
#322 = EDGE_CURVE('',#315,#323,#325,.T.);
#323 = VERTEX_POINT('',#324);
#324 = CARTESIAN_POINT('',(34.,1.5,14.5));
#325 = CIRCLE('',#326,6.5);
#326 = AXIS2_PLACEMENT_3D('',#327,#328,#329);
#327 = CARTESIAN_POINT('',(34.,8.,14.5));
#328 = DIRECTION('',(-0.,0.,-1.));
#329 = DIRECTION('',(-1.0931426704E-15,-1.,0.));
#330 = ORIENTED_EDGE('',*,*,#331,.T.);
#331 = EDGE_CURVE('',#323,#332,#334,.T.);
#332 = VERTEX_POINT('',#333);
#333 = CARTESIAN_POINT('',(30.,1.5,14.5));
#334 = LINE('',#335,#336);
#335 = CARTESIAN_POINT('',(14.5,1.5,14.5));
#336 = VECTOR('',#337,1.);
#337 = DIRECTION('',(-1.,0.,0.));
#338 = ORIENTED_EDGE('',*,*,#339,.F.);
#339 = EDGE_CURVE('',#340,#332,#342,.T.);
#340 = VERTEX_POINT('',#341);
#341 = CARTESIAN_POINT('',(30.,0.3,14.5));
#342 = LINE('',#343,#344);
#343 = CARTESIAN_POINT('',(30.,14.5,14.5));
#344 = VECTOR('',#345,1.);
#345 = DIRECTION('',(-0.,1.,0.));
#346 = ORIENTED_EDGE('',*,*,#347,.T.);
#347 = EDGE_CURVE('',#340,#348,#350,.T.);
#348 = VERTEX_POINT('',#349);
#349 = CARTESIAN_POINT('',(34.,0.3,14.5));
#350 = LINE('',#351,#352);
#351 = CARTESIAN_POINT('',(8.,0.3,14.5));
#352 = VECTOR('',#353,1.);
#353 = DIRECTION('',(1.,0.,0.));
#354 = ORIENTED_EDGE('',*,*,#355,.T.);
#355 = EDGE_CURVE('',#348,#356,#358,.T.);
#356 = VERTEX_POINT('',#357);
#357 = CARTESIAN_POINT('',(41.7,8.,14.5));
#358 = CIRCLE('',#359,7.7);
#359 = AXIS2_PLACEMENT_3D('',#360,#361,#362);
#360 = CARTESIAN_POINT('',(34.,8.,14.5));
#361 = DIRECTION('',(0.,0.,1.));
#362 = DIRECTION('',(0.,-1.,0.));
#363 = ORIENTED_EDGE('',*,*,#364,.T.);
#364 = EDGE_CURVE('',#356,#365,#367,.T.);
#365 = VERTEX_POINT('',#366);
#366 = CARTESIAN_POINT('',(41.7,52.,14.5));
#367 = LINE('',#368,#369);
#368 = CARTESIAN_POINT('',(41.7,8.,14.5));
#369 = VECTOR('',#370,1.);
#370 = DIRECTION('',(0.,1.,0.));
#371 = ORIENTED_EDGE('',*,*,#372,.T.);
#372 = EDGE_CURVE('',#365,#373,#375,.T.);
#373 = VERTEX_POINT('',#374);
#374 = CARTESIAN_POINT('',(34.,59.7,14.5));
#375 = CIRCLE('',#376,7.7);
#376 = AXIS2_PLACEMENT_3D('',#377,#378,#379);
#377 = CARTESIAN_POINT('',(34.,52.,14.5));
#378 = DIRECTION('',(0.,0.,1.));
#379 = DIRECTION('',(1.,-9.227827737144E-16,0.));
#380 = ORIENTED_EDGE('',*,*,#381,.T.);
#381 = EDGE_CURVE('',#373,#382,#384,.T.);
#382 = VERTEX_POINT('',#383);
#383 = CARTESIAN_POINT('',(8.,59.7,14.5));
#384 = LINE('',#385,#386);
#385 = CARTESIAN_POINT('',(34.,59.7,14.5));
#386 = VECTOR('',#387,1.);
#387 = DIRECTION('',(-1.,0.,0.));
#388 = ORIENTED_EDGE('',*,*,#389,.T.);
#389 = EDGE_CURVE('',#382,#390,#392,.T.);
#390 = VERTEX_POINT('',#391);
#391 = CARTESIAN_POINT('',(0.3,52.,14.5));
#392 = CIRCLE('',#393,7.7);
#393 = AXIS2_PLACEMENT_3D('',#394,#395,#396);
#394 = CARTESIAN_POINT('',(8.,52.,14.5));
#395 = DIRECTION('',(0.,-0.,1.));
#396 = DIRECTION('',(0.,1.,0.));
#397 = ORIENTED_EDGE('',*,*,#398,.T.);
#398 = EDGE_CURVE('',#390,#253,#399,.T.);
#399 = LINE('',#400,#401);
#400 = CARTESIAN_POINT('',(0.3,52.,14.5));
#401 = VECTOR('',#402,1.);
#402 = DIRECTION('',(0.,-1.,0.));
#403 = PLANE('',#404);
#404 = AXIS2_PLACEMENT_3D('',#405,#406,#407);
#405 = CARTESIAN_POINT('',(21.,30.,14.5));
#406 = DIRECTION('',(0.,0.,1.));
#407 = DIRECTION('',(1.,0.,-0.));
#408 = ADVANCED_FACE('',(#409),#420,.T.);
#409 = FACE_BOUND('',#410,.F.);
#410 = EDGE_LOOP('',(#411,#417,#418,#419));
#411 = ORIENTED_EDGE('',*,*,#412,.T.);
#412 = EDGE_CURVE('',#62,#253,#413,.T.);
#413 = LINE('',#414,#415);
#414 = CARTESIAN_POINT('',(0.3,8.,14.));
#415 = VECTOR('',#416,1.);
#416 = DIRECTION('',(0.,0.,1.));
#417 = ORIENTED_EDGE('',*,*,#252,.T.);
#418 = ORIENTED_EDGE('',*,*,#31,.F.);
#419 = ORIENTED_EDGE('',*,*,#61,.F.);
#420 = CYLINDRICAL_SURFACE('',#421,7.7);
#421 = AXIS2_PLACEMENT_3D('',#422,#423,#424);
#422 = CARTESIAN_POINT('',(8.,8.,14.));
#423 = DIRECTION('',(-0.,-0.,-1.));
#424 = DIRECTION('',(-1.,0.,0.));
#425 = ADVANCED_FACE('',(#426),#437,.F.);
#426 = FACE_BOUND('',#427,.F.);
#427 = EDGE_LOOP('',(#428,#434,#435,#436));
#428 = ORIENTED_EDGE('',*,*,#429,.T.);
#429 = EDGE_CURVE('',#206,#390,#430,.T.);
#430 = LINE('',#431,#432);
#431 = CARTESIAN_POINT('',(0.3,52.,14.));
#432 = VECTOR('',#433,1.);
#433 = DIRECTION('',(0.,0.,1.));
#434 = ORIENTED_EDGE('',*,*,#398,.T.);
#435 = ORIENTED_EDGE('',*,*,#412,.F.);
#436 = ORIENTED_EDGE('',*,*,#214,.F.);
#437 = PLANE('',#438);
#438 = AXIS2_PLACEMENT_3D('',#439,#440,#441);
#439 = CARTESIAN_POINT('',(0.3,52.,14.));
#440 = DIRECTION('',(1.,0.,-0.));
#441 = DIRECTION('',(0.,-1.,0.));
#442 = ADVANCED_FACE('',(#443),#454,.T.);
#443 = FACE_BOUND('',#444,.F.);
#444 = EDGE_LOOP('',(#445,#451,#452,#453));
#445 = ORIENTED_EDGE('',*,*,#446,.T.);
#446 = EDGE_CURVE('',#198,#382,#447,.T.);
#447 = LINE('',#448,#449);
#448 = CARTESIAN_POINT('',(8.,59.7,14.));
#449 = VECTOR('',#450,1.);
#450 = DIRECTION('',(0.,0.,1.));
#451 = ORIENTED_EDGE('',*,*,#389,.T.);
#452 = ORIENTED_EDGE('',*,*,#429,.F.);
#453 = ORIENTED_EDGE('',*,*,#205,.F.);
#454 = CYLINDRICAL_SURFACE('',#455,7.7);
#455 = AXIS2_PLACEMENT_3D('',#456,#457,#458);
#456 = CARTESIAN_POINT('',(8.,52.,14.));
#457 = DIRECTION('',(-0.,0.,-1.));
#458 = DIRECTION('',(0.,1.,0.));
#459 = ADVANCED_FACE('',(#460),#471,.F.);
#460 = FACE_BOUND('',#461,.F.);
#461 = EDGE_LOOP('',(#462,#468,#469,#470));
#462 = ORIENTED_EDGE('',*,*,#463,.T.);
#463 = EDGE_CURVE('',#189,#373,#464,.T.);
#464 = LINE('',#465,#466);
#465 = CARTESIAN_POINT('',(34.,59.7,14.));
#466 = VECTOR('',#467,1.);
#467 = DIRECTION('',(0.,0.,1.));
#468 = ORIENTED_EDGE('',*,*,#381,.T.);
#469 = ORIENTED_EDGE('',*,*,#446,.F.);
#470 = ORIENTED_EDGE('',*,*,#197,.F.);
#471 = PLANE('',#472);
#472 = AXIS2_PLACEMENT_3D('',#473,#474,#475);
#473 = CARTESIAN_POINT('',(34.,59.7,14.));
#474 = DIRECTION('',(0.,-1.,0.));
#475 = DIRECTION('',(-1.,0.,0.));
#476 = ADVANCED_FACE('',(#477),#488,.T.);
#477 = FACE_BOUND('',#478,.F.);
#478 = EDGE_LOOP('',(#479,#485,#486,#487));
#479 = ORIENTED_EDGE('',*,*,#480,.T.);
#480 = EDGE_CURVE('',#181,#365,#481,.T.);
#481 = LINE('',#482,#483);
#482 = CARTESIAN_POINT('',(41.7,52.,14.));
#483 = VECTOR('',#484,1.);
#484 = DIRECTION('',(0.,0.,1.));
#485 = ORIENTED_EDGE('',*,*,#372,.T.);
#486 = ORIENTED_EDGE('',*,*,#463,.F.);
#487 = ORIENTED_EDGE('',*,*,#188,.F.);
#488 = CYLINDRICAL_SURFACE('',#489,7.7);
#489 = AXIS2_PLACEMENT_3D('',#490,#491,#492);
#490 = CARTESIAN_POINT('',(34.,52.,14.));
#491 = DIRECTION('',(-0.,-0.,-1.));
#492 = DIRECTION('',(1.,-9.227827737144E-16,0.));
#493 = ADVANCED_FACE('',(#494),#505,.F.);
#494 = FACE_BOUND('',#495,.F.);
#495 = EDGE_LOOP('',(#496,#502,#503,#504));
#496 = ORIENTED_EDGE('',*,*,#497,.T.);
#497 = EDGE_CURVE('',#172,#356,#498,.T.);
#498 = LINE('',#499,#500);
#499 = CARTESIAN_POINT('',(41.7,8.,14.));
#500 = VECTOR('',#501,1.);
#501 = DIRECTION('',(0.,0.,1.));
#502 = ORIENTED_EDGE('',*,*,#364,.T.);
#503 = ORIENTED_EDGE('',*,*,#480,.F.);
#504 = ORIENTED_EDGE('',*,*,#180,.F.);
#505 = PLANE('',#506);
#506 = AXIS2_PLACEMENT_3D('',#507,#508,#509);
#507 = CARTESIAN_POINT('',(41.7,8.,14.));
#508 = DIRECTION('',(-1.,0.,0.));
#509 = DIRECTION('',(0.,1.,0.));
#510 = ADVANCED_FACE('',(#511),#522,.T.);
#511 = FACE_BOUND('',#512,.F.);
#512 = EDGE_LOOP('',(#513,#519,#520,#521));
#513 = ORIENTED_EDGE('',*,*,#514,.T.);
#514 = EDGE_CURVE('',#164,#348,#515,.T.);
#515 = LINE('',#516,#517);
#516 = CARTESIAN_POINT('',(34.,0.3,14.));
#517 = VECTOR('',#518,1.);
#518 = DIRECTION('',(0.,0.,1.));
#519 = ORIENTED_EDGE('',*,*,#355,.T.);
#520 = ORIENTED_EDGE('',*,*,#497,.F.);
#521 = ORIENTED_EDGE('',*,*,#171,.F.);
#522 = CYLINDRICAL_SURFACE('',#523,7.7);
#523 = AXIS2_PLACEMENT_3D('',#524,#525,#526);
#524 = CARTESIAN_POINT('',(34.,8.,14.));
#525 = DIRECTION('',(-0.,-0.,-1.));
#526 = DIRECTION('',(0.,-1.,0.));
#527 = ADVANCED_FACE('',(#528),#539,.F.);
#528 = FACE_BOUND('',#529,.F.);
#529 = EDGE_LOOP('',(#530,#531,#537,#538));
#530 = ORIENTED_EDGE('',*,*,#163,.F.);
#531 = ORIENTED_EDGE('',*,*,#532,.F.);
#532 = EDGE_CURVE('',#340,#156,#533,.T.);
#533 = LINE('',#534,#535);
#534 = CARTESIAN_POINT('',(30.,0.3,13.95));
#535 = VECTOR('',#536,1.);
#536 = DIRECTION('',(-0.,0.,-1.));
#537 = ORIENTED_EDGE('',*,*,#347,.T.);
#538 = ORIENTED_EDGE('',*,*,#514,.F.);
#539 = PLANE('',#540);
#540 = AXIS2_PLACEMENT_3D('',#541,#542,#543);
#541 = CARTESIAN_POINT('',(8.,0.3,14.));
#542 = DIRECTION('',(0.,1.,0.));
#543 = DIRECTION('',(1.,0.,0.));
#544 = ADVANCED_FACE('',(#545),#556,.F.);
#545 = FACE_BOUND('',#546,.F.);
#546 = EDGE_LOOP('',(#547,#548,#549,#550));
#547 = ORIENTED_EDGE('',*,*,#339,.F.);
#548 = ORIENTED_EDGE('',*,*,#532,.T.);
#549 = ORIENTED_EDGE('',*,*,#155,.T.);
#550 = ORIENTED_EDGE('',*,*,#551,.F.);
#551 = EDGE_CURVE('',#332,#148,#552,.T.);
#552 = LINE('',#553,#554);
#553 = CARTESIAN_POINT('',(30.,1.5,13.9));
#554 = VECTOR('',#555,1.);
#555 = DIRECTION('',(-0.,0.,-1.));
#556 = PLANE('',#557);
#557 = AXIS2_PLACEMENT_3D('',#558,#559,#560);
#558 = CARTESIAN_POINT('',(30.,-1.,13.9));
#559 = DIRECTION('',(1.,0.,-0.));
#560 = DIRECTION('',(0.,0.,1.));
#561 = ADVANCED_FACE('',(#562),#573,.T.);
#562 = FACE_BOUND('',#563,.T.);
#563 = EDGE_LOOP('',(#564,#570,#571,#572));
#564 = ORIENTED_EDGE('',*,*,#565,.F.);
#565 = EDGE_CURVE('',#139,#323,#566,.T.);
#566 = LINE('',#567,#568);
#567 = CARTESIAN_POINT('',(34.,1.5,13.9));
#568 = VECTOR('',#569,1.);
#569 = DIRECTION('',(0.,0.,1.));
#570 = ORIENTED_EDGE('',*,*,#147,.T.);
#571 = ORIENTED_EDGE('',*,*,#551,.F.);
#572 = ORIENTED_EDGE('',*,*,#331,.F.);
#573 = PLANE('',#574);
#574 = AXIS2_PLACEMENT_3D('',#575,#576,#577);
#575 = CARTESIAN_POINT('',(8.,1.5,13.9));
#576 = DIRECTION('',(0.,1.,0.));
#577 = DIRECTION('',(1.,0.,0.));
#578 = ADVANCED_FACE('',(#579),#590,.F.);
#579 = FACE_BOUND('',#580,.T.);
#580 = EDGE_LOOP('',(#581,#582,#583,#584));
#581 = ORIENTED_EDGE('',*,*,#138,.T.);
#582 = ORIENTED_EDGE('',*,*,#565,.T.);
#583 = ORIENTED_EDGE('',*,*,#322,.F.);
#584 = ORIENTED_EDGE('',*,*,#585,.F.);
#585 = EDGE_CURVE('',#131,#315,#586,.T.);
#586 = LINE('',#587,#588);
#587 = CARTESIAN_POINT('',(40.5,8.,13.9));
#588 = VECTOR('',#589,1.);
#589 = DIRECTION('',(0.,0.,1.));
#590 = CYLINDRICAL_SURFACE('',#591,6.5);
#591 = AXIS2_PLACEMENT_3D('',#592,#593,#594);
#592 = CARTESIAN_POINT('',(34.,8.,13.9));
#593 = DIRECTION('',(-0.,-0.,-1.));
#594 = DIRECTION('',(-1.0931426704E-15,-1.,0.));
#595 = ADVANCED_FACE('',(#596),#607,.T.);
#596 = FACE_BOUND('',#597,.T.);
#597 = EDGE_LOOP('',(#598,#599,#600,#601));
#598 = ORIENTED_EDGE('',*,*,#130,.T.);
#599 = ORIENTED_EDGE('',*,*,#585,.T.);
#600 = ORIENTED_EDGE('',*,*,#314,.F.);
#601 = ORIENTED_EDGE('',*,*,#602,.F.);
#602 = EDGE_CURVE('',#122,#306,#603,.T.);
#603 = LINE('',#604,#605);
#604 = CARTESIAN_POINT('',(40.5,52.,13.9));
#605 = VECTOR('',#606,1.);
#606 = DIRECTION('',(0.,0.,1.));
#607 = PLANE('',#608);
#608 = AXIS2_PLACEMENT_3D('',#609,#610,#611);
#609 = CARTESIAN_POINT('',(40.5,8.,13.9));
#610 = DIRECTION('',(-1.,0.,0.));
#611 = DIRECTION('',(0.,1.,0.));
#612 = ADVANCED_FACE('',(#613),#624,.F.);
#613 = FACE_BOUND('',#614,.T.);
#614 = EDGE_LOOP('',(#615,#616,#617,#618));
#615 = ORIENTED_EDGE('',*,*,#121,.T.);
#616 = ORIENTED_EDGE('',*,*,#602,.T.);
#617 = ORIENTED_EDGE('',*,*,#305,.F.);
#618 = ORIENTED_EDGE('',*,*,#619,.F.);
#619 = EDGE_CURVE('',#114,#298,#620,.T.);
#620 = LINE('',#621,#622);
#621 = CARTESIAN_POINT('',(34.,58.5,13.9));
#622 = VECTOR('',#623,1.);
#623 = DIRECTION('',(0.,0.,1.));
#624 = CYLINDRICAL_SURFACE('',#625,6.5);
#625 = AXIS2_PLACEMENT_3D('',#626,#627,#628);
#626 = CARTESIAN_POINT('',(34.,52.,13.9));
#627 = DIRECTION('',(-0.,-0.,-1.));
#628 = DIRECTION('',(1.,-1.0931426704E-15,0.));
#629 = ADVANCED_FACE('',(#630),#641,.T.);
#630 = FACE_BOUND('',#631,.T.);
#631 = EDGE_LOOP('',(#632,#633,#634,#635));
#632 = ORIENTED_EDGE('',*,*,#113,.T.);
#633 = ORIENTED_EDGE('',*,*,#619,.T.);
#634 = ORIENTED_EDGE('',*,*,#297,.F.);
#635 = ORIENTED_EDGE('',*,*,#636,.F.);
#636 = EDGE_CURVE('',#105,#289,#637,.T.);
#637 = LINE('',#638,#639);
#638 = CARTESIAN_POINT('',(8.,58.5,13.9));
#639 = VECTOR('',#640,1.);
#640 = DIRECTION('',(0.,0.,1.));
#641 = PLANE('',#642);
#642 = AXIS2_PLACEMENT_3D('',#643,#644,#645);
#643 = CARTESIAN_POINT('',(34.,58.5,13.9));
#644 = DIRECTION('',(0.,-1.,0.));
#645 = DIRECTION('',(-1.,0.,0.));
#646 = ADVANCED_FACE('',(#647),#658,.F.);
#647 = FACE_BOUND('',#648,.T.);
#648 = EDGE_LOOP('',(#649,#650,#651,#652));
#649 = ORIENTED_EDGE('',*,*,#104,.T.);
#650 = ORIENTED_EDGE('',*,*,#636,.T.);
#651 = ORIENTED_EDGE('',*,*,#288,.F.);
#652 = ORIENTED_EDGE('',*,*,#653,.F.);
#653 = EDGE_CURVE('',#97,#281,#654,.T.);
#654 = LINE('',#655,#656);
#655 = CARTESIAN_POINT('',(1.5,52.,13.9));
#656 = VECTOR('',#657,1.);
#657 = DIRECTION('',(0.,0.,1.));
#658 = CYLINDRICAL_SURFACE('',#659,6.5);
#659 = AXIS2_PLACEMENT_3D('',#660,#661,#662);
#660 = CARTESIAN_POINT('',(8.,52.,13.9));
#661 = DIRECTION('',(-0.,-0.,-1.));
#662 = DIRECTION('',(9.564998366001E-16,1.,-0.));
#663 = ADVANCED_FACE('',(#664),#675,.T.);
#664 = FACE_BOUND('',#665,.T.);
#665 = EDGE_LOOP('',(#666,#667,#668,#669));
#666 = ORIENTED_EDGE('',*,*,#96,.T.);
#667 = ORIENTED_EDGE('',*,*,#653,.T.);
#668 = ORIENTED_EDGE('',*,*,#280,.F.);
#669 = ORIENTED_EDGE('',*,*,#670,.F.);
#670 = EDGE_CURVE('',#88,#272,#671,.T.);
#671 = LINE('',#672,#673);
#672 = CARTESIAN_POINT('',(1.5,8.,13.9));
#673 = VECTOR('',#674,1.);
#674 = DIRECTION('',(0.,0.,1.));
#675 = PLANE('',#676);
#676 = AXIS2_PLACEMENT_3D('',#677,#678,#679);
#677 = CARTESIAN_POINT('',(1.5,52.,13.9));
#678 = DIRECTION('',(1.,0.,-0.));
#679 = DIRECTION('',(0.,-1.,0.));
#680 = ADVANCED_FACE('',(#681),#692,.F.);
#681 = FACE_BOUND('',#682,.T.);
#682 = EDGE_LOOP('',(#683,#684,#685,#686));
#683 = ORIENTED_EDGE('',*,*,#87,.T.);
#684 = ORIENTED_EDGE('',*,*,#670,.T.);
#685 = ORIENTED_EDGE('',*,*,#271,.F.);
#686 = ORIENTED_EDGE('',*,*,#687,.F.);
#687 = EDGE_CURVE('',#80,#264,#688,.T.);
#688 = LINE('',#689,#690);
#689 = CARTESIAN_POINT('',(8.,1.5,13.9));
#690 = VECTOR('',#691,1.);
#691 = DIRECTION('',(0.,0.,1.));
#692 = CYLINDRICAL_SURFACE('',#693,6.5);
#693 = AXIS2_PLACEMENT_3D('',#694,#695,#696);
#694 = CARTESIAN_POINT('',(8.,8.,13.9));
#695 = DIRECTION('',(-0.,-0.,-1.));
#696 = DIRECTION('',(-1.,6.832141690001E-16,0.));
#697 = ADVANCED_FACE('',(#698),#704,.T.);
#698 = FACE_BOUND('',#699,.T.);
#699 = EDGE_LOOP('',(#700,#701,#702,#703));
#700 = ORIENTED_EDGE('',*,*,#238,.T.);
#701 = ORIENTED_EDGE('',*,*,#79,.T.);
#702 = ORIENTED_EDGE('',*,*,#687,.T.);
#703 = ORIENTED_EDGE('',*,*,#263,.F.);
#704 = PLANE('',#705);
#705 = AXIS2_PLACEMENT_3D('',#706,#707,#708);
#706 = CARTESIAN_POINT('',(8.,1.5,13.9));
#707 = DIRECTION('',(0.,1.,0.));
#708 = DIRECTION('',(1.,0.,0.));
#709 = ( GEOMETRIC_REPRESENTATION_CONTEXT(3) 
GLOBAL_UNCERTAINTY_ASSIGNED_CONTEXT((#713)) GLOBAL_UNIT_ASSIGNED_CONTEXT
((#710,#711,#712)) REPRESENTATION_CONTEXT('Context #1',
  '3D Context with UNIT and UNCERTAINTY') );
#710 = ( LENGTH_UNIT() NAMED_UNIT(*) SI_UNIT(.MILLI.,.METRE.) );
#711 = ( NAMED_UNIT(*) PLANE_ANGLE_UNIT() SI_UNIT($,.RADIAN.) );
#712 = ( NAMED_UNIT(*) SI_UNIT($,.STERADIAN.) SOLID_ANGLE_UNIT() );
#713 = UNCERTAINTY_MEASURE_WITH_UNIT(LENGTH_MEASURE(1.E-07),#710,
  'distance_accuracy_value','confusion accuracy');
#714 = PRODUCT_RELATED_PRODUCT_CATEGORY('part',$,(#7));
ENDSEC;
END-ISO-10303-21;
