<svg xmlns="http://www.w3.org/2000/svg" width="1200" height="780" viewBox="0 0 1200 780"><rect width="1200" height="780" fill="#EEF3F8"/><text x="40" y="58" font-family="Segoe UI,Arial" font-size="31" font-weight="700" fill="#173B59">Niva Sakshi / Balance witnessed</text><g transform="translate(40,92)"><rect width="360" height="308" rx="24" fill="#FFFFFF"/><text x="24" y="38" fill="#65798A" font-family="Segoe UI,Arial" font-size="17">Primary / light</text><g transform="translate(27,112) scale(.76)"><path d="M16 56 C40 22 88 22 112 56 C88 90 40 90 16 56 Z" fill="none" stroke="#0066CC" stroke-width="12" stroke-linejoin="round"/><circle cx="64" cy="56" r="12" fill="#F47758"/><path d="M36 106 H92" stroke="#173B59" stroke-width="12" stroke-linecap="round"/><text x="166" y="76" font-family="Segoe UI,Arial" font-size="62" font-weight="700" fill="#173B59" letter-spacing="-3">niva</text><text x="169" y="110" font-family="Segoe UI,Arial" font-size="18" letter-spacing="6" fill="#0066CC">SAKSHI</text></g></g><g transform="translate(420,92)"><rect width="360" height="308" rx="24" fill="#102B46"/><text x="24" y="38" fill="#A9D4FF" font-family="Segoe UI,Arial" font-size="17">Primary / dark</text><g transform="translate(27,112) scale(.76)"><path d="M16 56 C40 22 88 22 112 56 C88 90 40 90 16 56 Z" fill="none" stroke="#A9D4FF" stroke-width="12" stroke-linejoin="round"/><circle cx="64" cy="56" r="12" fill="#FF9577"/><path d="M36 106 H92" stroke="#EAF3FF" stroke-width="12" stroke-linecap="round"/><text x="166" y="76" font-family="Segoe UI,Arial" font-size="62" font-weight="700" fill="#EAF3FF" letter-spacing="-3">niva</text><text x="169" y="110" font-family="Segoe UI,Arial" font-size="18" letter-spacing="6" fill="#A9D4FF">SAKSHI</text></g></g><g transform="translate(800,92)"><rect width="360" height="308" rx="24" fill="#102B46"/><text x="24" y="38" fill="#A9D4FF" font-family="Segoe UI,Arial" font-size="17">App icon</text><g transform="translate(100,92) scale(1.25)"><path d="M16 56 C40 22 88 22 112 56 C88 90 40 90 16 56 Z" fill="none" stroke="#A9D4FF" stroke-width="12" stroke-linejoin="round"/><circle cx="64" cy="56" r="12" fill="#FF9577"/><path d="M36 106 H92" stroke="#EAF3FF" stroke-width="12" stroke-linecap="round"/></g></g><g transform="translate(40,426)"><rect width="360" height="308" rx="24" fill="#FFFFFF"/><text x="24" y="38" fill="#65798A" font-family="Segoe UI,Arial" font-size="17">Standalone mark</text><g transform="translate(100,92) scale(1.25)"><path d="M16 56 C40 22 88 22 112 56 C88 90 40 90 16 56 Z" fill="none" stroke="#0066CC" stroke-width="12" stroke-linejoin="round"/><circle cx="64" cy="56" r="12" fill="#F47758"/><path d="M36 106 H92" stroke="#173B59" stroke-width="12" stroke-linecap="round"/></g></g><g transform="translate(420,426)"><rect width="360" height="308" rx="24" fill="#FFFFFF"/><text x="24" y="38" fill="#65798A" font-family="Segoe UI,Arial" font-size="17">Monochrome</text><g transform="translate(100,92) scale(1.25)"><path d="M16 56 C40 22 88 22 112 56 C88 90 40 90 16 56 Z" fill="none" stroke="#173B59" stroke-width="12" stroke-linejoin="round"/><circle cx="64" cy="56" r="12" fill="#173B59"/><path d="M36 106 H92" stroke="#173B59" stroke-width="12" stroke-linecap="round"/></g></g><g transform="translate(800,426)"><rect width="360" height="308" rx="24" fill="#FFFFFF"/><text x="24" y="38" fill="#65798A" font-family="Segoe UI,Arial" font-size="17">Small sizes / favicon</text><g transform="translate(64,145) scale(0.125)"><path d="M16 56 C40 22 88 22 112 56 C88 90 40 90 16 56 Z" fill="none" stroke="#0066CC" stroke-width="12" stroke-linejoin="round"/><circle cx="64" cy="56" r="12" fill="#F47758"/><path d="M36 106 H92" stroke="#173B59" stroke-width="12" stroke-linecap="round"/></g><g transform="translate(149,145) scale(0.25)"><path d="M16 56 C40 22 88 22 112 56 C88 90 40 90 16 56 Z" fill="none" stroke="#0066CC" stroke-width="12" stroke-linejoin="round"/><circle cx="64" cy="56" r="12" fill="#F47758"/><path d="M36 106 H92" stroke="#173B59" stroke-width="12" stroke-linecap="round"/></g><g transform="translate(234,145) scale(0.5)"><path d="M16 56 C40 22 88 22 112 56 C88 90 40 90 16 56 Z" fill="none" stroke="#0066CC" stroke-width="12" stroke-linejoin="round"/><circle cx="64" cy="56" r="12" fill="#F47758"/><path d="M36 106 H92" stroke="#173B59" stroke-width="12" stroke-linecap="round"/></g></g></svg>