%TF.GenerationSoftware,KiCad,Pcbnew,9.0.9*%
%TF.CreationDate,2026-09-28T04:10:39+00:00*%
%TF.ProjectId,NIVA-dock,4e495641-2d64-46f6-936b-2e6b69636164,rev?*%
%TF.SameCoordinates,Original*%
%TF.FileFunction,Soldermask,Top*%
%TF.FilePolarity,Negative*%
%FSLAX46Y46*%
G04 Gerber Fmt 4.6, Leading zero omitted, Abs format (unit mm)*
G04 Created by KiCad (PCBNEW 9.0.9) date 2026-09-28 04:10:39*
%MOMM*%
%LPD*%
G01*
G04 APERTURE LIST*
G04 Aperture macros list*
%AMRoundRect*
0 Rectangle with rounded corners*
0 $1 Rounding radius*
0 $2 $3 $4 $5 $6 $7 $8 $9 X,Y pos of 4 corners*
0 Add a 4 corners polygon primitive as box body*
4,1,4,$2,$3,$4,$5,$6,$7,$8,$9,$2,$3,0*
0 Add four circle primitives for the rounded corners*
1,1,$1+$1,$2,$3*
1,1,$1+$1,$4,$5*
1,1,$1+$1,$6,$7*
1,1,$1+$1,$8,$9*
0 Add four rect primitives between the rounded corners*
20,1,$1+$1,$2,$3,$4,$5,0*
20,1,$1+$1,$4,$5,$6,$7,0*
20,1,$1+$1,$6,$7,$8,$9,0*
20,1,$1+$1,$8,$9,$2,$3,0*%
G04 Aperture macros list end*
%ADD10RoundRect,0.225000X-0.225000X-0.250000X0.225000X-0.250000X0.225000X0.250000X-0.225000X0.250000X0*%
%ADD11RoundRect,0.200000X0.275000X-0.200000X0.275000X0.200000X-0.275000X0.200000X-0.275000X-0.200000X0*%
%ADD12C,2.200000*%
%ADD13R,1.800000X1.800000*%
%ADD14RoundRect,0.250000X0.625000X-0.375000X0.625000X0.375000X-0.625000X0.375000X-0.625000X-0.375000X0*%
%ADD15RoundRect,0.225000X0.250000X-0.225000X0.250000X0.225000X-0.250000X0.225000X-0.250000X-0.225000X0*%
%ADD16RoundRect,0.175000X0.425000X-0.175000X0.425000X0.175000X-0.425000X0.175000X-0.425000X-0.175000X0*%
%ADD17RoundRect,0.190000X-0.410000X0.190000X-0.410000X-0.190000X0.410000X-0.190000X0.410000X0.190000X0*%
%ADD18RoundRect,0.200000X-0.400000X0.200000X-0.400000X-0.200000X0.400000X-0.200000X0.400000X0.200000X0*%
%ADD19RoundRect,0.175000X-0.425000X0.175000X-0.425000X-0.175000X0.425000X-0.175000X0.425000X0.175000X0*%
%ADD20RoundRect,0.190000X0.410000X-0.190000X0.410000X0.190000X-0.410000X0.190000X-0.410000X-0.190000X0*%
%ADD21RoundRect,0.200000X0.400000X-0.200000X0.400000X0.200000X-0.400000X0.200000X-0.400000X-0.200000X0*%
%ADD22O,1.700000X1.100000*%
%ADD23RoundRect,0.150000X-0.587500X-0.150000X0.587500X-0.150000X0.587500X0.150000X-0.587500X0.150000X0*%
%ADD24RoundRect,0.243750X-0.243750X-0.456250X0.243750X-0.456250X0.243750X0.456250X-0.243750X0.456250X0*%
%ADD25RoundRect,0.200000X-0.200000X-0.275000X0.200000X-0.275000X0.200000X0.275000X-0.200000X0.275000X0*%
%ADD26RoundRect,0.150000X-0.825000X-0.150000X0.825000X-0.150000X0.825000X0.150000X-0.825000X0.150000X0*%
%ADD27RoundRect,0.150000X-0.512500X-0.150000X0.512500X-0.150000X0.512500X0.150000X-0.512500X0.150000X0*%
G04 APERTURE END LIST*
D10*
%TO.C,C4*%
X109725000Y-74700000D03*
X111275000Y-74700000D03*
%TD*%
D11*
%TO.C,R2*%
X149700000Y-49325000D03*
X149700000Y-47675000D03*
%TD*%
D12*
%TO.C,H2*%
X157500000Y-93500000D03*
%TD*%
D13*
%TO.C,J2*%
X142550000Y-83000000D03*
X142550000Y-77000000D03*
X142550000Y-71000000D03*
%TD*%
D14*
%TO.C,F1*%
X150800000Y-56400000D03*
X150800000Y-53600000D03*
%TD*%
D15*
%TO.C,C3*%
X108200000Y-62775000D03*
X108200000Y-61225000D03*
%TD*%
D10*
%TO.C,C1*%
X151725000Y-59700000D03*
X153275000Y-59700000D03*
%TD*%
D16*
%TO.C,J1*%
X154420000Y-50500000D03*
D17*
X154420000Y-48480000D03*
D18*
X154420000Y-47250000D03*
D19*
X154420000Y-49500000D03*
D20*
X154420000Y-51520000D03*
D21*
X154420000Y-52750000D03*
D22*
X154500000Y-54320000D03*
X158300000Y-54320000D03*
X154500000Y-45680000D03*
X158300000Y-45680000D03*
%TD*%
D12*
%TO.C,H4*%
X147000000Y-44500000D03*
%TD*%
D23*
%TO.C,Q1*%
X156262500Y-69250000D03*
X156262500Y-71150000D03*
X158137500Y-70200000D03*
%TD*%
D11*
%TO.C,R3*%
X157600000Y-65325000D03*
X157600000Y-63675000D03*
%TD*%
%TO.C,R8*%
X106200000Y-78825000D03*
X106200000Y-77175000D03*
%TD*%
%TO.C,R5*%
X106200000Y-62825000D03*
X106200000Y-61175000D03*
%TD*%
D24*
%TO.C,D1*%
X153862500Y-89800000D03*
X155737500Y-89800000D03*
%TD*%
D11*
%TO.C,R7*%
X114400000Y-62825000D03*
X114400000Y-61175000D03*
%TD*%
D25*
%TO.C,R4*%
X152175000Y-85800000D03*
X153825000Y-85800000D03*
%TD*%
D12*
%TO.C,H1*%
X106500000Y-93500000D03*
%TD*%
D26*
%TO.C,U2*%
X108025000Y-68095000D03*
X108025000Y-69365000D03*
X108025000Y-70635000D03*
X108025000Y-71905000D03*
X112975000Y-71905000D03*
X112975000Y-70635000D03*
X112975000Y-69365000D03*
X112975000Y-68095000D03*
%TD*%
D10*
%TO.C,C2*%
X152225000Y-68800000D03*
X153775000Y-68800000D03*
%TD*%
D12*
%TO.C,H3*%
X106500000Y-44500000D03*
%TD*%
D11*
%TO.C,R6*%
X112400000Y-62825000D03*
X112400000Y-61175000D03*
%TD*%
%TO.C,R9*%
X114400000Y-78825000D03*
X114400000Y-77175000D03*
%TD*%
%TO.C,R1*%
X151500000Y-49325000D03*
X151500000Y-47675000D03*
%TD*%
D27*
%TO.C,U1*%
X151862500Y-63550000D03*
X151862500Y-64500000D03*
X151862500Y-65450000D03*
X154137500Y-65450000D03*
X154137500Y-63550000D03*
%TD*%
M02*
