%TF.GenerationSoftware,KiCad,Pcbnew,9.0.9*%
%TF.CreationDate,2026-09-28T04:10:39+00:00*%
%TF.ProjectId,NIVA-dock,4e495641-2d64-46f6-936b-2e6b69636164,rev?*%
%TF.SameCoordinates,Original*%
%TF.FileFunction,Legend,Top*%
%TF.FilePolarity,Positive*%
%FSLAX46Y46*%
G04 Gerber Fmt 4.6, Leading zero omitted, Abs format (unit mm)*
G04 Created by KiCad (PCBNEW 9.0.9) date 2026-09-28 04:10:39*
%MOMM*%
%LPD*%
G01*
G04 APERTURE LIST*
G04 Aperture macros list*
%AMRoundRect*
0 Rectangle with rounded corners*
0 $1 Rounding radius*
0 $2 $3 $4 $5 $6 $7 $8 $9 X,Y pos of 4 corners*
0 Add a 4 corners polygon primitive as box body*
4,1,4,$2,$3,$4,$5,$6,$7,$8,$9,$2,$3,0*
0 Add four circle primitives for the rounded corners*
1,1,$1+$1,$2,$3*
1,1,$1+$1,$4,$5*
1,1,$1+$1,$6,$7*
1,1,$1+$1,$8,$9*
0 Add four rect primitives between the rounded corners*
20,1,$1+$1,$2,$3,$4,$5,0*
20,1,$1+$1,$4,$5,$6,$7,0*
20,1,$1+$1,$6,$7,$8,$9,0*
20,1,$1+$1,$8,$9,$2,$3,0*%
G04 Aperture macros list end*
%ADD10C,0.150000*%
%ADD11C,0.120000*%
%ADD12RoundRect,0.225000X-0.225000X-0.250000X0.225000X-0.250000X0.225000X0.250000X-0.225000X0.250000X0*%
%ADD13RoundRect,0.200000X0.275000X-0.200000X0.275000X0.200000X-0.275000X0.200000X-0.275000X-0.200000X0*%
%ADD14C,2.200000*%
%ADD15R,1.800000X1.800000*%
%ADD16RoundRect,0.250000X0.625000X-0.375000X0.625000X0.375000X-0.625000X0.375000X-0.625000X-0.375000X0*%
%ADD17RoundRect,0.225000X0.250000X-0.225000X0.250000X0.225000X-0.250000X0.225000X-0.250000X-0.225000X0*%
%ADD18RoundRect,0.175000X0.425000X-0.175000X0.425000X0.175000X-0.425000X0.175000X-0.425000X-0.175000X0*%
%ADD19RoundRect,0.190000X-0.410000X0.190000X-0.410000X-0.190000X0.410000X-0.190000X0.410000X0.190000X0*%
%ADD20RoundRect,0.200000X-0.400000X0.200000X-0.400000X-0.200000X0.400000X-0.200000X0.400000X0.200000X0*%
%ADD21RoundRect,0.175000X-0.425000X0.175000X-0.425000X-0.175000X0.425000X-0.175000X0.425000X0.175000X0*%
%ADD22RoundRect,0.190000X0.410000X-0.190000X0.410000X0.190000X-0.410000X0.190000X-0.410000X-0.190000X0*%
%ADD23RoundRect,0.200000X0.400000X-0.200000X0.400000X0.200000X-0.400000X0.200000X-0.400000X-0.200000X0*%
%ADD24O,1.700000X1.100000*%
%ADD25RoundRect,0.150000X-0.587500X-0.150000X0.587500X-0.150000X0.587500X0.150000X-0.587500X0.150000X0*%
%ADD26RoundRect,0.243750X-0.243750X-0.456250X0.243750X-0.456250X0.243750X0.456250X-0.243750X0.456250X0*%
%ADD27RoundRect,0.200000X-0.200000X-0.275000X0.200000X-0.275000X0.200000X0.275000X-0.200000X0.275000X0*%
%ADD28RoundRect,0.150000X-0.825000X-0.150000X0.825000X-0.150000X0.825000X0.150000X-0.825000X0.150000X0*%
%ADD29RoundRect,0.150000X-0.512500X-0.150000X0.512500X-0.150000X0.512500X0.150000X-0.512500X0.150000X0*%
G04 APERTURE END LIST*
D10*
X109857143Y-92454819D02*
X109857143Y-91454819D01*
X109857143Y-91454819D02*
X110428571Y-92454819D01*
X110428571Y-92454819D02*
X110428571Y-91454819D01*
X110904762Y-92454819D02*
X110904762Y-91454819D01*
X111238095Y-91454819D02*
X111571428Y-92454819D01*
X111571428Y-92454819D02*
X111904761Y-91454819D01*
X112190476Y-92169104D02*
X112666666Y-92169104D01*
X112095238Y-92454819D02*
X112428571Y-91454819D01*
X112428571Y-91454819D02*
X112761904Y-92454819D01*
X113857143Y-92454819D02*
X113857143Y-91454819D01*
X113857143Y-91454819D02*
X114095238Y-91454819D01*
X114095238Y-91454819D02*
X114238095Y-91502438D01*
X114238095Y-91502438D02*
X114333333Y-91597676D01*
X114333333Y-91597676D02*
X114380952Y-91692914D01*
X114380952Y-91692914D02*
X114428571Y-91883390D01*
X114428571Y-91883390D02*
X114428571Y-92026247D01*
X114428571Y-92026247D02*
X114380952Y-92216723D01*
X114380952Y-92216723D02*
X114333333Y-92311961D01*
X114333333Y-92311961D02*
X114238095Y-92407200D01*
X114238095Y-92407200D02*
X114095238Y-92454819D01*
X114095238Y-92454819D02*
X113857143Y-92454819D01*
X115047619Y-91454819D02*
X115238095Y-91454819D01*
X115238095Y-91454819D02*
X115333333Y-91502438D01*
X115333333Y-91502438D02*
X115428571Y-91597676D01*
X115428571Y-91597676D02*
X115476190Y-91788152D01*
X115476190Y-91788152D02*
X115476190Y-92121485D01*
X115476190Y-92121485D02*
X115428571Y-92311961D01*
X115428571Y-92311961D02*
X115333333Y-92407200D01*
X115333333Y-92407200D02*
X115238095Y-92454819D01*
X115238095Y-92454819D02*
X115047619Y-92454819D01*
X115047619Y-92454819D02*
X114952381Y-92407200D01*
X114952381Y-92407200D02*
X114857143Y-92311961D01*
X114857143Y-92311961D02*
X114809524Y-92121485D01*
X114809524Y-92121485D02*
X114809524Y-91788152D01*
X114809524Y-91788152D02*
X114857143Y-91597676D01*
X114857143Y-91597676D02*
X114952381Y-91502438D01*
X114952381Y-91502438D02*
X115047619Y-91454819D01*
X116476190Y-92359580D02*
X116428571Y-92407200D01*
X116428571Y-92407200D02*
X116285714Y-92454819D01*
X116285714Y-92454819D02*
X116190476Y-92454819D01*
X116190476Y-92454819D02*
X116047619Y-92407200D01*
X116047619Y-92407200D02*
X115952381Y-92311961D01*
X115952381Y-92311961D02*
X115904762Y-92216723D01*
X115904762Y-92216723D02*
X115857143Y-92026247D01*
X115857143Y-92026247D02*
X115857143Y-91883390D01*
X115857143Y-91883390D02*
X115904762Y-91692914D01*
X115904762Y-91692914D02*
X115952381Y-91597676D01*
X115952381Y-91597676D02*
X116047619Y-91502438D01*
X116047619Y-91502438D02*
X116190476Y-91454819D01*
X116190476Y-91454819D02*
X116285714Y-91454819D01*
X116285714Y-91454819D02*
X116428571Y-91502438D01*
X116428571Y-91502438D02*
X116476190Y-91550057D01*
X116904762Y-92454819D02*
X116904762Y-91454819D01*
X117476190Y-92454819D02*
X117047619Y-91883390D01*
X117476190Y-91454819D02*
X116904762Y-92026247D01*
X119238095Y-92454819D02*
X118904762Y-91978628D01*
X118666667Y-92454819D02*
X118666667Y-91454819D01*
X118666667Y-91454819D02*
X119047619Y-91454819D01*
X119047619Y-91454819D02*
X119142857Y-91502438D01*
X119142857Y-91502438D02*
X119190476Y-91550057D01*
X119190476Y-91550057D02*
X119238095Y-91645295D01*
X119238095Y-91645295D02*
X119238095Y-91788152D01*
X119238095Y-91788152D02*
X119190476Y-91883390D01*
X119190476Y-91883390D02*
X119142857Y-91931009D01*
X119142857Y-91931009D02*
X119047619Y-91978628D01*
X119047619Y-91978628D02*
X118666667Y-91978628D01*
X119666667Y-91931009D02*
X120000000Y-91931009D01*
X120142857Y-92454819D02*
X119666667Y-92454819D01*
X119666667Y-92454819D02*
X119666667Y-91454819D01*
X119666667Y-91454819D02*
X120142857Y-91454819D01*
X120428572Y-91454819D02*
X120761905Y-92454819D01*
X120761905Y-92454819D02*
X121095238Y-91454819D01*
X122761905Y-92359580D02*
X122714286Y-92407200D01*
X122714286Y-92407200D02*
X122571429Y-92454819D01*
X122571429Y-92454819D02*
X122476191Y-92454819D01*
X122476191Y-92454819D02*
X122333334Y-92407200D01*
X122333334Y-92407200D02*
X122238096Y-92311961D01*
X122238096Y-92311961D02*
X122190477Y-92216723D01*
X122190477Y-92216723D02*
X122142858Y-92026247D01*
X122142858Y-92026247D02*
X122142858Y-91883390D01*
X122142858Y-91883390D02*
X122190477Y-91692914D01*
X122190477Y-91692914D02*
X122238096Y-91597676D01*
X122238096Y-91597676D02*
X122333334Y-91502438D01*
X122333334Y-91502438D02*
X122476191Y-91454819D01*
X122476191Y-91454819D02*
X122571429Y-91454819D01*
X122571429Y-91454819D02*
X122714286Y-91502438D01*
X122714286Y-91502438D02*
X122761905Y-91550057D01*
X123190477Y-92359580D02*
X123238096Y-92407200D01*
X123238096Y-92407200D02*
X123190477Y-92454819D01*
X123190477Y-92454819D02*
X123142858Y-92407200D01*
X123142858Y-92407200D02*
X123190477Y-92359580D01*
X123190477Y-92359580D02*
X123190477Y-92454819D01*
X124190476Y-92454819D02*
X123619048Y-92454819D01*
X123904762Y-92454819D02*
X123904762Y-91454819D01*
X123904762Y-91454819D02*
X123809524Y-91597676D01*
X123809524Y-91597676D02*
X123714286Y-91692914D01*
X123714286Y-91692914D02*
X123619048Y-91740533D01*
X145169048Y-83073866D02*
X145930953Y-83073866D01*
X145550000Y-83454819D02*
X145550000Y-82692914D01*
X109738095Y-66054819D02*
X109738095Y-66864342D01*
X109738095Y-66864342D02*
X109785714Y-66959580D01*
X109785714Y-66959580D02*
X109833333Y-67007200D01*
X109833333Y-67007200D02*
X109928571Y-67054819D01*
X109928571Y-67054819D02*
X110119047Y-67054819D01*
X110119047Y-67054819D02*
X110214285Y-67007200D01*
X110214285Y-67007200D02*
X110261904Y-66959580D01*
X110261904Y-66959580D02*
X110309523Y-66864342D01*
X110309523Y-66864342D02*
X110309523Y-66054819D01*
X110738095Y-66150057D02*
X110785714Y-66102438D01*
X110785714Y-66102438D02*
X110880952Y-66054819D01*
X110880952Y-66054819D02*
X111119047Y-66054819D01*
X111119047Y-66054819D02*
X111214285Y-66102438D01*
X111214285Y-66102438D02*
X111261904Y-66150057D01*
X111261904Y-66150057D02*
X111309523Y-66245295D01*
X111309523Y-66245295D02*
X111309523Y-66340533D01*
X111309523Y-66340533D02*
X111261904Y-66483390D01*
X111261904Y-66483390D02*
X110690476Y-67054819D01*
X110690476Y-67054819D02*
X111309523Y-67054819D01*
X152238095Y-61554819D02*
X152238095Y-62364342D01*
X152238095Y-62364342D02*
X152285714Y-62459580D01*
X152285714Y-62459580D02*
X152333333Y-62507200D01*
X152333333Y-62507200D02*
X152428571Y-62554819D01*
X152428571Y-62554819D02*
X152619047Y-62554819D01*
X152619047Y-62554819D02*
X152714285Y-62507200D01*
X152714285Y-62507200D02*
X152761904Y-62459580D01*
X152761904Y-62459580D02*
X152809523Y-62364342D01*
X152809523Y-62364342D02*
X152809523Y-61554819D01*
X153809523Y-62554819D02*
X153238095Y-62554819D01*
X153523809Y-62554819D02*
X153523809Y-61554819D01*
X153523809Y-61554819D02*
X153428571Y-61697676D01*
X153428571Y-61697676D02*
X153333333Y-61792914D01*
X153333333Y-61792914D02*
X153238095Y-61840533D01*
D11*
%TO.C,C4*%
X110359420Y-74190000D02*
X110640580Y-74190000D01*
X110359420Y-75210000D02*
X110640580Y-75210000D01*
%TO.C,R2*%
X149177500Y-48737258D02*
X149177500Y-48262742D01*
X150222500Y-48737258D02*
X150222500Y-48262742D01*
%TO.C,F1*%
X149890000Y-55602064D02*
X149890000Y-54397936D01*
X151710000Y-55602064D02*
X151710000Y-54397936D01*
%TO.C,C3*%
X107690000Y-62140580D02*
X107690000Y-61859420D01*
X108710000Y-62140580D02*
X108710000Y-61859420D01*
%TO.C,C1*%
X152359420Y-59190000D02*
X152640580Y-59190000D01*
X152359420Y-60210000D02*
X152640580Y-60210000D01*
%TO.C,J1*%
X157250000Y-45330000D02*
X155550000Y-45330000D01*
X157250000Y-54670000D02*
X155550000Y-54670000D01*
%TO.C,Q1*%
X156440000Y-68640000D02*
X157960000Y-68640000D01*
X156440000Y-68690000D02*
X156440000Y-68640000D01*
X156440000Y-70590000D02*
X156440000Y-69810000D01*
X156440000Y-71760000D02*
X156440000Y-71710000D01*
X157960000Y-68640000D02*
X157960000Y-69640000D01*
X157960000Y-70760000D02*
X157960000Y-71760000D01*
X157960000Y-71760000D02*
X156440000Y-71760000D01*
X156140000Y-70150000D02*
X155660000Y-70150000D01*
X155900000Y-69820000D01*
X156140000Y-70150000D01*
G36*
X156140000Y-70150000D02*
G01*
X155660000Y-70150000D01*
X155900000Y-69820000D01*
X156140000Y-70150000D01*
G37*
%TO.C,R3*%
X157077500Y-64737258D02*
X157077500Y-64262742D01*
X158122500Y-64737258D02*
X158122500Y-64262742D01*
%TO.C,R8*%
X105677500Y-78237258D02*
X105677500Y-77762742D01*
X106722500Y-78237258D02*
X106722500Y-77762742D01*
%TO.C,R5*%
X105677500Y-62237258D02*
X105677500Y-61762742D01*
X106722500Y-62237258D02*
X106722500Y-61762742D01*
%TO.C,D1*%
X153115000Y-88840000D02*
X153115000Y-90760000D01*
X153115000Y-90760000D02*
X155800000Y-90760000D01*
X155800000Y-88840000D02*
X153115000Y-88840000D01*
%TO.C,R7*%
X113877500Y-62237258D02*
X113877500Y-61762742D01*
X114922500Y-62237258D02*
X114922500Y-61762742D01*
%TO.C,R4*%
X152762742Y-85277500D02*
X153237258Y-85277500D01*
X152762742Y-86322500D02*
X153237258Y-86322500D01*
%TO.C,U2*%
X108440000Y-67440000D02*
X112560000Y-67440000D01*
X108440000Y-67535000D02*
X108440000Y-67440000D01*
X108440000Y-72560000D02*
X108440000Y-72465000D01*
X112560000Y-67440000D02*
X112560000Y-67535000D01*
X112560000Y-72465000D02*
X112560000Y-72560000D01*
X112560000Y-72560000D02*
X108440000Y-72560000D01*
X107900000Y-67530000D02*
X107660000Y-67200000D01*
X108140000Y-67200000D01*
X107900000Y-67530000D01*
G36*
X107900000Y-67530000D02*
G01*
X107660000Y-67200000D01*
X108140000Y-67200000D01*
X107900000Y-67530000D01*
G37*
%TO.C,C2*%
X152859420Y-68290000D02*
X153140580Y-68290000D01*
X152859420Y-69310000D02*
X153140580Y-69310000D01*
%TO.C,R6*%
X111877500Y-62237258D02*
X111877500Y-61762742D01*
X112922500Y-62237258D02*
X112922500Y-61762742D01*
%TO.C,R9*%
X113877500Y-78237258D02*
X113877500Y-77762742D01*
X114922500Y-78237258D02*
X114922500Y-77762742D01*
%TO.C,R1*%
X150977500Y-48737258D02*
X150977500Y-48262742D01*
X152022500Y-48737258D02*
X152022500Y-48262742D01*
%TO.C,U1*%
X152090000Y-62940000D02*
X153910000Y-62940000D01*
X152090000Y-62990000D02*
X152090000Y-62940000D01*
X152090000Y-66060000D02*
X152090000Y-66010000D01*
X153910000Y-62940000D02*
X153910000Y-62990000D01*
X153910000Y-64110000D02*
X153910000Y-64890000D01*
X153910000Y-66010000D02*
X153910000Y-66060000D01*
X153910000Y-66060000D02*
X152090000Y-66060000D01*
X151550000Y-62990000D02*
X151310000Y-62660000D01*
X151790000Y-62660000D01*
X151550000Y-62990000D01*
G36*
X151550000Y-62990000D02*
G01*
X151310000Y-62660000D01*
X151790000Y-62660000D01*
X151550000Y-62990000D01*
G37*
%TD*%
%LPC*%
D12*
%TO.C,C4*%
X109725000Y-74700000D03*
X111275000Y-74700000D03*
%TD*%
D13*
%TO.C,R2*%
X149700000Y-49325000D03*
X149700000Y-47675000D03*
%TD*%
D14*
%TO.C,H2*%
X157500000Y-93500000D03*
%TD*%
D15*
%TO.C,J2*%
X142550000Y-83000000D03*
X142550000Y-77000000D03*
X142550000Y-71000000D03*
%TD*%
D16*
%TO.C,F1*%
X150800000Y-56400000D03*
X150800000Y-53600000D03*
%TD*%
D17*
%TO.C,C3*%
X108200000Y-62775000D03*
X108200000Y-61225000D03*
%TD*%
D12*
%TO.C,C1*%
X151725000Y-59700000D03*
X153275000Y-59700000D03*
%TD*%
D18*
%TO.C,J1*%
X154420000Y-50500000D03*
D19*
X154420000Y-48480000D03*
D20*
X154420000Y-47250000D03*
D21*
X154420000Y-49500000D03*
D22*
X154420000Y-51520000D03*
D23*
X154420000Y-52750000D03*
D24*
X154500000Y-54320000D03*
X158300000Y-54320000D03*
X154500000Y-45680000D03*
X158300000Y-45680000D03*
%TD*%
D14*
%TO.C,H4*%
X147000000Y-44500000D03*
%TD*%
D25*
%TO.C,Q1*%
X156262500Y-69250000D03*
X156262500Y-71150000D03*
X158137500Y-70200000D03*
%TD*%
D13*
%TO.C,R3*%
X157600000Y-65325000D03*
X157600000Y-63675000D03*
%TD*%
%TO.C,R8*%
X106200000Y-78825000D03*
X106200000Y-77175000D03*
%TD*%
%TO.C,R5*%
X106200000Y-62825000D03*
X106200000Y-61175000D03*
%TD*%
D26*
%TO.C,D1*%
X153862500Y-89800000D03*
X155737500Y-89800000D03*
%TD*%
D13*
%TO.C,R7*%
X114400000Y-62825000D03*
X114400000Y-61175000D03*
%TD*%
D27*
%TO.C,R4*%
X152175000Y-85800000D03*
X153825000Y-85800000D03*
%TD*%
D14*
%TO.C,H1*%
X106500000Y-93500000D03*
%TD*%
D28*
%TO.C,U2*%
X108025000Y-68095000D03*
X108025000Y-69365000D03*
X108025000Y-70635000D03*
X108025000Y-71905000D03*
X112975000Y-71905000D03*
X112975000Y-70635000D03*
X112975000Y-69365000D03*
X112975000Y-68095000D03*
%TD*%
D12*
%TO.C,C2*%
X152225000Y-68800000D03*
X153775000Y-68800000D03*
%TD*%
D14*
%TO.C,H3*%
X106500000Y-44500000D03*
%TD*%
D13*
%TO.C,R6*%
X112400000Y-62825000D03*
X112400000Y-61175000D03*
%TD*%
%TO.C,R9*%
X114400000Y-78825000D03*
X114400000Y-77175000D03*
%TD*%
%TO.C,R1*%
X151500000Y-49325000D03*
X151500000Y-47675000D03*
%TD*%
D29*
%TO.C,U1*%
X151862500Y-63550000D03*
X151862500Y-64500000D03*
X151862500Y-65450000D03*
X154137500Y-65450000D03*
X154137500Y-63550000D03*
%TD*%
%LPD*%
M02*
