%TF.GenerationSoftware,KiCad,Pcbnew,9.0.9*%
%TF.CreationDate,2026-09-28T04:16:46+00:00*%
%TF.ProjectId,NIVA-pod,4e495641-2d70-46f6-942e-6b696361645f,rev?*%
%TF.SameCoordinates,Original*%
%TF.FileFunction,Copper,L4,Bot*%
%TF.FilePolarity,Positive*%
%FSLAX46Y46*%
G04 Gerber Fmt 4.6, Leading zero omitted, Abs format (unit mm)*
G04 Created by KiCad (PCBNEW 9.0.9) date 2026-09-28 04:16:46*
%MOMM*%
%LPD*%
G01*
G04 APERTURE LIST*
%TA.AperFunction,ConnectorPad*%
%ADD10C,0.787400*%
%TD*%
%TA.AperFunction,SMDPad,CuDef*%
%ADD11R,1.600000X2.400000*%
%TD*%
%TA.AperFunction,ViaPad*%
%ADD12C,0.500000*%
%TD*%
%TA.AperFunction,Conductor*%
%ADD13C,0.300000*%
%TD*%
%TA.AperFunction,Conductor*%
%ADD14C,0.150000*%
%TD*%
%TA.AperFunction,Conductor*%
%ADD15C,0.200000*%
%TD*%
G04 APERTURE END LIST*
D10*
%TO.P,J3,1*%
%TO.N,+3V3*%
X119730000Y-71365000D03*
%TO.P,J3,2*%
%TO.N,/Controller/CHIP_EN*%
X119730000Y-72635000D03*
%TO.P,J3,3*%
%TO.N,/Controller/USB_DP*%
X121000000Y-71365000D03*
%TO.P,J3,4*%
%TO.N,/Controller/USB_DM*%
X121000000Y-72635000D03*
%TO.P,J3,5*%
%TO.N,/Controller/BOOT9*%
X122270000Y-71365000D03*
%TO.P,J3,6*%
%TO.N,GND*%
X122270000Y-72635000D03*
%TD*%
D11*
%TO.P,J2,1*%
%TO.N,VBAT*%
X125190000Y-78500000D03*
%TO.P,J2,2*%
X127730000Y-78500000D03*
%TO.P,J2,3*%
%TO.N,GND*%
X130270000Y-78500000D03*
%TO.P,J2,4*%
X132810000Y-78500000D03*
%TD*%
D12*
%TO.N,+3V3*%
X119549200Y-70485600D03*
%TO.N,/Controller/BOOT8*%
X124793100Y-56745000D03*
X111718800Y-55951200D03*
%TO.N,/Controller/BOOT9*%
X120677400Y-70078000D03*
X107321900Y-69347300D03*
%TO.N,/Controller/BUTTON*%
X114968800Y-80418000D03*
X119778900Y-75760000D03*
X116542500Y-65607900D03*
%TO.N,/Controller/CHIP_EN*%
X109655000Y-59053300D03*
X112113600Y-69521500D03*
%TO.N,/Controller/CS_IMU*%
X133925300Y-57425100D03*
X117749400Y-59235700D03*
%TO.N,/Controller/F4_ADC*%
X117216400Y-84253700D03*
X110153700Y-80519400D03*
%TO.N,/Controller/F5_ADC*%
X113341100Y-83960100D03*
X120525200Y-83810800D03*
%TO.N,/Controller/I2C_SCL*%
X128989300Y-71711600D03*
X115924700Y-56105000D03*
%TO.N,/Controller/I2C_SDA*%
X132757700Y-65893700D03*
X117224900Y-60989400D03*
%TO.N,/Controller/IMU_INT1*%
X116544700Y-60629700D03*
X130474300Y-59263500D03*
%TO.N,/Controller/INSERT_ID*%
X116591600Y-76025000D03*
X134440400Y-83216900D03*
%TO.N,/Controller/LED_G*%
X125034700Y-66152100D03*
X125377100Y-60220100D03*
%TO.N,/Controller/PVDF_RAW*%
X122571600Y-87584700D03*
X121723000Y-83898600D03*
%TO.N,/Controller/SPI_MISO*%
X128826600Y-57150000D03*
X124176500Y-57417600D03*
%TO.N,/Controller/SPI_MOSI*%
X127814500Y-56534400D03*
X123437200Y-61058200D03*
%TO.N,/Controller/SPI_SCK*%
X124191100Y-56028700D03*
X132532700Y-54300300D03*
%TO.N,/Controller/USB_DM*%
X127637200Y-63598500D03*
%TO.N,/Controller/USB_DP*%
X127778600Y-60505000D03*
%TO.N,/Controller/V33_HALF*%
X115466900Y-78274600D03*
X127107600Y-83850000D03*
%TO.N,/Controller/VEXC*%
X114349100Y-73300900D03*
X124300000Y-85100400D03*
X114445500Y-78869300D03*
X132193600Y-85627800D03*
%TO.N,/Heel and indicator/PZ_BUF*%
X132528000Y-81354300D03*
X124656100Y-82125100D03*
%TO.N,GND*%
X114559000Y-62831500D03*
X116953000Y-52283200D03*
X112600000Y-83850000D03*
X117470000Y-62933400D03*
X118065000Y-79145400D03*
X126700000Y-63500000D03*
X118560000Y-52217400D03*
X128800000Y-80400000D03*
X115362000Y-52207900D03*
X112600000Y-80400000D03*
X127441000Y-62831500D03*
X118000000Y-80350000D03*
X113001000Y-52262500D03*
X107200000Y-80400000D03*
X128250000Y-65200000D03*
X129705000Y-83871600D03*
X108300000Y-55800000D03*
X135600000Y-68100000D03*
X133500000Y-59175000D03*
X117770000Y-52165900D03*
X121088000Y-68500000D03*
X112700000Y-68400000D03*
X105400000Y-80400000D03*
X126638000Y-52207900D03*
X113725000Y-61100000D03*
X109000000Y-83850000D03*
X116175000Y-52147100D03*
X110800000Y-80400000D03*
X130600000Y-83900000D03*
X119800000Y-83850000D03*
X122637000Y-52202200D03*
X129846000Y-69243500D03*
X119025000Y-59225000D03*
X136000000Y-83900000D03*
X122975000Y-59225000D03*
X108548000Y-70209300D03*
X108700000Y-68400000D03*
X121000000Y-59225000D03*
X119025000Y-57250000D03*
X109000000Y-80400000D03*
X125825000Y-52147100D03*
X114253000Y-53978200D03*
X129846000Y-71756500D03*
X114538000Y-61887900D03*
X132700000Y-61800000D03*
X136700000Y-55800000D03*
X119363000Y-52202200D03*
X105400000Y-83850000D03*
X116200000Y-83850000D03*
X131699000Y-77675000D03*
X125047000Y-52283200D03*
X131592000Y-57910300D03*
X128800000Y-83850000D03*
X118227000Y-55567900D03*
X114270000Y-53067100D03*
X124763000Y-88017100D03*
X123935000Y-79145400D03*
X127860000Y-88743800D03*
X134366000Y-59081200D03*
X119800000Y-80400000D03*
X121000000Y-57250000D03*
X127746000Y-52220300D03*
X133299000Y-70955500D03*
X124230000Y-52165900D03*
X130750000Y-77800000D03*
X116690000Y-70831800D03*
X122975000Y-55275000D03*
X121821000Y-52130000D03*
X129800000Y-56100000D03*
X125200000Y-83900000D03*
X131500000Y-71550000D03*
X114254000Y-52220300D03*
X127000000Y-80400000D03*
X121000000Y-55275000D03*
X123440000Y-52217400D03*
X131592000Y-57089700D03*
X135600000Y-62800000D03*
X122536801Y-73435404D03*
X134239000Y-77675000D03*
X122975000Y-57250000D03*
X117688000Y-68500000D03*
%TO.N,VBAT*%
X135235500Y-80605000D03*
%TD*%
D13*
%TO.N,+3V3*%
X119549200Y-70485600D02*
X119730000Y-70666400D01*
X119730000Y-70666400D02*
X119730000Y-71365000D01*
D14*
%TO.N,/Controller/BOOT8*%
X124793100Y-56745000D02*
X112512600Y-56745000D01*
X112512600Y-56745000D02*
X111718800Y-55951200D01*
%TO.N,/Controller/BOOT9*%
X120983000Y-70078000D02*
X120677400Y-70078000D01*
X120677400Y-70078000D02*
X119667200Y-69067800D01*
X122270000Y-71365000D02*
X120983000Y-70078000D01*
X119667200Y-69067800D02*
X107601400Y-69067800D01*
X107601400Y-69067800D02*
X107321900Y-69347300D01*
%TO.N,/Controller/CHIP_EN*%
X119730000Y-72635000D02*
X120365000Y-72000000D01*
X119271200Y-69521500D02*
X112113600Y-69521500D01*
X120365000Y-70615300D02*
X119271200Y-69521500D01*
X120365000Y-72000000D02*
X120365000Y-70615300D01*
%TO.N,/Controller/CS_IMU*%
X117749400Y-59235700D02*
X118439800Y-58545300D01*
X132805100Y-58545300D02*
X133925300Y-57425100D01*
X118439800Y-58545300D02*
X132805100Y-58545300D01*
%TO.N,/Controller/F4_ADC*%
X117216400Y-84253700D02*
X117216400Y-84146700D01*
X117216400Y-84146700D02*
X116466000Y-83396300D01*
X113030600Y-83396300D02*
X110153700Y-80519400D01*
X116466000Y-83396300D02*
X113030600Y-83396300D01*
%TO.N,/Controller/F5_ADC*%
X119584700Y-84751300D02*
X114132300Y-84751300D01*
X114132300Y-84751300D02*
X113341100Y-83960100D01*
X120525200Y-83810800D02*
X119584700Y-84751300D01*
%TO.N,/Controller/I2C_SDA*%
X125189200Y-59766400D02*
X124950400Y-60005200D01*
X118209100Y-60005200D02*
X117224900Y-60989400D01*
X132757700Y-64762900D02*
X127761200Y-59766400D01*
X124950400Y-60005200D02*
X118209100Y-60005200D01*
X132757700Y-65893700D02*
X132757700Y-64762900D01*
X127761200Y-59766400D02*
X125189200Y-59766400D01*
%TO.N,/Controller/IMU_INT1*%
X130474300Y-59263500D02*
X125297900Y-59263500D01*
X117447900Y-59726500D02*
X116544700Y-60629700D01*
X125297900Y-59263500D02*
X124834900Y-59726500D01*
X124834900Y-59726500D02*
X117447900Y-59726500D01*
%TO.N,/Controller/INSERT_ID*%
X133802300Y-82578800D02*
X134440400Y-83216900D01*
X123145400Y-82578800D02*
X133802300Y-82578800D01*
X116591600Y-76025000D02*
X123145400Y-82578800D01*
%TO.N,/Controller/SPI_MISO*%
X128559000Y-57417600D02*
X128826600Y-57150000D01*
X124176500Y-57417600D02*
X128559000Y-57417600D01*
%TO.N,/Controller/SPI_SCK*%
X124191100Y-56028700D02*
X125919500Y-54300300D01*
X125919500Y-54300300D02*
X132532700Y-54300300D01*
%TO.N,/Controller/USB_DM*%
X127637200Y-70258000D02*
X127637200Y-63598500D01*
X123916900Y-73978300D02*
X127637200Y-70258000D01*
X121000000Y-72635000D02*
X122343300Y-73978300D01*
X122343300Y-73978300D02*
X123916900Y-73978300D01*
%TO.N,/Controller/USB_DP*%
X125687900Y-70108200D02*
X123790600Y-72005500D01*
X125687900Y-62595700D02*
X125687900Y-70108200D01*
X121640500Y-72005500D02*
X121000000Y-71365000D01*
X123790600Y-72005500D02*
X121640500Y-72005500D01*
X127778600Y-60505000D02*
X125687900Y-62595700D01*
%TO.N,/Controller/V33_HALF*%
X118477400Y-79792000D02*
X116984300Y-79792000D01*
X116984300Y-79792000D02*
X115466900Y-78274600D01*
X126474500Y-83216900D02*
X121902300Y-83216900D01*
X121902300Y-83216900D02*
X118477400Y-79792000D01*
X127107600Y-83850000D02*
X126474500Y-83216900D01*
D13*
%TO.N,/Controller/VEXC*%
X132193600Y-85627800D02*
X124827400Y-85627800D01*
X124827400Y-85627800D02*
X124300000Y-85100400D01*
D14*
%TO.N,/Heel and indicator/PZ_BUF*%
X132528000Y-81354300D02*
X125426900Y-81354300D01*
X125426900Y-81354300D02*
X124656100Y-82125100D01*
D15*
%TO.N,GND*%
X122270000Y-72635000D02*
X122536801Y-73435404D01*
X132810000Y-78500000D02*
X134239000Y-77675000D01*
X130270000Y-78500000D02*
X131699000Y-77675000D01*
D13*
%TO.N,VBAT*%
X135235500Y-80605000D02*
X129835000Y-80605000D01*
X129835000Y-80605000D02*
X127730000Y-78500000D01*
X126251300Y-79978700D02*
X127730000Y-78500000D01*
X125190000Y-78500000D02*
X125190000Y-79978700D01*
X125190000Y-79978700D02*
X126251300Y-79978700D01*
%TD*%
%TA.AperFunction,Conductor*%
%TO.N,GND*%
G36*
X116380881Y-83700796D02*
G01*
X116742051Y-84061966D01*
X116771047Y-84131970D01*
X116766608Y-84154287D01*
X116767802Y-84154525D01*
X116765900Y-84164088D01*
X116765900Y-84343312D01*
X116767802Y-84352875D01*
X116764077Y-84353615D01*
X116764081Y-84414682D01*
X116710505Y-84468262D01*
X116672615Y-84475800D01*
X114287424Y-84475800D01*
X114217420Y-84446804D01*
X113820596Y-84049980D01*
X113791600Y-83979976D01*
X113791600Y-83870488D01*
X113791599Y-83870487D01*
X113766001Y-83808685D01*
X113766001Y-83732914D01*
X113819580Y-83679336D01*
X113857465Y-83671800D01*
X116310877Y-83671800D01*
X116380881Y-83700796D01*
G37*
%TD.AperFunction*%
%TA.AperFunction,Conductor*%
G36*
X123123391Y-72309996D02*
G01*
X123152387Y-72380000D01*
X123123391Y-72450004D01*
X123113652Y-72458544D01*
X123112771Y-72459219D01*
X123112769Y-72459221D01*
X122983221Y-72588769D01*
X122891618Y-72747431D01*
X122844200Y-72924396D01*
X122844200Y-73107604D01*
X122891618Y-73284569D01*
X122983221Y-73443231D01*
X123073787Y-73533797D01*
X123102783Y-73603800D01*
X123073787Y-73673804D01*
X123003783Y-73702800D01*
X122498424Y-73702800D01*
X122428420Y-73673804D01*
X121607913Y-72853298D01*
X121602792Y-72840935D01*
X121592179Y-72832791D01*
X121588806Y-72807170D01*
X121578917Y-72783294D01*
X121582290Y-72757675D01*
X121594200Y-72713228D01*
X121595501Y-72708374D01*
X121641630Y-72648262D01*
X121691127Y-72635000D01*
X122269999Y-72635000D01*
X122270000Y-72635000D01*
X122270000Y-72380000D01*
X122298996Y-72309996D01*
X122369000Y-72281000D01*
X123053387Y-72281000D01*
X123123391Y-72309996D01*
G37*
%TD.AperFunction*%
%TA.AperFunction,Conductor*%
G36*
X125219056Y-58849796D02*
G01*
X125248052Y-58919800D01*
X125219056Y-58989804D01*
X125186940Y-59011262D01*
X125141842Y-59029943D01*
X125141840Y-59029944D01*
X125141838Y-59029946D01*
X124749780Y-59422004D01*
X124679777Y-59451000D01*
X118295531Y-59451000D01*
X118225527Y-59422004D01*
X118196531Y-59352000D01*
X118196561Y-59349552D01*
X118196986Y-59332343D01*
X118199900Y-59325310D01*
X118199900Y-59214587D01*
X118199930Y-59213375D01*
X118214829Y-59179778D01*
X118228896Y-59145819D01*
X118524919Y-58849796D01*
X118594923Y-58820800D01*
X125149052Y-58820800D01*
X125219056Y-58849796D01*
G37*
%TD.AperFunction*%
%TA.AperFunction,Conductor*%
G36*
X110971004Y-46329496D02*
G01*
X111000000Y-46399500D01*
X111000000Y-51600000D01*
X114308993Y-51600000D01*
X114378997Y-51628996D01*
X114400000Y-51649999D01*
X114400000Y-51650000D01*
X114400001Y-51650000D01*
X127599999Y-51650000D01*
X127600000Y-51650000D01*
X127600000Y-51649999D01*
X127621003Y-51628996D01*
X127691007Y-51600000D01*
X130999999Y-51600000D01*
X131000000Y-51600000D01*
X131000000Y-50871909D01*
X131699500Y-50871909D01*
X131699500Y-51128090D01*
X131732818Y-51295590D01*
X131738518Y-51324249D01*
X131749477Y-51379341D01*
X131749477Y-51379343D01*
X131847508Y-51616013D01*
X131847514Y-51616025D01*
X131949289Y-51768340D01*
X131989835Y-51829021D01*
X132170979Y-52010165D01*
X132261791Y-52070844D01*
X132383974Y-52152485D01*
X132383986Y-52152491D01*
X132471412Y-52188703D01*
X132620658Y-52250523D01*
X132871912Y-52300500D01*
X132871913Y-52300500D01*
X133128087Y-52300500D01*
X133128088Y-52300500D01*
X133379342Y-52250523D01*
X133616018Y-52152489D01*
X133616020Y-52152487D01*
X133616025Y-52152485D01*
X133677527Y-52111389D01*
X133829021Y-52010165D01*
X134010165Y-51829021D01*
X134129783Y-51650000D01*
X134152485Y-51616025D01*
X134152491Y-51616013D01*
X134159124Y-51599999D01*
X134250523Y-51379342D01*
X134300500Y-51128088D01*
X134300500Y-50871912D01*
X134250523Y-50620658D01*
X134152489Y-50383982D01*
X134152485Y-50383974D01*
X134070844Y-50261791D01*
X134010165Y-50170979D01*
X133829021Y-49989835D01*
X133768340Y-49949289D01*
X133616025Y-49847514D01*
X133616013Y-49847508D01*
X133379342Y-49749477D01*
X133128090Y-49699500D01*
X133128088Y-49699500D01*
X132871912Y-49699500D01*
X132871909Y-49699500D01*
X132620658Y-49749477D01*
X132620656Y-49749477D01*
X132383986Y-49847508D01*
X132383974Y-49847514D01*
X132170979Y-49989835D01*
X132170975Y-49989838D01*
X131989838Y-50170975D01*
X131989835Y-50170979D01*
X131847514Y-50383974D01*
X131847508Y-50383986D01*
X131749477Y-50620656D01*
X131749477Y-50620658D01*
X131699500Y-50871909D01*
X131000000Y-50871909D01*
X131000000Y-46399500D01*
X131028996Y-46329496D01*
X131099000Y-46300500D01*
X136255188Y-46300500D01*
X136325192Y-46329496D01*
X136354188Y-46399500D01*
X136325192Y-46469504D01*
X136323144Y-46471492D01*
X136290279Y-46502496D01*
X136241000Y-46548987D01*
X135958779Y-46916279D01*
X135738419Y-47323685D01*
X135738416Y-47323694D01*
X135585488Y-47760917D01*
X135585486Y-47760922D01*
X135585485Y-47760926D01*
X135503871Y-48216869D01*
X135503870Y-48216871D01*
X135495635Y-48679978D01*
X135495635Y-48679984D01*
X135560990Y-49138551D01*
X135698281Y-49580943D01*
X135777393Y-49740515D01*
X135904022Y-49995934D01*
X136173007Y-50373026D01*
X136173009Y-50373028D01*
X136173012Y-50373032D01*
X136476075Y-50680027D01*
X136498418Y-50702660D01*
X136872011Y-50976484D01*
X136936060Y-51009273D01*
X137168152Y-51128090D01*
X137284319Y-51187560D01*
X137631060Y-51300088D01*
X137688694Y-51349277D01*
X137699500Y-51394253D01*
X137699500Y-88605744D01*
X137670504Y-88675748D01*
X137631060Y-88699909D01*
X137284313Y-88812439D01*
X137284312Y-88812440D01*
X136872015Y-89023512D01*
X136498421Y-89297336D01*
X136498414Y-89297342D01*
X136173008Y-89626970D01*
X135904020Y-90004067D01*
X135698278Y-90419060D01*
X135560989Y-90861447D01*
X135495634Y-91320014D01*
X135495634Y-91320020D01*
X135503869Y-91783128D01*
X135503869Y-91783129D01*
X135503870Y-91783132D01*
X135542984Y-92001647D01*
X135565641Y-92128221D01*
X135585486Y-92239082D01*
X135673936Y-92491960D01*
X135738417Y-92676310D01*
X135958781Y-93083723D01*
X136241000Y-93451012D01*
X136241001Y-93451013D01*
X136241003Y-93451015D01*
X136323124Y-93528488D01*
X136354146Y-93597618D01*
X136327200Y-93668436D01*
X136258070Y-93699458D01*
X136255188Y-93699500D01*
X105744813Y-93699500D01*
X105674809Y-93670504D01*
X105645813Y-93600500D01*
X105674809Y-93530496D01*
X105676877Y-93528488D01*
X105758997Y-93451016D01*
X106041218Y-93083725D01*
X106261585Y-92676306D01*
X106414514Y-92239082D01*
X106496129Y-91783133D01*
X106504365Y-91320009D01*
X106439010Y-90861445D01*
X106301722Y-90419061D01*
X106095979Y-90004066D01*
X105826994Y-89626973D01*
X105501582Y-89297339D01*
X105127989Y-89023515D01*
X105127985Y-89023513D01*
X105127984Y-89023512D01*
X104715687Y-88812440D01*
X104715686Y-88812439D01*
X104368940Y-88699909D01*
X104311306Y-88650720D01*
X104300500Y-88605744D01*
X104300500Y-87495088D01*
X122121100Y-87495088D01*
X122121100Y-87674311D01*
X122189682Y-87839885D01*
X122189683Y-87839886D01*
X122189684Y-87839888D01*
X122316412Y-87966616D01*
X122316413Y-87966616D01*
X122316414Y-87966617D01*
X122481988Y-88035200D01*
X122481990Y-88035200D01*
X122661211Y-88035200D01*
X122765623Y-87991950D01*
X122826788Y-87966616D01*
X122953516Y-87839888D01*
X123022100Y-87674310D01*
X123022100Y-87495090D01*
X123022100Y-87495088D01*
X122953517Y-87329514D01*
X122953516Y-87329513D01*
X122953516Y-87329512D01*
X122826788Y-87202784D01*
X122826786Y-87202783D01*
X122826785Y-87202782D01*
X122661212Y-87134200D01*
X122661210Y-87134200D01*
X122481990Y-87134200D01*
X122481988Y-87134200D01*
X122316414Y-87202782D01*
X122189682Y-87329514D01*
X122121100Y-87495088D01*
X104300500Y-87495088D01*
X104300500Y-80429788D01*
X109703200Y-80429788D01*
X109703200Y-80609011D01*
X109771782Y-80774585D01*
X109771783Y-80774586D01*
X109771784Y-80774588D01*
X109898512Y-80901316D01*
X109898513Y-80901316D01*
X109898514Y-80901317D01*
X110064088Y-80969900D01*
X110064090Y-80969900D01*
X110173577Y-80969900D01*
X110243581Y-80998896D01*
X112797043Y-83552358D01*
X112797042Y-83552358D01*
X112839497Y-83594812D01*
X112874542Y-83629857D01*
X112881860Y-83632888D01*
X112935437Y-83686463D01*
X112935439Y-83762235D01*
X112935438Y-83762236D01*
X112890600Y-83870487D01*
X112890600Y-84049711D01*
X112959182Y-84215285D01*
X112959183Y-84215286D01*
X112959184Y-84215288D01*
X113085912Y-84342016D01*
X113085913Y-84342016D01*
X113085914Y-84342017D01*
X113251488Y-84410600D01*
X113251490Y-84410600D01*
X113360977Y-84410600D01*
X113430980Y-84439595D01*
X113976242Y-84984858D01*
X113976243Y-84984858D01*
X113976244Y-84984859D01*
X114077498Y-85026800D01*
X114077500Y-85026800D01*
X119639499Y-85026800D01*
X119639500Y-85026800D01*
X119678156Y-85010788D01*
X123849500Y-85010788D01*
X123849500Y-85190011D01*
X123918082Y-85355585D01*
X123918083Y-85355586D01*
X123918084Y-85355588D01*
X124044812Y-85482316D01*
X124044813Y-85482316D01*
X124044814Y-85482317D01*
X124210388Y-85550900D01*
X124210390Y-85550900D01*
X124213810Y-85550900D01*
X124216970Y-85552209D01*
X124219951Y-85552802D01*
X124219833Y-85553394D01*
X124283813Y-85579896D01*
X124628858Y-85924940D01*
X124757680Y-85978300D01*
X124757681Y-85978300D01*
X124897119Y-85978300D01*
X131865989Y-85978300D01*
X131929970Y-86004801D01*
X131930306Y-86004300D01*
X131932827Y-86005984D01*
X131935991Y-86007295D01*
X131938412Y-86009716D01*
X131938413Y-86009716D01*
X131938414Y-86009717D01*
X132103988Y-86078300D01*
X132103990Y-86078300D01*
X132283211Y-86078300D01*
X132387623Y-86035050D01*
X132448788Y-86009716D01*
X132575516Y-85882988D01*
X132644100Y-85717410D01*
X132644100Y-85538190D01*
X132644100Y-85538188D01*
X132575517Y-85372614D01*
X132575516Y-85372613D01*
X132575516Y-85372612D01*
X132448788Y-85245884D01*
X132448786Y-85245883D01*
X132448785Y-85245882D01*
X132283212Y-85177300D01*
X132283210Y-85177300D01*
X132103990Y-85177300D01*
X132103988Y-85177300D01*
X131938414Y-85245882D01*
X131938412Y-85245883D01*
X131938412Y-85245884D01*
X131935991Y-85248304D01*
X131932827Y-85249615D01*
X131930306Y-85251300D01*
X131929970Y-85250798D01*
X131865989Y-85277300D01*
X125013590Y-85277300D01*
X124943586Y-85248304D01*
X124779496Y-85084214D01*
X124752994Y-85020233D01*
X124752402Y-85020351D01*
X124751809Y-85017371D01*
X124750500Y-85014210D01*
X124750500Y-85010788D01*
X124681917Y-84845214D01*
X124681916Y-84845213D01*
X124681916Y-84845212D01*
X124555188Y-84718484D01*
X124555186Y-84718483D01*
X124555185Y-84718482D01*
X124389612Y-84649900D01*
X124389610Y-84649900D01*
X124210390Y-84649900D01*
X124210388Y-84649900D01*
X124044814Y-84718482D01*
X123918082Y-84845214D01*
X123849500Y-85010788D01*
X119678156Y-85010788D01*
X119740758Y-84984857D01*
X119818257Y-84907358D01*
X120435319Y-84290296D01*
X120505323Y-84261300D01*
X120614811Y-84261300D01*
X120725901Y-84215285D01*
X120780388Y-84192716D01*
X120907116Y-84065988D01*
X120975700Y-83900410D01*
X120975700Y-83721190D01*
X120975700Y-83721188D01*
X120907117Y-83555614D01*
X120907116Y-83555613D01*
X120907116Y-83555612D01*
X120780388Y-83428884D01*
X120780386Y-83428883D01*
X120780385Y-83428882D01*
X120614812Y-83360300D01*
X120614810Y-83360300D01*
X120435590Y-83360300D01*
X120435588Y-83360300D01*
X120270014Y-83428882D01*
X120143282Y-83555614D01*
X120074700Y-83721188D01*
X120074700Y-83830677D01*
X120045704Y-83900681D01*
X119499581Y-84446804D01*
X119429577Y-84475800D01*
X117760185Y-84475800D01*
X117690181Y-84446804D01*
X117661185Y-84376800D01*
X117665908Y-84353056D01*
X117664998Y-84352875D01*
X117666900Y-84343312D01*
X117666900Y-84164088D01*
X117598317Y-83998514D01*
X117598316Y-83998513D01*
X117598316Y-83998512D01*
X117471588Y-83871784D01*
X117471586Y-83871783D01*
X117471585Y-83871782D01*
X117306012Y-83803200D01*
X117306010Y-83803200D01*
X117303523Y-83803200D01*
X117301223Y-83802247D01*
X117296449Y-83801298D01*
X117296637Y-83800348D01*
X117233519Y-83774204D01*
X116931400Y-83472085D01*
X116622058Y-83162743D01*
X116622056Y-83162742D01*
X116622055Y-83162741D01*
X116596495Y-83152154D01*
X116596494Y-83152154D01*
X116520800Y-83120800D01*
X116520799Y-83120800D01*
X113185723Y-83120800D01*
X113115719Y-83091804D01*
X110633196Y-80609281D01*
X110604200Y-80539277D01*
X110604200Y-80429789D01*
X110573853Y-80356525D01*
X110573853Y-80356524D01*
X110562199Y-80328388D01*
X114518300Y-80328388D01*
X114518300Y-80507611D01*
X114586882Y-80673185D01*
X114586883Y-80673186D01*
X114586884Y-80673188D01*
X114713612Y-80799916D01*
X114713613Y-80799916D01*
X114713614Y-80799917D01*
X114879188Y-80868500D01*
X114879190Y-80868500D01*
X115058411Y-80868500D01*
X115162823Y-80825250D01*
X115223988Y-80799916D01*
X115350716Y-80673188D01*
X115389197Y-80580285D01*
X115419300Y-80507611D01*
X115419300Y-80328388D01*
X115350717Y-80162814D01*
X115350716Y-80162813D01*
X115350716Y-80162812D01*
X115223988Y-80036084D01*
X115223986Y-80036083D01*
X115223985Y-80036082D01*
X115058412Y-79967500D01*
X115058410Y-79967500D01*
X114879190Y-79967500D01*
X114879188Y-79967500D01*
X114713614Y-80036082D01*
X114586882Y-80162814D01*
X114518300Y-80328388D01*
X110562199Y-80328388D01*
X110535617Y-80264214D01*
X110535616Y-80264213D01*
X110535616Y-80264212D01*
X110408888Y-80137484D01*
X110408886Y-80137483D01*
X110408885Y-80137482D01*
X110243312Y-80068900D01*
X110243310Y-80068900D01*
X110064090Y-80068900D01*
X110064088Y-80068900D01*
X109898514Y-80137482D01*
X109771782Y-80264214D01*
X109703200Y-80429788D01*
X104300500Y-80429788D01*
X104300500Y-78779688D01*
X113995000Y-78779688D01*
X113995000Y-78958911D01*
X114063582Y-79124485D01*
X114063583Y-79124486D01*
X114063584Y-79124488D01*
X114190312Y-79251216D01*
X114190313Y-79251216D01*
X114190314Y-79251217D01*
X114355888Y-79319800D01*
X114355890Y-79319800D01*
X114535111Y-79319800D01*
X114639523Y-79276550D01*
X114700688Y-79251216D01*
X114827416Y-79124488D01*
X114864974Y-79033814D01*
X114896000Y-78958911D01*
X114896000Y-78779688D01*
X114827417Y-78614114D01*
X114827416Y-78614113D01*
X114827416Y-78614112D01*
X114700688Y-78487384D01*
X114700686Y-78487383D01*
X114700685Y-78487382D01*
X114535112Y-78418800D01*
X114535110Y-78418800D01*
X114355890Y-78418800D01*
X114355888Y-78418800D01*
X114190314Y-78487382D01*
X114063582Y-78614114D01*
X113995000Y-78779688D01*
X104300500Y-78779688D01*
X104300500Y-78184988D01*
X115016400Y-78184988D01*
X115016400Y-78364211D01*
X115084982Y-78529785D01*
X115084983Y-78529786D01*
X115084984Y-78529788D01*
X115211712Y-78656516D01*
X115211713Y-78656516D01*
X115211714Y-78656517D01*
X115377288Y-78725100D01*
X115377290Y-78725100D01*
X115486777Y-78725100D01*
X115556780Y-78754095D01*
X116828242Y-80025558D01*
X116828243Y-80025558D01*
X116828244Y-80025559D01*
X116929498Y-80067500D01*
X116929500Y-80067500D01*
X117039100Y-80067500D01*
X118322277Y-80067500D01*
X118392281Y-80096496D01*
X121606753Y-83310968D01*
X121635749Y-83380972D01*
X121606753Y-83450976D01*
X121574635Y-83472436D01*
X121467814Y-83516682D01*
X121341082Y-83643414D01*
X121272500Y-83808988D01*
X121272500Y-83988211D01*
X121341082Y-84153785D01*
X121341083Y-84153786D01*
X121341084Y-84153788D01*
X121467812Y-84280516D01*
X121467813Y-84280516D01*
X121467814Y-84280517D01*
X121633388Y-84349100D01*
X121633390Y-84349100D01*
X121812611Y-84349100D01*
X121929942Y-84300500D01*
X121978188Y-84280516D01*
X122104916Y-84153788D01*
X122173500Y-83988210D01*
X122173500Y-83808990D01*
X122173500Y-83808988D01*
X122101185Y-83634403D01*
X122104273Y-83633123D01*
X122092131Y-83572089D01*
X122134225Y-83509086D01*
X122189229Y-83492400D01*
X126319377Y-83492400D01*
X126389381Y-83521396D01*
X126628104Y-83760119D01*
X126657100Y-83830123D01*
X126657100Y-83939611D01*
X126725682Y-84105185D01*
X126725683Y-84105186D01*
X126725684Y-84105188D01*
X126852412Y-84231916D01*
X126852413Y-84231916D01*
X126852414Y-84231917D01*
X127017988Y-84300500D01*
X127017990Y-84300500D01*
X127197211Y-84300500D01*
X127301623Y-84257250D01*
X127362788Y-84231916D01*
X127489516Y-84105188D01*
X127524394Y-84020984D01*
X127558100Y-83939611D01*
X127558100Y-83760388D01*
X127489517Y-83594814D01*
X127489516Y-83594813D01*
X127489516Y-83594812D01*
X127362788Y-83468084D01*
X127362786Y-83468083D01*
X127362785Y-83468082D01*
X127197212Y-83399500D01*
X127197210Y-83399500D01*
X127087723Y-83399500D01*
X127017720Y-83370504D01*
X126670519Y-83023304D01*
X126641522Y-82953300D01*
X126670518Y-82883297D01*
X126740522Y-82854300D01*
X133647177Y-82854300D01*
X133717181Y-82883296D01*
X133960904Y-83127019D01*
X133989900Y-83197023D01*
X133989900Y-83306511D01*
X134058482Y-83472085D01*
X134058483Y-83472086D01*
X134058484Y-83472088D01*
X134185212Y-83598816D01*
X134185213Y-83598816D01*
X134185214Y-83598817D01*
X134350788Y-83667400D01*
X134350790Y-83667400D01*
X134530011Y-83667400D01*
X134634423Y-83624150D01*
X134695588Y-83598816D01*
X134822316Y-83472088D01*
X134868620Y-83360300D01*
X134890900Y-83306511D01*
X134890900Y-83127288D01*
X134822317Y-82961714D01*
X134822316Y-82961713D01*
X134822316Y-82961712D01*
X134695588Y-82834984D01*
X134695586Y-82834983D01*
X134695585Y-82834982D01*
X134530012Y-82766400D01*
X134530010Y-82766400D01*
X134420523Y-82766400D01*
X134350520Y-82737404D01*
X133958361Y-82345246D01*
X133958358Y-82345243D01*
X133857100Y-82303300D01*
X133857099Y-82303300D01*
X125205600Y-82303300D01*
X125135596Y-82274304D01*
X125106600Y-82204300D01*
X125106600Y-82105222D01*
X125135595Y-82035219D01*
X125512020Y-81658796D01*
X125582023Y-81629800D01*
X132125388Y-81629800D01*
X132195391Y-81658796D01*
X132272812Y-81736217D01*
X132438388Y-81804800D01*
X132438390Y-81804800D01*
X132617611Y-81804800D01*
X132722023Y-81761550D01*
X132783188Y-81736216D01*
X132909916Y-81609488D01*
X132978500Y-81443910D01*
X132978500Y-81264690D01*
X132909916Y-81099112D01*
X132909915Y-81099111D01*
X132907130Y-81092386D01*
X132907130Y-81016614D01*
X132960708Y-80963036D01*
X132998594Y-80955500D01*
X134907889Y-80955500D01*
X134971870Y-80982001D01*
X134972206Y-80981500D01*
X134974727Y-80983184D01*
X134977891Y-80984495D01*
X134980312Y-80986916D01*
X134980313Y-80986916D01*
X134980314Y-80986917D01*
X135145888Y-81055500D01*
X135145890Y-81055500D01*
X135325111Y-81055500D01*
X135461765Y-80998896D01*
X135490688Y-80986916D01*
X135617416Y-80860188D01*
X135686000Y-80694610D01*
X135686000Y-80515390D01*
X135686000Y-80515388D01*
X135617417Y-80349814D01*
X135617416Y-80349813D01*
X135617416Y-80349812D01*
X135490688Y-80223084D01*
X135490686Y-80223083D01*
X135490685Y-80223082D01*
X135325112Y-80154500D01*
X135325110Y-80154500D01*
X135145890Y-80154500D01*
X135145888Y-80154500D01*
X134980314Y-80223082D01*
X134980312Y-80223083D01*
X134980312Y-80223084D01*
X134977891Y-80225504D01*
X134974727Y-80226815D01*
X134972206Y-80228500D01*
X134971870Y-80227998D01*
X134907889Y-80254500D01*
X130021190Y-80254500D01*
X129951186Y-80225504D01*
X128759496Y-79033814D01*
X128730500Y-78963810D01*
X128730500Y-77280253D01*
X128730498Y-77280241D01*
X128727711Y-77266231D01*
X128718867Y-77221769D01*
X128674552Y-77155448D01*
X128674548Y-77155445D01*
X128608233Y-77111134D01*
X128608231Y-77111133D01*
X128608228Y-77111132D01*
X128608227Y-77111132D01*
X128549758Y-77099501D01*
X128549748Y-77099500D01*
X126910252Y-77099500D01*
X126910251Y-77099500D01*
X126910241Y-77099501D01*
X126851772Y-77111132D01*
X126851766Y-77111134D01*
X126785451Y-77155445D01*
X126785445Y-77155451D01*
X126741134Y-77221766D01*
X126741132Y-77221772D01*
X126729501Y-77280241D01*
X126729500Y-77280253D01*
X126729500Y-78963810D01*
X126700504Y-79033814D01*
X126359504Y-79374814D01*
X126289500Y-79403810D01*
X126219496Y-79374814D01*
X126190500Y-79304810D01*
X126190500Y-77280253D01*
X126190498Y-77280241D01*
X126187711Y-77266231D01*
X126178867Y-77221769D01*
X126134552Y-77155448D01*
X126134548Y-77155445D01*
X126068233Y-77111134D01*
X126068231Y-77111133D01*
X126068228Y-77111132D01*
X126068227Y-77111132D01*
X126009758Y-77099501D01*
X126009748Y-77099500D01*
X124370252Y-77099500D01*
X124370251Y-77099500D01*
X124370241Y-77099501D01*
X124311772Y-77111132D01*
X124311766Y-77111134D01*
X124245451Y-77155445D01*
X124245445Y-77155451D01*
X124201134Y-77221766D01*
X124201132Y-77221772D01*
X124189501Y-77280241D01*
X124189500Y-77280253D01*
X124189500Y-79719746D01*
X124189501Y-79719758D01*
X124201132Y-79778227D01*
X124201133Y-79778231D01*
X124245448Y-79844552D01*
X124311769Y-79888867D01*
X124356231Y-79897711D01*
X124370241Y-79900498D01*
X124370246Y-79900498D01*
X124370252Y-79900500D01*
X124740500Y-79900500D01*
X124810504Y-79929496D01*
X124839500Y-79999500D01*
X124839500Y-80048419D01*
X124892858Y-80177239D01*
X124892859Y-80177240D01*
X124892860Y-80177242D01*
X124991458Y-80275840D01*
X124991459Y-80275840D01*
X124991460Y-80275841D01*
X125120280Y-80329200D01*
X125120281Y-80329200D01*
X126321020Y-80329200D01*
X126385430Y-80302520D01*
X126449842Y-80275840D01*
X126801877Y-79923803D01*
X126871880Y-79894807D01*
X126891195Y-79896710D01*
X126910241Y-79900498D01*
X126910246Y-79900498D01*
X126910252Y-79900500D01*
X126910253Y-79900500D01*
X128549747Y-79900500D01*
X128549748Y-79900500D01*
X128568800Y-79896710D01*
X128643115Y-79911489D01*
X128658121Y-79923803D01*
X129636458Y-80902140D01*
X129636459Y-80902140D01*
X129643353Y-80909034D01*
X129639671Y-80912715D01*
X129671590Y-80960502D01*
X129656795Y-81034815D01*
X129593787Y-81076901D01*
X129574489Y-81078800D01*
X125372098Y-81078800D01*
X125270844Y-81120740D01*
X124745981Y-81645604D01*
X124675977Y-81674600D01*
X124566488Y-81674600D01*
X124400914Y-81743182D01*
X124274182Y-81869914D01*
X124205600Y-82035488D01*
X124205600Y-82204300D01*
X124176604Y-82274304D01*
X124106600Y-82303300D01*
X123300523Y-82303300D01*
X123230519Y-82274304D01*
X117071096Y-76114881D01*
X117042100Y-76044877D01*
X117042100Y-75935388D01*
X116973517Y-75769814D01*
X116973516Y-75769813D01*
X116973516Y-75769812D01*
X116874092Y-75670388D01*
X119328400Y-75670388D01*
X119328400Y-75849611D01*
X119396982Y-76015185D01*
X119396983Y-76015186D01*
X119396984Y-76015188D01*
X119523712Y-76141916D01*
X119523713Y-76141916D01*
X119523714Y-76141917D01*
X119689288Y-76210500D01*
X119689290Y-76210500D01*
X119868511Y-76210500D01*
X119972923Y-76167250D01*
X120034088Y-76141916D01*
X120160816Y-76015188D01*
X120229400Y-75849610D01*
X120229400Y-75670390D01*
X120229400Y-75670388D01*
X120160817Y-75504814D01*
X120160816Y-75504813D01*
X120160816Y-75504812D01*
X120034088Y-75378084D01*
X120034086Y-75378083D01*
X120034085Y-75378082D01*
X119868512Y-75309500D01*
X119868510Y-75309500D01*
X119689290Y-75309500D01*
X119689288Y-75309500D01*
X119523714Y-75378082D01*
X119396982Y-75504814D01*
X119328400Y-75670388D01*
X116874092Y-75670388D01*
X116846788Y-75643084D01*
X116846786Y-75643083D01*
X116846785Y-75643082D01*
X116681212Y-75574500D01*
X116681210Y-75574500D01*
X116501990Y-75574500D01*
X116501988Y-75574500D01*
X116336414Y-75643082D01*
X116209682Y-75769814D01*
X116141100Y-75935388D01*
X116141100Y-76114611D01*
X116209682Y-76280185D01*
X116209683Y-76280186D01*
X116209684Y-76280188D01*
X116336412Y-76406916D01*
X116336413Y-76406916D01*
X116336414Y-76406917D01*
X116501988Y-76475500D01*
X116501990Y-76475500D01*
X116611477Y-76475500D01*
X116681481Y-76504496D01*
X122949382Y-82772397D01*
X122978378Y-82842400D01*
X122949382Y-82912404D01*
X122879378Y-82941400D01*
X122057423Y-82941400D01*
X121987419Y-82912404D01*
X120339704Y-81264689D01*
X118633458Y-79558443D01*
X118532200Y-79516500D01*
X118532199Y-79516500D01*
X117139424Y-79516500D01*
X117069420Y-79487504D01*
X115946396Y-78364480D01*
X115917400Y-78294476D01*
X115917400Y-78184988D01*
X115848817Y-78019414D01*
X115848816Y-78019413D01*
X115848816Y-78019412D01*
X115722088Y-77892684D01*
X115722086Y-77892683D01*
X115722085Y-77892682D01*
X115556512Y-77824100D01*
X115556510Y-77824100D01*
X115377290Y-77824100D01*
X115377288Y-77824100D01*
X115211714Y-77892682D01*
X115084982Y-78019414D01*
X115016400Y-78184988D01*
X104300500Y-78184988D01*
X104300500Y-73211288D01*
X113898600Y-73211288D01*
X113898600Y-73390511D01*
X113967182Y-73556085D01*
X113967183Y-73556086D01*
X113967184Y-73556088D01*
X114093912Y-73682816D01*
X114093913Y-73682816D01*
X114093914Y-73682817D01*
X114259488Y-73751400D01*
X114259490Y-73751400D01*
X114438711Y-73751400D01*
X114556042Y-73702800D01*
X114604288Y-73682816D01*
X114731016Y-73556088D01*
X114756350Y-73494923D01*
X114799600Y-73390511D01*
X114799600Y-73211288D01*
X114731017Y-73045714D01*
X114731016Y-73045713D01*
X114731016Y-73045712D01*
X114604288Y-72918984D01*
X114604286Y-72918983D01*
X114604285Y-72918982D01*
X114438712Y-72850400D01*
X114438710Y-72850400D01*
X114259490Y-72850400D01*
X114259488Y-72850400D01*
X114093914Y-72918982D01*
X113967182Y-73045714D01*
X113898600Y-73211288D01*
X104300500Y-73211288D01*
X104300500Y-69257688D01*
X106871400Y-69257688D01*
X106871400Y-69436911D01*
X106939982Y-69602485D01*
X106939983Y-69602486D01*
X106939984Y-69602488D01*
X107066712Y-69729216D01*
X107066713Y-69729216D01*
X107066714Y-69729217D01*
X107232288Y-69797800D01*
X107232290Y-69797800D01*
X107411511Y-69797800D01*
X107515923Y-69754550D01*
X107577088Y-69729216D01*
X107703816Y-69602488D01*
X107729150Y-69541323D01*
X107772400Y-69436911D01*
X107774302Y-69427349D01*
X107778266Y-69428137D01*
X107801396Y-69372296D01*
X107871400Y-69343300D01*
X111564100Y-69343300D01*
X111634104Y-69372296D01*
X111663100Y-69442300D01*
X111663100Y-69611111D01*
X111731682Y-69776685D01*
X111731683Y-69776686D01*
X111731684Y-69776688D01*
X111858412Y-69903416D01*
X111858413Y-69903416D01*
X111858414Y-69903417D01*
X112023988Y-69972000D01*
X112023990Y-69972000D01*
X112203211Y-69972000D01*
X112368787Y-69903417D01*
X112446209Y-69825996D01*
X112516212Y-69797000D01*
X119116077Y-69797000D01*
X119186081Y-69825996D01*
X119310474Y-69950389D01*
X119339470Y-70020393D01*
X119310474Y-70090397D01*
X119295475Y-70102706D01*
X119294016Y-70103680D01*
X119167282Y-70230414D01*
X119098700Y-70395988D01*
X119098700Y-70575211D01*
X119167282Y-70740785D01*
X119167283Y-70740786D01*
X119167284Y-70740788D01*
X119270582Y-70844086D01*
X119299578Y-70914089D01*
X119270583Y-70984091D01*
X119254523Y-71000151D01*
X119254518Y-71000157D01*
X119176295Y-71135642D01*
X119135800Y-71286773D01*
X119135800Y-71449717D01*
X119132907Y-71449717D01*
X119115794Y-71513530D01*
X119050166Y-71551403D01*
X118976981Y-71531777D01*
X118967268Y-71523258D01*
X118887231Y-71443221D01*
X118728569Y-71351618D01*
X118551604Y-71304200D01*
X118368396Y-71304200D01*
X118191431Y-71351618D01*
X118032769Y-71443221D01*
X117903221Y-71572769D01*
X117811618Y-71731431D01*
X117764200Y-71908396D01*
X117764200Y-72091604D01*
X117811618Y-72268569D01*
X117903221Y-72427231D01*
X118032769Y-72556779D01*
X118191431Y-72648382D01*
X118368396Y-72695800D01*
X118368397Y-72695800D01*
X118551603Y-72695800D01*
X118551604Y-72695800D01*
X118728569Y-72648382D01*
X118887231Y-72556779D01*
X118967261Y-72476748D01*
X119037263Y-72447752D01*
X119107267Y-72476748D01*
X119136264Y-72546751D01*
X119135800Y-72553842D01*
X119135800Y-72556772D01*
X119135800Y-72713228D01*
X119144965Y-72747431D01*
X119176295Y-72864357D01*
X119254518Y-72999842D01*
X119254520Y-72999844D01*
X119254522Y-72999847D01*
X119365153Y-73110478D01*
X119365155Y-73110479D01*
X119365157Y-73110481D01*
X119500643Y-73188704D01*
X119500644Y-73188704D01*
X119500647Y-73188706D01*
X119651772Y-73229200D01*
X119651774Y-73229200D01*
X119808226Y-73229200D01*
X119808228Y-73229200D01*
X119959353Y-73188706D01*
X119959355Y-73188704D01*
X119959357Y-73188704D01*
X120094842Y-73110481D01*
X120094842Y-73110480D01*
X120094847Y-73110478D01*
X120205478Y-72999847D01*
X120252166Y-72918982D01*
X120279264Y-72872048D01*
X120339377Y-72825921D01*
X120414500Y-72835812D01*
X120450736Y-72872048D01*
X120524518Y-72999842D01*
X120524520Y-72999844D01*
X120524522Y-72999847D01*
X120635153Y-73110478D01*
X120635155Y-73110479D01*
X120635157Y-73110481D01*
X120770643Y-73188704D01*
X120770644Y-73188704D01*
X120770647Y-73188706D01*
X120921772Y-73229200D01*
X120921774Y-73229200D01*
X121078228Y-73229200D01*
X121122670Y-73217291D01*
X121197792Y-73227179D01*
X121218297Y-73242912D01*
X122187241Y-74211857D01*
X122216895Y-74224139D01*
X122216897Y-74224141D01*
X122216898Y-74224141D01*
X122252699Y-74238970D01*
X122288500Y-74253800D01*
X122288501Y-74253800D01*
X123971699Y-74253800D01*
X123971700Y-74253800D01*
X124072958Y-74211857D01*
X124150457Y-74134358D01*
X124150456Y-74134358D01*
X126662827Y-71621988D01*
X128538800Y-71621988D01*
X128538800Y-71801211D01*
X128607382Y-71966785D01*
X128607383Y-71966786D01*
X128607384Y-71966788D01*
X128734112Y-72093516D01*
X128734113Y-72093516D01*
X128734114Y-72093517D01*
X128899688Y-72162100D01*
X128899690Y-72162100D01*
X129078911Y-72162100D01*
X129196295Y-72113478D01*
X129244488Y-72093516D01*
X129371216Y-71966788D01*
X129404464Y-71886520D01*
X129439800Y-71801211D01*
X129439800Y-71621988D01*
X129371217Y-71456414D01*
X129371216Y-71456413D01*
X129371216Y-71456412D01*
X129244488Y-71329684D01*
X129244486Y-71329683D01*
X129244485Y-71329682D01*
X129078912Y-71261100D01*
X129078910Y-71261100D01*
X128899690Y-71261100D01*
X128899688Y-71261100D01*
X128734114Y-71329682D01*
X128607382Y-71456414D01*
X128538800Y-71621988D01*
X126662827Y-71621988D01*
X127870758Y-70414058D01*
X127912700Y-70312800D01*
X127912700Y-70203200D01*
X127912700Y-64001111D01*
X127941695Y-63931108D01*
X128019116Y-63853688D01*
X128087700Y-63688110D01*
X128087700Y-63508890D01*
X128087700Y-63508888D01*
X128019117Y-63343314D01*
X128019116Y-63343313D01*
X128019116Y-63343312D01*
X127892388Y-63216584D01*
X127892386Y-63216583D01*
X127892385Y-63216582D01*
X127726812Y-63148000D01*
X127726810Y-63148000D01*
X127547590Y-63148000D01*
X127547588Y-63148000D01*
X127382014Y-63216582D01*
X127255282Y-63343314D01*
X127186700Y-63508888D01*
X127186700Y-63688111D01*
X127255282Y-63853685D01*
X127255283Y-63853686D01*
X127255284Y-63853688D01*
X127332704Y-63931108D01*
X127361700Y-64001111D01*
X127361700Y-70102875D01*
X127332704Y-70172879D01*
X124404804Y-73100779D01*
X124334800Y-73129775D01*
X124264796Y-73100779D01*
X124235800Y-73030775D01*
X124235800Y-72924396D01*
X124216749Y-72853298D01*
X124188382Y-72747431D01*
X124096779Y-72588769D01*
X123967231Y-72459221D01*
X123967228Y-72459219D01*
X123910455Y-72426441D01*
X123864328Y-72366328D01*
X123874219Y-72291205D01*
X123897491Y-72263898D01*
X123908705Y-72254777D01*
X123946658Y-72239057D01*
X124024157Y-72161558D01*
X124024156Y-72161558D01*
X125921457Y-70264259D01*
X125946748Y-70203200D01*
X125963400Y-70163000D01*
X125963400Y-62750823D01*
X125992396Y-62680819D01*
X127688720Y-60984496D01*
X127758724Y-60955500D01*
X127868211Y-60955500D01*
X128033787Y-60886917D01*
X128160513Y-60760191D01*
X128160516Y-60760188D01*
X128163815Y-60752221D01*
X128217387Y-60698642D01*
X128293159Y-60698636D01*
X128325284Y-60720099D01*
X132453204Y-64848019D01*
X132482200Y-64918023D01*
X132482200Y-65491088D01*
X132453204Y-65561091D01*
X132375782Y-65638512D01*
X132307200Y-65804088D01*
X132307200Y-65983311D01*
X132375782Y-66148885D01*
X132375783Y-66148886D01*
X132375784Y-66148888D01*
X132502512Y-66275616D01*
X132502513Y-66275616D01*
X132502514Y-66275617D01*
X132668088Y-66344200D01*
X132668090Y-66344200D01*
X132847311Y-66344200D01*
X132951723Y-66300950D01*
X133012888Y-66275616D01*
X133139616Y-66148888D01*
X133205505Y-65989817D01*
X133208200Y-65983311D01*
X133208200Y-65804088D01*
X133139617Y-65638512D01*
X133062196Y-65561091D01*
X133033200Y-65491088D01*
X133033200Y-64708100D01*
X132991257Y-64606842D01*
X132991257Y-64606841D01*
X128092418Y-59708003D01*
X128063423Y-59638000D01*
X128092419Y-59567996D01*
X128162423Y-59539000D01*
X130071688Y-59539000D01*
X130141691Y-59567996D01*
X130219112Y-59645417D01*
X130384688Y-59714000D01*
X130384690Y-59714000D01*
X130563911Y-59714000D01*
X130668323Y-59670750D01*
X130729488Y-59645416D01*
X130856216Y-59518688D01*
X130884253Y-59451000D01*
X130924800Y-59353111D01*
X130924800Y-59173888D01*
X130856217Y-59008314D01*
X130856216Y-59008313D01*
X130856216Y-59008312D01*
X130837706Y-58989802D01*
X130808711Y-58919800D01*
X130837707Y-58849796D01*
X130907711Y-58820800D01*
X132859899Y-58820800D01*
X132859900Y-58820800D01*
X132961158Y-58778857D01*
X133038657Y-58701358D01*
X133835419Y-57904596D01*
X133905423Y-57875600D01*
X134014911Y-57875600D01*
X134119323Y-57832350D01*
X134180488Y-57807016D01*
X134307216Y-57680288D01*
X134375800Y-57514710D01*
X134375800Y-57335490D01*
X134375800Y-57335488D01*
X134307217Y-57169914D01*
X134307216Y-57169913D01*
X134307216Y-57169912D01*
X134180488Y-57043184D01*
X134180486Y-57043183D01*
X134180485Y-57043182D01*
X134014912Y-56974600D01*
X134014910Y-56974600D01*
X133835690Y-56974600D01*
X133835688Y-56974600D01*
X133670114Y-57043182D01*
X133543382Y-57169914D01*
X133474800Y-57335488D01*
X133474800Y-57444977D01*
X133445804Y-57514981D01*
X132719981Y-58240804D01*
X132649977Y-58269800D01*
X118385000Y-58269800D01*
X118283742Y-58311743D01*
X118283740Y-58311744D01*
X118283738Y-58311746D01*
X117839280Y-58756204D01*
X117769277Y-58785200D01*
X117659788Y-58785200D01*
X117494214Y-58853782D01*
X117367482Y-58980514D01*
X117298900Y-59146088D01*
X117298900Y-59325311D01*
X117320661Y-59377848D01*
X117320661Y-59453619D01*
X117296180Y-59483491D01*
X117298737Y-59486048D01*
X117291843Y-59492941D01*
X117291842Y-59492942D01*
X116782785Y-60002000D01*
X116634581Y-60150204D01*
X116564577Y-60179200D01*
X116455088Y-60179200D01*
X116289514Y-60247782D01*
X116162782Y-60374514D01*
X116094200Y-60540088D01*
X116094200Y-60719311D01*
X116162782Y-60884885D01*
X116162783Y-60884886D01*
X116162784Y-60884888D01*
X116289512Y-61011616D01*
X116289513Y-61011616D01*
X116289514Y-61011617D01*
X116455088Y-61080200D01*
X116455090Y-61080200D01*
X116634311Y-61080200D01*
X116662839Y-61068383D01*
X116738610Y-61068381D01*
X116792189Y-61121959D01*
X116792190Y-61121961D01*
X116842982Y-61244585D01*
X116842983Y-61244586D01*
X116842984Y-61244588D01*
X116969712Y-61371316D01*
X116969713Y-61371316D01*
X116969714Y-61371317D01*
X117135288Y-61439900D01*
X117135290Y-61439900D01*
X117314511Y-61439900D01*
X117418923Y-61396650D01*
X117480088Y-61371316D01*
X117606816Y-61244588D01*
X117646902Y-61147811D01*
X117675400Y-61079011D01*
X117675400Y-60969523D01*
X117675787Y-60968588D01*
X122986700Y-60968588D01*
X122986700Y-61147811D01*
X123055282Y-61313385D01*
X123055283Y-61313386D01*
X123055284Y-61313388D01*
X123182012Y-61440116D01*
X123182013Y-61440116D01*
X123182014Y-61440117D01*
X123347588Y-61508700D01*
X123347590Y-61508700D01*
X123526811Y-61508700D01*
X123631223Y-61465450D01*
X123692388Y-61440116D01*
X123819116Y-61313388D01*
X123887700Y-61147810D01*
X123887700Y-60968590D01*
X123887700Y-60968588D01*
X123819117Y-60803014D01*
X123819116Y-60803013D01*
X123819116Y-60803012D01*
X123692388Y-60676284D01*
X123692386Y-60676283D01*
X123692385Y-60676282D01*
X123526812Y-60607700D01*
X123526810Y-60607700D01*
X123347590Y-60607700D01*
X123347588Y-60607700D01*
X123182014Y-60676282D01*
X123055282Y-60803014D01*
X122986700Y-60968588D01*
X117675787Y-60968588D01*
X117704396Y-60899519D01*
X118294219Y-60309696D01*
X118364223Y-60280700D01*
X124848433Y-60280700D01*
X124918437Y-60309696D01*
X124939897Y-60341814D01*
X124995182Y-60475285D01*
X124995183Y-60475286D01*
X124995184Y-60475288D01*
X125121912Y-60602016D01*
X125121913Y-60602016D01*
X125121914Y-60602017D01*
X125287488Y-60670600D01*
X125287490Y-60670600D01*
X125466711Y-60670600D01*
X125618565Y-60607700D01*
X125632288Y-60602016D01*
X125759016Y-60475288D01*
X125800758Y-60374514D01*
X125827600Y-60309711D01*
X125827600Y-60140900D01*
X125856596Y-60070896D01*
X125926600Y-60041900D01*
X127365589Y-60041900D01*
X127435593Y-60070896D01*
X127464589Y-60140900D01*
X127435593Y-60210902D01*
X127398714Y-60247782D01*
X127396682Y-60249814D01*
X127328100Y-60415388D01*
X127328100Y-60524876D01*
X127299104Y-60594880D01*
X125531842Y-62362143D01*
X125531841Y-62362142D01*
X125454346Y-62439638D01*
X125454344Y-62439640D01*
X125454343Y-62439642D01*
X125454343Y-62439643D01*
X125412400Y-62540900D01*
X125412400Y-65672765D01*
X125383404Y-65742769D01*
X125313400Y-65771765D01*
X125275515Y-65764229D01*
X125124312Y-65701600D01*
X125124310Y-65701600D01*
X124945090Y-65701600D01*
X124945088Y-65701600D01*
X124779514Y-65770182D01*
X124652782Y-65896914D01*
X124584200Y-66062488D01*
X124584200Y-66241711D01*
X124652782Y-66407285D01*
X124652783Y-66407286D01*
X124652784Y-66407288D01*
X124779512Y-66534016D01*
X124779513Y-66534016D01*
X124779514Y-66534017D01*
X124945088Y-66602600D01*
X124945090Y-66602600D01*
X125124311Y-66602600D01*
X125275515Y-66539970D01*
X125351286Y-66539970D01*
X125404864Y-66593549D01*
X125412400Y-66631434D01*
X125412400Y-69953075D01*
X125383404Y-70023079D01*
X124404804Y-71001679D01*
X124334800Y-71030675D01*
X124264796Y-71001679D01*
X124235800Y-70931675D01*
X124235800Y-70892396D01*
X124214465Y-70812774D01*
X124188382Y-70715431D01*
X124096779Y-70556769D01*
X123967231Y-70427221D01*
X123808569Y-70335618D01*
X123631604Y-70288200D01*
X123448396Y-70288200D01*
X123356585Y-70312801D01*
X123271431Y-70335618D01*
X123112769Y-70427221D01*
X122983221Y-70556769D01*
X122891616Y-70715433D01*
X122891616Y-70715434D01*
X122844945Y-70889611D01*
X122798818Y-70949724D01*
X122723695Y-70959613D01*
X122679317Y-70933992D01*
X122634847Y-70889522D01*
X122634844Y-70889520D01*
X122634842Y-70889518D01*
X122499356Y-70811295D01*
X122499357Y-70811295D01*
X122467963Y-70802883D01*
X122348228Y-70770800D01*
X122191772Y-70770800D01*
X122191767Y-70770800D01*
X122147324Y-70782708D01*
X122072202Y-70772816D01*
X122051700Y-70757085D01*
X121607415Y-70312800D01*
X121139058Y-69844443D01*
X121058047Y-69810886D01*
X121025932Y-69789427D01*
X120932587Y-69696082D01*
X120767012Y-69627500D01*
X120767010Y-69627500D01*
X120657524Y-69627500D01*
X120587521Y-69598504D01*
X119823259Y-68834244D01*
X119823257Y-68834242D01*
X119789504Y-68820261D01*
X119722000Y-68792300D01*
X107656200Y-68792300D01*
X107546600Y-68792300D01*
X107546598Y-68792300D01*
X107445342Y-68834241D01*
X107411779Y-68867804D01*
X107341776Y-68896800D01*
X107232288Y-68896800D01*
X107066714Y-68965382D01*
X106939982Y-69092114D01*
X106871400Y-69257688D01*
X104300500Y-69257688D01*
X104300500Y-65518288D01*
X116092000Y-65518288D01*
X116092000Y-65697511D01*
X116160582Y-65863085D01*
X116160583Y-65863086D01*
X116160584Y-65863088D01*
X116287312Y-65989816D01*
X116287313Y-65989816D01*
X116287314Y-65989817D01*
X116452888Y-66058400D01*
X116452890Y-66058400D01*
X116632111Y-66058400D01*
X116736523Y-66015150D01*
X116797688Y-65989816D01*
X116924416Y-65863088D01*
X116965364Y-65764229D01*
X116993000Y-65697511D01*
X116993000Y-65518288D01*
X116924417Y-65352714D01*
X116924416Y-65352713D01*
X116924416Y-65352712D01*
X116797688Y-65225984D01*
X116797686Y-65225983D01*
X116797685Y-65225982D01*
X116632112Y-65157400D01*
X116632110Y-65157400D01*
X116452890Y-65157400D01*
X116452888Y-65157400D01*
X116287314Y-65225982D01*
X116160582Y-65352714D01*
X116092000Y-65518288D01*
X104300500Y-65518288D01*
X104300500Y-58963688D01*
X109204500Y-58963688D01*
X109204500Y-59142911D01*
X109273082Y-59308485D01*
X109273083Y-59308486D01*
X109273084Y-59308488D01*
X109399812Y-59435216D01*
X109399813Y-59435216D01*
X109399814Y-59435217D01*
X109565388Y-59503800D01*
X109565390Y-59503800D01*
X109744611Y-59503800D01*
X109865759Y-59453619D01*
X109910188Y-59435216D01*
X110036916Y-59308488D01*
X110105500Y-59142910D01*
X110105500Y-58963690D01*
X110105500Y-58963688D01*
X110036917Y-58798114D01*
X110036916Y-58798113D01*
X110036916Y-58798112D01*
X109910188Y-58671384D01*
X109910186Y-58671383D01*
X109910185Y-58671382D01*
X109744612Y-58602800D01*
X109744610Y-58602800D01*
X109565390Y-58602800D01*
X109565388Y-58602800D01*
X109399814Y-58671382D01*
X109273082Y-58798114D01*
X109204500Y-58963688D01*
X104300500Y-58963688D01*
X104300500Y-55861588D01*
X111268300Y-55861588D01*
X111268300Y-56040811D01*
X111336882Y-56206385D01*
X111336883Y-56206386D01*
X111336884Y-56206388D01*
X111463612Y-56333116D01*
X111463613Y-56333116D01*
X111463614Y-56333117D01*
X111629188Y-56401700D01*
X111629190Y-56401700D01*
X111738677Y-56401700D01*
X111808680Y-56430695D01*
X112356542Y-56978558D01*
X112356543Y-56978558D01*
X112356544Y-56978559D01*
X112457798Y-57020500D01*
X112457800Y-57020500D01*
X112567400Y-57020500D01*
X123705202Y-57020500D01*
X123775206Y-57049496D01*
X123804202Y-57119500D01*
X123796666Y-57157386D01*
X123794584Y-57162411D01*
X123794584Y-57162412D01*
X123791477Y-57169914D01*
X123726000Y-57327989D01*
X123726000Y-57507211D01*
X123794582Y-57672785D01*
X123794583Y-57672786D01*
X123794584Y-57672788D01*
X123921312Y-57799516D01*
X123921313Y-57799516D01*
X123921314Y-57799517D01*
X124086888Y-57868100D01*
X124086890Y-57868100D01*
X124266111Y-57868100D01*
X124431687Y-57799517D01*
X124509109Y-57722096D01*
X124579112Y-57693100D01*
X128613799Y-57693100D01*
X128613800Y-57693100D01*
X128715058Y-57651157D01*
X128736719Y-57629495D01*
X128806722Y-57600500D01*
X128916211Y-57600500D01*
X129020623Y-57557250D01*
X129081788Y-57531916D01*
X129208516Y-57405188D01*
X129277100Y-57239610D01*
X129277100Y-57060390D01*
X129277100Y-57060388D01*
X129208517Y-56894814D01*
X129208516Y-56894813D01*
X129208516Y-56894812D01*
X129081788Y-56768084D01*
X129081786Y-56768083D01*
X129081785Y-56768082D01*
X128916212Y-56699500D01*
X128916210Y-56699500D01*
X128736990Y-56699500D01*
X128736988Y-56699500D01*
X128571414Y-56768082D01*
X128444682Y-56894814D01*
X128376098Y-57060390D01*
X128375696Y-57062416D01*
X128374549Y-57064132D01*
X128372368Y-57069398D01*
X128371320Y-57068964D01*
X128333599Y-57125416D01*
X128278599Y-57142100D01*
X128022304Y-57142100D01*
X127952300Y-57113104D01*
X127923304Y-57043100D01*
X127952300Y-56973096D01*
X127984419Y-56951636D01*
X128049054Y-56924862D01*
X128069688Y-56916316D01*
X128196416Y-56789588D01*
X128265000Y-56624010D01*
X128265000Y-56444790D01*
X128265000Y-56444788D01*
X128196417Y-56279214D01*
X128196416Y-56279213D01*
X128196416Y-56279212D01*
X128069688Y-56152484D01*
X128069686Y-56152483D01*
X128069685Y-56152482D01*
X127904112Y-56083900D01*
X127904110Y-56083900D01*
X127724890Y-56083900D01*
X127724888Y-56083900D01*
X127559314Y-56152482D01*
X127432582Y-56279214D01*
X127364000Y-56444788D01*
X127364000Y-56624011D01*
X127432582Y-56789585D01*
X127432583Y-56789586D01*
X127432584Y-56789588D01*
X127559312Y-56916316D01*
X127559313Y-56916316D01*
X127559314Y-56916317D01*
X127644581Y-56951636D01*
X127698160Y-57005214D01*
X127698160Y-57080985D01*
X127644582Y-57134564D01*
X127606696Y-57142100D01*
X125264398Y-57142100D01*
X125194394Y-57113104D01*
X125165398Y-57043100D01*
X125172934Y-57005214D01*
X125243600Y-56834610D01*
X125243600Y-56655388D01*
X125175017Y-56489814D01*
X125175016Y-56489813D01*
X125175016Y-56489812D01*
X125048288Y-56363084D01*
X125048286Y-56363083D01*
X125048285Y-56363082D01*
X124882712Y-56294500D01*
X124882710Y-56294500D01*
X124716784Y-56294500D01*
X124646780Y-56265504D01*
X124617784Y-56195500D01*
X124618580Y-56182971D01*
X124620254Y-56169841D01*
X124641600Y-56118310D01*
X124641600Y-56002533D01*
X124642396Y-55996294D01*
X124658321Y-55968453D01*
X124670596Y-55938819D01*
X126004620Y-54604796D01*
X126074624Y-54575800D01*
X132130088Y-54575800D01*
X132200091Y-54604796D01*
X132277512Y-54682217D01*
X132443088Y-54750800D01*
X132443090Y-54750800D01*
X132622311Y-54750800D01*
X132726723Y-54707550D01*
X132787888Y-54682216D01*
X132914616Y-54555488D01*
X132983200Y-54389910D01*
X132983200Y-54210690D01*
X132983200Y-54210688D01*
X132914617Y-54045114D01*
X132914616Y-54045113D01*
X132914616Y-54045112D01*
X132787888Y-53918384D01*
X132787886Y-53918383D01*
X132787885Y-53918382D01*
X132622312Y-53849800D01*
X132622310Y-53849800D01*
X132443090Y-53849800D01*
X132443088Y-53849800D01*
X132277512Y-53918382D01*
X132200091Y-53995804D01*
X132130088Y-54024800D01*
X125864698Y-54024800D01*
X125763444Y-54066740D01*
X124280981Y-55549204D01*
X124210977Y-55578200D01*
X124101488Y-55578200D01*
X123935914Y-55646782D01*
X123809182Y-55773514D01*
X123740600Y-55939088D01*
X123740600Y-56118311D01*
X123809182Y-56283885D01*
X123809183Y-56283886D01*
X123809184Y-56283888D01*
X123825793Y-56300497D01*
X123854789Y-56370500D01*
X123825793Y-56440504D01*
X123755789Y-56469500D01*
X116409502Y-56469500D01*
X116339498Y-56440504D01*
X116310502Y-56370500D01*
X116318038Y-56332615D01*
X116375200Y-56194611D01*
X116375200Y-56015388D01*
X116306617Y-55849814D01*
X116306616Y-55849813D01*
X116306616Y-55849812D01*
X116179888Y-55723084D01*
X116179886Y-55723083D01*
X116179885Y-55723082D01*
X116014312Y-55654500D01*
X116014310Y-55654500D01*
X115835090Y-55654500D01*
X115835088Y-55654500D01*
X115669514Y-55723082D01*
X115542782Y-55849814D01*
X115474200Y-56015388D01*
X115474200Y-56194611D01*
X115531362Y-56332615D01*
X115531362Y-56408386D01*
X115477783Y-56461964D01*
X115439898Y-56469500D01*
X112667724Y-56469500D01*
X112597720Y-56440504D01*
X112198296Y-56041080D01*
X112169300Y-55971076D01*
X112169300Y-55861588D01*
X112100717Y-55696014D01*
X112100716Y-55696013D01*
X112100716Y-55696012D01*
X111973988Y-55569284D01*
X111973986Y-55569283D01*
X111973985Y-55569282D01*
X111808412Y-55500700D01*
X111808410Y-55500700D01*
X111629190Y-55500700D01*
X111629188Y-55500700D01*
X111463614Y-55569282D01*
X111336882Y-55696014D01*
X111268300Y-55861588D01*
X104300500Y-55861588D01*
X104300500Y-51394253D01*
X104329496Y-51324249D01*
X104368940Y-51300088D01*
X104715681Y-51187560D01*
X105127989Y-50976484D01*
X105270666Y-50871909D01*
X107699500Y-50871909D01*
X107699500Y-51128090D01*
X107732818Y-51295590D01*
X107738518Y-51324249D01*
X107749477Y-51379341D01*
X107749477Y-51379343D01*
X107847508Y-51616013D01*
X107847514Y-51616025D01*
X107949289Y-51768340D01*
X107989835Y-51829021D01*
X108170979Y-52010165D01*
X108261791Y-52070844D01*
X108383974Y-52152485D01*
X108383986Y-52152491D01*
X108471412Y-52188703D01*
X108620658Y-52250523D01*
X108871912Y-52300500D01*
X108871913Y-52300500D01*
X109128087Y-52300500D01*
X109128088Y-52300500D01*
X109379342Y-52250523D01*
X109616018Y-52152489D01*
X109616020Y-52152487D01*
X109616025Y-52152485D01*
X109677527Y-52111389D01*
X109829021Y-52010165D01*
X110010165Y-51829021D01*
X110129783Y-51650000D01*
X110152485Y-51616025D01*
X110152491Y-51616013D01*
X110159124Y-51599999D01*
X110250523Y-51379342D01*
X110300500Y-51128088D01*
X110300500Y-50871912D01*
X110250523Y-50620658D01*
X110152489Y-50383982D01*
X110152485Y-50383974D01*
X110070844Y-50261791D01*
X110010165Y-50170979D01*
X109829021Y-49989835D01*
X109768340Y-49949289D01*
X109616025Y-49847514D01*
X109616013Y-49847508D01*
X109379342Y-49749477D01*
X109128090Y-49699500D01*
X109128088Y-49699500D01*
X108871912Y-49699500D01*
X108871909Y-49699500D01*
X108620658Y-49749477D01*
X108620656Y-49749477D01*
X108383986Y-49847508D01*
X108383974Y-49847514D01*
X108170979Y-49989835D01*
X108170975Y-49989838D01*
X107989838Y-50170975D01*
X107989835Y-50170979D01*
X107847514Y-50383974D01*
X107847508Y-50383986D01*
X107749477Y-50620656D01*
X107749477Y-50620658D01*
X107699500Y-50871909D01*
X105270666Y-50871909D01*
X105501582Y-50702660D01*
X105826993Y-50373026D01*
X106095978Y-49995933D01*
X106301721Y-49580938D01*
X106439009Y-49138554D01*
X106504364Y-48679991D01*
X106496128Y-48216867D01*
X106414513Y-47760917D01*
X106261584Y-47323694D01*
X106041217Y-46916275D01*
X106009696Y-46875252D01*
X105758998Y-46548986D01*
X105676876Y-46471512D01*
X105645854Y-46402382D01*
X105672800Y-46331564D01*
X105741930Y-46300542D01*
X105744812Y-46300500D01*
X110901000Y-46300500D01*
X110971004Y-46329496D01*
G37*
%TD.AperFunction*%
%TD*%
M02*
