%TF.GenerationSoftware,KiCad,Pcbnew,9.0.9*%
%TF.CreationDate,2026-09-28T04:16:46+00:00*%
%TF.ProjectId,NIVA-pod,4e495641-2d70-46f6-942e-6b696361645f,rev?*%
%TF.SameCoordinates,Original*%
%TF.FileFunction,Copper,L2,Inr*%
%TF.FilePolarity,Positive*%
%FSLAX46Y46*%
G04 Gerber Fmt 4.6, Leading zero omitted, Abs format (unit mm)*
G04 Created by KiCad (PCBNEW 9.0.9) date 2026-09-28 04:16:46*
%MOMM*%
%LPD*%
G01*
G04 APERTURE LIST*
%TA.AperFunction,ViaPad*%
%ADD10C,0.500000*%
%TD*%
G04 APERTURE END LIST*
D10*
%TO.N,+3V3*%
X119549200Y-70485600D03*
%TO.N,/Controller/BOOT8*%
X124793100Y-56745000D03*
X111718800Y-55951200D03*
%TO.N,/Controller/BOOT9*%
X120677400Y-70078000D03*
X107321900Y-69347300D03*
%TO.N,/Controller/BUTTON*%
X114968800Y-80418000D03*
X119778900Y-75760000D03*
X116542500Y-65607900D03*
%TO.N,/Controller/CHIP_EN*%
X109655000Y-59053300D03*
X112113600Y-69521500D03*
%TO.N,/Controller/CS_IMU*%
X133925300Y-57425100D03*
X117749400Y-59235700D03*
%TO.N,/Controller/F4_ADC*%
X117216400Y-84253700D03*
X110153700Y-80519400D03*
%TO.N,/Controller/F5_ADC*%
X113341100Y-83960100D03*
X120525200Y-83810800D03*
%TO.N,/Controller/I2C_SCL*%
X128989300Y-71711600D03*
X115924700Y-56105000D03*
%TO.N,/Controller/I2C_SDA*%
X132757700Y-65893700D03*
X117224900Y-60989400D03*
%TO.N,/Controller/IMU_INT1*%
X116544700Y-60629700D03*
X130474300Y-59263500D03*
%TO.N,/Controller/INSERT_ID*%
X116591600Y-76025000D03*
X134440400Y-83216900D03*
%TO.N,/Controller/LED_G*%
X125034700Y-66152100D03*
X125377100Y-60220100D03*
%TO.N,/Controller/PVDF_RAW*%
X122571600Y-87584700D03*
X121723000Y-83898600D03*
%TO.N,/Controller/SPI_MISO*%
X128826600Y-57150000D03*
X124176500Y-57417600D03*
%TO.N,/Controller/SPI_MOSI*%
X127814500Y-56534400D03*
X123437200Y-61058200D03*
%TO.N,/Controller/SPI_SCK*%
X124191100Y-56028700D03*
X132532700Y-54300300D03*
%TO.N,/Controller/USB_DM*%
X127637200Y-63598500D03*
%TO.N,/Controller/USB_DP*%
X127778600Y-60505000D03*
%TO.N,/Controller/V33_HALF*%
X115466900Y-78274600D03*
X127107600Y-83850000D03*
%TO.N,/Controller/VEXC*%
X114349100Y-73300900D03*
X124300000Y-85100400D03*
X114445500Y-78869300D03*
X132193600Y-85627800D03*
%TO.N,/Heel and indicator/PZ_BUF*%
X132528000Y-81354300D03*
X124656100Y-82125100D03*
%TO.N,GND*%
X114559000Y-62831500D03*
X116953000Y-52283200D03*
X112600000Y-83850000D03*
X117470000Y-62933400D03*
X118065000Y-79145400D03*
X126700000Y-63500000D03*
X118560000Y-52217400D03*
X128800000Y-80400000D03*
X115362000Y-52207900D03*
X112600000Y-80400000D03*
X127441000Y-62831500D03*
X118000000Y-80350000D03*
X113001000Y-52262500D03*
X107200000Y-80400000D03*
X128250000Y-65200000D03*
X129705000Y-83871600D03*
X108300000Y-55800000D03*
X135600000Y-68100000D03*
X133500000Y-59175000D03*
X117770000Y-52165900D03*
X121088000Y-68500000D03*
X112700000Y-68400000D03*
X105400000Y-80400000D03*
X126638000Y-52207900D03*
X113725000Y-61100000D03*
X109000000Y-83850000D03*
X116175000Y-52147100D03*
X110800000Y-80400000D03*
X130600000Y-83900000D03*
X119800000Y-83850000D03*
X122637000Y-52202200D03*
X129846000Y-69243500D03*
X119025000Y-59225000D03*
X136000000Y-83900000D03*
X122975000Y-59225000D03*
X108548000Y-70209300D03*
X108700000Y-68400000D03*
X121000000Y-59225000D03*
X119025000Y-57250000D03*
X109000000Y-80400000D03*
X125825000Y-52147100D03*
X114253000Y-53978200D03*
X129846000Y-71756500D03*
X114538000Y-61887900D03*
X132700000Y-61800000D03*
X136700000Y-55800000D03*
X119363000Y-52202200D03*
X105400000Y-83850000D03*
X116200000Y-83850000D03*
X131699000Y-77675000D03*
X125047000Y-52283200D03*
X131592000Y-57910300D03*
X128800000Y-83850000D03*
X118227000Y-55567900D03*
X114270000Y-53067100D03*
X124763000Y-88017100D03*
X123935000Y-79145400D03*
X127860000Y-88743800D03*
X134366000Y-59081200D03*
X119800000Y-80400000D03*
X121000000Y-57250000D03*
X127746000Y-52220300D03*
X133299000Y-70955500D03*
X124230000Y-52165900D03*
X130750000Y-77800000D03*
X116690000Y-70831800D03*
X122975000Y-55275000D03*
X121821000Y-52130000D03*
X129800000Y-56100000D03*
X125200000Y-83900000D03*
X131500000Y-71550000D03*
X114254000Y-52220300D03*
X127000000Y-80400000D03*
X121000000Y-55275000D03*
X123440000Y-52217400D03*
X131592000Y-57089700D03*
X135600000Y-62800000D03*
X122536801Y-73435404D03*
X134239000Y-77675000D03*
X122975000Y-57250000D03*
X117688000Y-68500000D03*
%TO.N,VBAT*%
X135235500Y-80605000D03*
%TD*%
%TA.AperFunction,Conductor*%
%TO.N,GND*%
G36*
X110971004Y-46329496D02*
G01*
X111000000Y-46399500D01*
X111000000Y-51600000D01*
X114308993Y-51600000D01*
X114378997Y-51628996D01*
X114400000Y-51649999D01*
X114400000Y-51650000D01*
X114400001Y-51650000D01*
X127599999Y-51650000D01*
X127600000Y-51650000D01*
X127600000Y-51649999D01*
X127621003Y-51628996D01*
X127691007Y-51600000D01*
X130999999Y-51600000D01*
X131000000Y-51600000D01*
X131000000Y-50871909D01*
X131699500Y-50871909D01*
X131699500Y-51128090D01*
X131732818Y-51295590D01*
X131738518Y-51324249D01*
X131749477Y-51379341D01*
X131749477Y-51379343D01*
X131847508Y-51616013D01*
X131847514Y-51616025D01*
X131949289Y-51768340D01*
X131989835Y-51829021D01*
X132170979Y-52010165D01*
X132261791Y-52070844D01*
X132383974Y-52152485D01*
X132383986Y-52152491D01*
X132471412Y-52188703D01*
X132620658Y-52250523D01*
X132871912Y-52300500D01*
X132871913Y-52300500D01*
X133128087Y-52300500D01*
X133128088Y-52300500D01*
X133379342Y-52250523D01*
X133616018Y-52152489D01*
X133616020Y-52152487D01*
X133616025Y-52152485D01*
X133677527Y-52111389D01*
X133829021Y-52010165D01*
X134010165Y-51829021D01*
X134129783Y-51650000D01*
X134152485Y-51616025D01*
X134152491Y-51616013D01*
X134159124Y-51599999D01*
X134250523Y-51379342D01*
X134300500Y-51128088D01*
X134300500Y-50871912D01*
X134250523Y-50620658D01*
X134152489Y-50383982D01*
X134152485Y-50383974D01*
X134070844Y-50261791D01*
X134010165Y-50170979D01*
X133829021Y-49989835D01*
X133768340Y-49949289D01*
X133616025Y-49847514D01*
X133616013Y-49847508D01*
X133379342Y-49749477D01*
X133128090Y-49699500D01*
X133128088Y-49699500D01*
X132871912Y-49699500D01*
X132871909Y-49699500D01*
X132620658Y-49749477D01*
X132620656Y-49749477D01*
X132383986Y-49847508D01*
X132383974Y-49847514D01*
X132170979Y-49989835D01*
X132170975Y-49989838D01*
X131989838Y-50170975D01*
X131989835Y-50170979D01*
X131847514Y-50383974D01*
X131847508Y-50383986D01*
X131749477Y-50620656D01*
X131749477Y-50620658D01*
X131699500Y-50871909D01*
X131000000Y-50871909D01*
X131000000Y-46399500D01*
X131028996Y-46329496D01*
X131099000Y-46300500D01*
X136255188Y-46300500D01*
X136325192Y-46329496D01*
X136354188Y-46399500D01*
X136325192Y-46469504D01*
X136323144Y-46471492D01*
X136290279Y-46502496D01*
X136241000Y-46548987D01*
X135958779Y-46916279D01*
X135738419Y-47323685D01*
X135738416Y-47323694D01*
X135585488Y-47760917D01*
X135585486Y-47760922D01*
X135585485Y-47760926D01*
X135503871Y-48216869D01*
X135503870Y-48216871D01*
X135495635Y-48679978D01*
X135495635Y-48679984D01*
X135560990Y-49138551D01*
X135698281Y-49580943D01*
X135777393Y-49740515D01*
X135904022Y-49995934D01*
X136173007Y-50373026D01*
X136173009Y-50373028D01*
X136173012Y-50373032D01*
X136476075Y-50680027D01*
X136498418Y-50702660D01*
X136872011Y-50976484D01*
X136936060Y-51009273D01*
X137168152Y-51128090D01*
X137284319Y-51187560D01*
X137631060Y-51300088D01*
X137688694Y-51349277D01*
X137699500Y-51394253D01*
X137699500Y-88605744D01*
X137670504Y-88675748D01*
X137631060Y-88699909D01*
X137284313Y-88812439D01*
X137284312Y-88812440D01*
X136872015Y-89023512D01*
X136498421Y-89297336D01*
X136498414Y-89297342D01*
X136173008Y-89626970D01*
X135904020Y-90004067D01*
X135698278Y-90419060D01*
X135560989Y-90861447D01*
X135495634Y-91320014D01*
X135495634Y-91320020D01*
X135503869Y-91783128D01*
X135503869Y-91783129D01*
X135503870Y-91783132D01*
X135542984Y-92001647D01*
X135565641Y-92128221D01*
X135585486Y-92239082D01*
X135673936Y-92491960D01*
X135738417Y-92676310D01*
X135958781Y-93083723D01*
X136241000Y-93451012D01*
X136241001Y-93451013D01*
X136241003Y-93451015D01*
X136323124Y-93528488D01*
X136354146Y-93597618D01*
X136327200Y-93668436D01*
X136258070Y-93699458D01*
X136255188Y-93699500D01*
X105744813Y-93699500D01*
X105674809Y-93670504D01*
X105645813Y-93600500D01*
X105674809Y-93530496D01*
X105676877Y-93528488D01*
X105758997Y-93451016D01*
X106041218Y-93083725D01*
X106261585Y-92676306D01*
X106414514Y-92239082D01*
X106496129Y-91783133D01*
X106504365Y-91320009D01*
X106439010Y-90861445D01*
X106301722Y-90419061D01*
X106095979Y-90004066D01*
X105826994Y-89626973D01*
X105501582Y-89297339D01*
X105127989Y-89023515D01*
X105127985Y-89023513D01*
X105127984Y-89023512D01*
X104715687Y-88812440D01*
X104715686Y-88812439D01*
X104368940Y-88699909D01*
X104311306Y-88650720D01*
X104300500Y-88605744D01*
X104300500Y-87495088D01*
X122121100Y-87495088D01*
X122121100Y-87674311D01*
X122189682Y-87839885D01*
X122189683Y-87839886D01*
X122189684Y-87839888D01*
X122316412Y-87966616D01*
X122316413Y-87966616D01*
X122316414Y-87966617D01*
X122481988Y-88035200D01*
X122481990Y-88035200D01*
X122661211Y-88035200D01*
X122765623Y-87991950D01*
X122826788Y-87966616D01*
X122953516Y-87839888D01*
X123022100Y-87674310D01*
X123022100Y-87495090D01*
X123022100Y-87495088D01*
X122953517Y-87329514D01*
X122953516Y-87329513D01*
X122953516Y-87329512D01*
X122826788Y-87202784D01*
X122826786Y-87202783D01*
X122826785Y-87202782D01*
X122661212Y-87134200D01*
X122661210Y-87134200D01*
X122481990Y-87134200D01*
X122481988Y-87134200D01*
X122316414Y-87202782D01*
X122189682Y-87329514D01*
X122121100Y-87495088D01*
X104300500Y-87495088D01*
X104300500Y-85010788D01*
X123849500Y-85010788D01*
X123849500Y-85190011D01*
X123918082Y-85355585D01*
X123918083Y-85355586D01*
X123918084Y-85355588D01*
X124044812Y-85482316D01*
X124044813Y-85482316D01*
X124044814Y-85482317D01*
X124210388Y-85550900D01*
X124210390Y-85550900D01*
X124389611Y-85550900D01*
X124420300Y-85538188D01*
X131743100Y-85538188D01*
X131743100Y-85717411D01*
X131811682Y-85882985D01*
X131811683Y-85882986D01*
X131811684Y-85882988D01*
X131938412Y-86009716D01*
X131938413Y-86009716D01*
X131938414Y-86009717D01*
X132103988Y-86078300D01*
X132103990Y-86078300D01*
X132283211Y-86078300D01*
X132387623Y-86035050D01*
X132448788Y-86009716D01*
X132575516Y-85882988D01*
X132644100Y-85717410D01*
X132644100Y-85538190D01*
X132644100Y-85538188D01*
X132575517Y-85372614D01*
X132575516Y-85372613D01*
X132575516Y-85372612D01*
X132448788Y-85245884D01*
X132448786Y-85245883D01*
X132448785Y-85245882D01*
X132283212Y-85177300D01*
X132283210Y-85177300D01*
X132103990Y-85177300D01*
X132103988Y-85177300D01*
X131938414Y-85245882D01*
X131811682Y-85372614D01*
X131743100Y-85538188D01*
X124420300Y-85538188D01*
X124494023Y-85507650D01*
X124555188Y-85482316D01*
X124681916Y-85355588D01*
X124707250Y-85294423D01*
X124750500Y-85190011D01*
X124750500Y-85010788D01*
X124681917Y-84845214D01*
X124681916Y-84845213D01*
X124681916Y-84845212D01*
X124555188Y-84718484D01*
X124555186Y-84718483D01*
X124555185Y-84718482D01*
X124389612Y-84649900D01*
X124389610Y-84649900D01*
X124210390Y-84649900D01*
X124210388Y-84649900D01*
X124044814Y-84718482D01*
X123918082Y-84845214D01*
X123849500Y-85010788D01*
X104300500Y-85010788D01*
X104300500Y-83870488D01*
X112890600Y-83870488D01*
X112890600Y-84049711D01*
X112959182Y-84215285D01*
X112959183Y-84215286D01*
X112959184Y-84215288D01*
X113085912Y-84342016D01*
X113085913Y-84342016D01*
X113085914Y-84342017D01*
X113251488Y-84410600D01*
X113251490Y-84410600D01*
X113430711Y-84410600D01*
X113535123Y-84367350D01*
X113596288Y-84342016D01*
X113723016Y-84215288D01*
X113744223Y-84164088D01*
X116765900Y-84164088D01*
X116765900Y-84343311D01*
X116834482Y-84508885D01*
X116834483Y-84508886D01*
X116834484Y-84508888D01*
X116961212Y-84635616D01*
X116961213Y-84635616D01*
X116961214Y-84635617D01*
X117126788Y-84704200D01*
X117126790Y-84704200D01*
X117306011Y-84704200D01*
X117437103Y-84649900D01*
X117471588Y-84635616D01*
X117598316Y-84508888D01*
X117666900Y-84343310D01*
X117666900Y-84164090D01*
X117666900Y-84164088D01*
X117598317Y-83998514D01*
X117598316Y-83998513D01*
X117598316Y-83998512D01*
X117471588Y-83871784D01*
X117471586Y-83871783D01*
X117471585Y-83871782D01*
X117306012Y-83803200D01*
X117306010Y-83803200D01*
X117126790Y-83803200D01*
X117126788Y-83803200D01*
X116961214Y-83871782D01*
X116834482Y-83998514D01*
X116765900Y-84164088D01*
X113744223Y-84164088D01*
X113748491Y-84153785D01*
X113763955Y-84116453D01*
X113763955Y-84116452D01*
X113791600Y-84049711D01*
X113791600Y-83870488D01*
X113729758Y-83721188D01*
X120074700Y-83721188D01*
X120074700Y-83900411D01*
X120143282Y-84065985D01*
X120143283Y-84065986D01*
X120143284Y-84065988D01*
X120270012Y-84192716D01*
X120270013Y-84192716D01*
X120270014Y-84192717D01*
X120435588Y-84261300D01*
X120435590Y-84261300D01*
X120614811Y-84261300D01*
X120725901Y-84215285D01*
X120780388Y-84192716D01*
X120907116Y-84065988D01*
X120975700Y-83900410D01*
X120975700Y-83808988D01*
X121272500Y-83808988D01*
X121272500Y-83988211D01*
X121341082Y-84153785D01*
X121341083Y-84153786D01*
X121341084Y-84153788D01*
X121467812Y-84280516D01*
X121467813Y-84280516D01*
X121467814Y-84280517D01*
X121633388Y-84349100D01*
X121633390Y-84349100D01*
X121812611Y-84349100D01*
X121929942Y-84300500D01*
X121978188Y-84280516D01*
X122104916Y-84153788D01*
X122173500Y-83988210D01*
X122173500Y-83808990D01*
X122173500Y-83808989D01*
X122165023Y-83788523D01*
X122165023Y-83788522D01*
X122153369Y-83760388D01*
X126657100Y-83760388D01*
X126657100Y-83939611D01*
X126725682Y-84105185D01*
X126725683Y-84105186D01*
X126725684Y-84105188D01*
X126852412Y-84231916D01*
X126852413Y-84231916D01*
X126852414Y-84231917D01*
X127017988Y-84300500D01*
X127017990Y-84300500D01*
X127197211Y-84300500D01*
X127301623Y-84257250D01*
X127362788Y-84231916D01*
X127489516Y-84105188D01*
X127514850Y-84044023D01*
X127558100Y-83939611D01*
X127558100Y-83760388D01*
X127489517Y-83594814D01*
X127489516Y-83594813D01*
X127489516Y-83594812D01*
X127362788Y-83468084D01*
X127362786Y-83468083D01*
X127362785Y-83468082D01*
X127197212Y-83399500D01*
X127197210Y-83399500D01*
X127017990Y-83399500D01*
X127017988Y-83399500D01*
X126852414Y-83468082D01*
X126725682Y-83594814D01*
X126657100Y-83760388D01*
X122153369Y-83760388D01*
X122104917Y-83643414D01*
X122104916Y-83643413D01*
X122104916Y-83643412D01*
X121978188Y-83516684D01*
X121978186Y-83516683D01*
X121978185Y-83516682D01*
X121812612Y-83448100D01*
X121812610Y-83448100D01*
X121633390Y-83448100D01*
X121633388Y-83448100D01*
X121467814Y-83516682D01*
X121341082Y-83643414D01*
X121272500Y-83808988D01*
X120975700Y-83808988D01*
X120975700Y-83721190D01*
X120975700Y-83721188D01*
X120907117Y-83555614D01*
X120907116Y-83555613D01*
X120907116Y-83555612D01*
X120780388Y-83428884D01*
X120780386Y-83428883D01*
X120780385Y-83428882D01*
X120614812Y-83360300D01*
X120614810Y-83360300D01*
X120435590Y-83360300D01*
X120435588Y-83360300D01*
X120270014Y-83428882D01*
X120143282Y-83555614D01*
X120074700Y-83721188D01*
X113729758Y-83721188D01*
X113723017Y-83704914D01*
X113723016Y-83704913D01*
X113723016Y-83704912D01*
X113596288Y-83578184D01*
X113596286Y-83578183D01*
X113596285Y-83578182D01*
X113430712Y-83509600D01*
X113430710Y-83509600D01*
X113251490Y-83509600D01*
X113251488Y-83509600D01*
X113085914Y-83578182D01*
X112959182Y-83704914D01*
X112890600Y-83870488D01*
X104300500Y-83870488D01*
X104300500Y-83127288D01*
X133989900Y-83127288D01*
X133989900Y-83306511D01*
X134058482Y-83472085D01*
X134058483Y-83472086D01*
X134058484Y-83472088D01*
X134185212Y-83598816D01*
X134185213Y-83598816D01*
X134185214Y-83598817D01*
X134350788Y-83667400D01*
X134350790Y-83667400D01*
X134530011Y-83667400D01*
X134634423Y-83624150D01*
X134695588Y-83598816D01*
X134822316Y-83472088D01*
X134890900Y-83306510D01*
X134890900Y-83127290D01*
X134890900Y-83127288D01*
X134822317Y-82961714D01*
X134822316Y-82961713D01*
X134822316Y-82961712D01*
X134695588Y-82834984D01*
X134695586Y-82834983D01*
X134695585Y-82834982D01*
X134530012Y-82766400D01*
X134530010Y-82766400D01*
X134350790Y-82766400D01*
X134350788Y-82766400D01*
X134185214Y-82834982D01*
X134058482Y-82961714D01*
X133989900Y-83127288D01*
X104300500Y-83127288D01*
X104300500Y-82035488D01*
X124205600Y-82035488D01*
X124205600Y-82214711D01*
X124274182Y-82380285D01*
X124274183Y-82380286D01*
X124274184Y-82380288D01*
X124400912Y-82507016D01*
X124400913Y-82507016D01*
X124400914Y-82507017D01*
X124566488Y-82575600D01*
X124566490Y-82575600D01*
X124745711Y-82575600D01*
X124850123Y-82532350D01*
X124911288Y-82507016D01*
X125038016Y-82380288D01*
X125106600Y-82214710D01*
X125106600Y-82035490D01*
X125106600Y-82035488D01*
X125038017Y-81869914D01*
X125038016Y-81869913D01*
X125038016Y-81869912D01*
X124911288Y-81743184D01*
X124911286Y-81743183D01*
X124911285Y-81743182D01*
X124745712Y-81674600D01*
X124745710Y-81674600D01*
X124566490Y-81674600D01*
X124566488Y-81674600D01*
X124400914Y-81743182D01*
X124274182Y-81869914D01*
X124205600Y-82035488D01*
X104300500Y-82035488D01*
X104300500Y-81264688D01*
X132077500Y-81264688D01*
X132077500Y-81443911D01*
X132146082Y-81609485D01*
X132146083Y-81609486D01*
X132146084Y-81609488D01*
X132272812Y-81736216D01*
X132272813Y-81736216D01*
X132272814Y-81736217D01*
X132438388Y-81804800D01*
X132438390Y-81804800D01*
X132617611Y-81804800D01*
X132722023Y-81761550D01*
X132783188Y-81736216D01*
X132909916Y-81609488D01*
X132978500Y-81443910D01*
X132978500Y-81264690D01*
X132978500Y-81264688D01*
X132909917Y-81099114D01*
X132909916Y-81099113D01*
X132909916Y-81099112D01*
X132783188Y-80972384D01*
X132783186Y-80972383D01*
X132783185Y-80972382D01*
X132617612Y-80903800D01*
X132617610Y-80903800D01*
X132438390Y-80903800D01*
X132438388Y-80903800D01*
X132272814Y-80972382D01*
X132146082Y-81099114D01*
X132077500Y-81264688D01*
X104300500Y-81264688D01*
X104300500Y-80429788D01*
X109703200Y-80429788D01*
X109703200Y-80609011D01*
X109771782Y-80774585D01*
X109771783Y-80774586D01*
X109771784Y-80774588D01*
X109898512Y-80901316D01*
X109898513Y-80901316D01*
X109898514Y-80901317D01*
X110064088Y-80969900D01*
X110064090Y-80969900D01*
X110243311Y-80969900D01*
X110402891Y-80903800D01*
X110408888Y-80901316D01*
X110535616Y-80774588D01*
X110604200Y-80609010D01*
X110604200Y-80429790D01*
X110604199Y-80429788D01*
X110573853Y-80356525D01*
X110573853Y-80356524D01*
X110562199Y-80328388D01*
X114518300Y-80328388D01*
X114518300Y-80507611D01*
X114586882Y-80673185D01*
X114586883Y-80673186D01*
X114586884Y-80673188D01*
X114713612Y-80799916D01*
X114713613Y-80799916D01*
X114713614Y-80799917D01*
X114879188Y-80868500D01*
X114879190Y-80868500D01*
X115058411Y-80868500D01*
X115162823Y-80825250D01*
X115223988Y-80799916D01*
X115350716Y-80673188D01*
X115377299Y-80609010D01*
X115416079Y-80515388D01*
X134785000Y-80515388D01*
X134785000Y-80694611D01*
X134853582Y-80860185D01*
X134853583Y-80860186D01*
X134853584Y-80860188D01*
X134980312Y-80986916D01*
X134980313Y-80986916D01*
X134980314Y-80986917D01*
X135145888Y-81055500D01*
X135145890Y-81055500D01*
X135325111Y-81055500D01*
X135429523Y-81012250D01*
X135490688Y-80986916D01*
X135617416Y-80860188D01*
X135686000Y-80694610D01*
X135686000Y-80515390D01*
X135686000Y-80515388D01*
X135617417Y-80349814D01*
X135617416Y-80349813D01*
X135617416Y-80349812D01*
X135490688Y-80223084D01*
X135490686Y-80223083D01*
X135490685Y-80223082D01*
X135325112Y-80154500D01*
X135325110Y-80154500D01*
X135145890Y-80154500D01*
X135145888Y-80154500D01*
X134980314Y-80223082D01*
X134853582Y-80349814D01*
X134785000Y-80515388D01*
X115416079Y-80515388D01*
X115419300Y-80507611D01*
X115419300Y-80328388D01*
X115350717Y-80162814D01*
X115350716Y-80162813D01*
X115350716Y-80162812D01*
X115223988Y-80036084D01*
X115223986Y-80036083D01*
X115223985Y-80036082D01*
X115058412Y-79967500D01*
X115058410Y-79967500D01*
X114879190Y-79967500D01*
X114879188Y-79967500D01*
X114713614Y-80036082D01*
X114586882Y-80162814D01*
X114518300Y-80328388D01*
X110562199Y-80328388D01*
X110535617Y-80264214D01*
X110535616Y-80264213D01*
X110535616Y-80264212D01*
X110408888Y-80137484D01*
X110408886Y-80137483D01*
X110408885Y-80137482D01*
X110243312Y-80068900D01*
X110243310Y-80068900D01*
X110064090Y-80068900D01*
X110064088Y-80068900D01*
X109898514Y-80137482D01*
X109771782Y-80264214D01*
X109703200Y-80429788D01*
X104300500Y-80429788D01*
X104300500Y-78779688D01*
X113995000Y-78779688D01*
X113995000Y-78958911D01*
X114063582Y-79124485D01*
X114063583Y-79124486D01*
X114063584Y-79124488D01*
X114190312Y-79251216D01*
X114190313Y-79251216D01*
X114190314Y-79251217D01*
X114355888Y-79319800D01*
X114355890Y-79319800D01*
X114535111Y-79319800D01*
X114639523Y-79276550D01*
X114700688Y-79251216D01*
X114827416Y-79124488D01*
X114896000Y-78958910D01*
X114896000Y-78779690D01*
X114896000Y-78779688D01*
X114827417Y-78614114D01*
X114827416Y-78614113D01*
X114827416Y-78614112D01*
X114700688Y-78487384D01*
X114700686Y-78487383D01*
X114700685Y-78487382D01*
X114535112Y-78418800D01*
X114535110Y-78418800D01*
X114355890Y-78418800D01*
X114355888Y-78418800D01*
X114190314Y-78487382D01*
X114063582Y-78614114D01*
X113995000Y-78779688D01*
X104300500Y-78779688D01*
X104300500Y-78184988D01*
X115016400Y-78184988D01*
X115016400Y-78364211D01*
X115084982Y-78529785D01*
X115084983Y-78529786D01*
X115084984Y-78529788D01*
X115211712Y-78656516D01*
X115211713Y-78656516D01*
X115211714Y-78656517D01*
X115377288Y-78725100D01*
X115377290Y-78725100D01*
X115556511Y-78725100D01*
X115660923Y-78681850D01*
X115722088Y-78656516D01*
X115848816Y-78529788D01*
X115917400Y-78364210D01*
X115917400Y-78184990D01*
X115917400Y-78184988D01*
X115848817Y-78019414D01*
X115848816Y-78019413D01*
X115848816Y-78019412D01*
X115722088Y-77892684D01*
X115722086Y-77892683D01*
X115722085Y-77892682D01*
X115556512Y-77824100D01*
X115556510Y-77824100D01*
X115377290Y-77824100D01*
X115377288Y-77824100D01*
X115211714Y-77892682D01*
X115084982Y-78019414D01*
X115016400Y-78184988D01*
X104300500Y-78184988D01*
X104300500Y-75935388D01*
X116141100Y-75935388D01*
X116141100Y-76114611D01*
X116209682Y-76280185D01*
X116209683Y-76280186D01*
X116209684Y-76280188D01*
X116336412Y-76406916D01*
X116336413Y-76406916D01*
X116336414Y-76406917D01*
X116501988Y-76475500D01*
X116501990Y-76475500D01*
X116681211Y-76475500D01*
X116785623Y-76432250D01*
X116846788Y-76406916D01*
X116973516Y-76280188D01*
X117042100Y-76114610D01*
X117042100Y-75935390D01*
X117042100Y-75935388D01*
X116973517Y-75769814D01*
X116973516Y-75769813D01*
X116973516Y-75769812D01*
X116874092Y-75670388D01*
X119328400Y-75670388D01*
X119328400Y-75849611D01*
X119396982Y-76015185D01*
X119396983Y-76015186D01*
X119396984Y-76015188D01*
X119523712Y-76141916D01*
X119523713Y-76141916D01*
X119523714Y-76141917D01*
X119689288Y-76210500D01*
X119689290Y-76210500D01*
X119868511Y-76210500D01*
X119972923Y-76167250D01*
X120034088Y-76141916D01*
X120160816Y-76015188D01*
X120229400Y-75849610D01*
X120229400Y-75670390D01*
X120229400Y-75670388D01*
X120160817Y-75504814D01*
X120160816Y-75504813D01*
X120160816Y-75504812D01*
X120034088Y-75378084D01*
X120034086Y-75378083D01*
X120034085Y-75378082D01*
X119868512Y-75309500D01*
X119868510Y-75309500D01*
X119689290Y-75309500D01*
X119689288Y-75309500D01*
X119523714Y-75378082D01*
X119396982Y-75504814D01*
X119328400Y-75670388D01*
X116874092Y-75670388D01*
X116846788Y-75643084D01*
X116846786Y-75643083D01*
X116846785Y-75643082D01*
X116681212Y-75574500D01*
X116681210Y-75574500D01*
X116501990Y-75574500D01*
X116501988Y-75574500D01*
X116336414Y-75643082D01*
X116209682Y-75769814D01*
X116141100Y-75935388D01*
X104300500Y-75935388D01*
X104300500Y-73211288D01*
X113898600Y-73211288D01*
X113898600Y-73390511D01*
X113967182Y-73556085D01*
X113967183Y-73556086D01*
X113967184Y-73556088D01*
X114093912Y-73682816D01*
X114093913Y-73682816D01*
X114093914Y-73682817D01*
X114259488Y-73751400D01*
X114259490Y-73751400D01*
X114438711Y-73751400D01*
X114543123Y-73708150D01*
X114604288Y-73682816D01*
X114731016Y-73556088D01*
X114756350Y-73494923D01*
X114799600Y-73390511D01*
X114799600Y-73211288D01*
X114731017Y-73045714D01*
X114731016Y-73045713D01*
X114731016Y-73045712D01*
X114609700Y-72924396D01*
X122844200Y-72924396D01*
X122844200Y-73107604D01*
X122891618Y-73284569D01*
X122983221Y-73443231D01*
X123112769Y-73572779D01*
X123271431Y-73664382D01*
X123448396Y-73711800D01*
X123448397Y-73711800D01*
X123631603Y-73711800D01*
X123631604Y-73711800D01*
X123808569Y-73664382D01*
X123967231Y-73572779D01*
X124096779Y-73443231D01*
X124188382Y-73284569D01*
X124235800Y-73107604D01*
X124235800Y-72924396D01*
X124188382Y-72747431D01*
X124096779Y-72588769D01*
X123967231Y-72459221D01*
X123808569Y-72367618D01*
X123631604Y-72320200D01*
X123448396Y-72320200D01*
X123271431Y-72367618D01*
X123112769Y-72459221D01*
X122983221Y-72588769D01*
X122891618Y-72747431D01*
X122844200Y-72924396D01*
X114609700Y-72924396D01*
X114604288Y-72918984D01*
X114604286Y-72918983D01*
X114604285Y-72918982D01*
X114438712Y-72850400D01*
X114438710Y-72850400D01*
X114259490Y-72850400D01*
X114259488Y-72850400D01*
X114093914Y-72918982D01*
X113967182Y-73045714D01*
X113898600Y-73211288D01*
X104300500Y-73211288D01*
X104300500Y-71908396D01*
X117764200Y-71908396D01*
X117764200Y-72091604D01*
X117811618Y-72268569D01*
X117903221Y-72427231D01*
X118032769Y-72556779D01*
X118191431Y-72648382D01*
X118368396Y-72695800D01*
X118368397Y-72695800D01*
X118551603Y-72695800D01*
X118551604Y-72695800D01*
X118728569Y-72648382D01*
X118887231Y-72556779D01*
X119016779Y-72427231D01*
X119108382Y-72268569D01*
X119155800Y-72091604D01*
X119155800Y-71908396D01*
X119108382Y-71731431D01*
X119016779Y-71572769D01*
X118887231Y-71443221D01*
X118728569Y-71351618D01*
X118551604Y-71304200D01*
X118368396Y-71304200D01*
X118191431Y-71351618D01*
X118032769Y-71443221D01*
X117903221Y-71572769D01*
X117811618Y-71731431D01*
X117764200Y-71908396D01*
X104300500Y-71908396D01*
X104300500Y-70395988D01*
X119098700Y-70395988D01*
X119098700Y-70575211D01*
X119167282Y-70740785D01*
X119167283Y-70740786D01*
X119167284Y-70740788D01*
X119294012Y-70867516D01*
X119294013Y-70867516D01*
X119294014Y-70867517D01*
X119459588Y-70936100D01*
X119459590Y-70936100D01*
X119638811Y-70936100D01*
X119744322Y-70892396D01*
X122844200Y-70892396D01*
X122844200Y-71075604D01*
X122891618Y-71252569D01*
X122983221Y-71411231D01*
X123112769Y-71540779D01*
X123271431Y-71632382D01*
X123448396Y-71679800D01*
X123448397Y-71679800D01*
X123631603Y-71679800D01*
X123631604Y-71679800D01*
X123808569Y-71632382D01*
X123826572Y-71621988D01*
X128538800Y-71621988D01*
X128538800Y-71801211D01*
X128607382Y-71966785D01*
X128607383Y-71966786D01*
X128607384Y-71966788D01*
X128734112Y-72093516D01*
X128734113Y-72093516D01*
X128734114Y-72093517D01*
X128899688Y-72162100D01*
X128899690Y-72162100D01*
X129078911Y-72162100D01*
X129183323Y-72118850D01*
X129244488Y-72093516D01*
X129371216Y-71966788D01*
X129439800Y-71801210D01*
X129439800Y-71621990D01*
X129439800Y-71621988D01*
X129371217Y-71456414D01*
X129371216Y-71456413D01*
X129371216Y-71456412D01*
X129244488Y-71329684D01*
X129244486Y-71329683D01*
X129244485Y-71329682D01*
X129078912Y-71261100D01*
X129078910Y-71261100D01*
X128899690Y-71261100D01*
X128899688Y-71261100D01*
X128734114Y-71329682D01*
X128607382Y-71456414D01*
X128538800Y-71621988D01*
X123826572Y-71621988D01*
X123967231Y-71540779D01*
X124096779Y-71411231D01*
X124188382Y-71252569D01*
X124235800Y-71075604D01*
X124235800Y-70892396D01*
X124188382Y-70715431D01*
X124096779Y-70556769D01*
X123967231Y-70427221D01*
X123808569Y-70335618D01*
X123631604Y-70288200D01*
X123448396Y-70288200D01*
X123271431Y-70335618D01*
X123112769Y-70427221D01*
X122983221Y-70556769D01*
X122891618Y-70715431D01*
X122844200Y-70892396D01*
X119744322Y-70892396D01*
X119804388Y-70867516D01*
X119931116Y-70740788D01*
X119999700Y-70575210D01*
X119999700Y-70395990D01*
X119999700Y-70395988D01*
X119931117Y-70230414D01*
X119931116Y-70230413D01*
X119931116Y-70230412D01*
X119804388Y-70103684D01*
X119804386Y-70103683D01*
X119804385Y-70103682D01*
X119723317Y-70070103D01*
X119723316Y-70070103D01*
X119638811Y-70035100D01*
X119638810Y-70035100D01*
X119459590Y-70035100D01*
X119459588Y-70035100D01*
X119294014Y-70103682D01*
X119167282Y-70230414D01*
X119098700Y-70395988D01*
X104300500Y-70395988D01*
X104300500Y-69988388D01*
X120226900Y-69988388D01*
X120226900Y-70167611D01*
X120295482Y-70333185D01*
X120295483Y-70333186D01*
X120295484Y-70333188D01*
X120422212Y-70459916D01*
X120422213Y-70459916D01*
X120422214Y-70459917D01*
X120587788Y-70528500D01*
X120587790Y-70528500D01*
X120767011Y-70528500D01*
X120871423Y-70485250D01*
X120932588Y-70459916D01*
X121059316Y-70333188D01*
X121127900Y-70167610D01*
X121127900Y-69988390D01*
X121127900Y-69988388D01*
X121059317Y-69822814D01*
X121059316Y-69822813D01*
X121059316Y-69822812D01*
X120932588Y-69696084D01*
X120932586Y-69696083D01*
X120932585Y-69696082D01*
X120767012Y-69627500D01*
X120767010Y-69627500D01*
X120587790Y-69627500D01*
X120587788Y-69627500D01*
X120422214Y-69696082D01*
X120295482Y-69822814D01*
X120226900Y-69988388D01*
X104300500Y-69988388D01*
X104300500Y-69257688D01*
X106871400Y-69257688D01*
X106871400Y-69436911D01*
X106939982Y-69602485D01*
X106939983Y-69602486D01*
X106939984Y-69602488D01*
X107066712Y-69729216D01*
X107066713Y-69729216D01*
X107066714Y-69729217D01*
X107232288Y-69797800D01*
X107232290Y-69797800D01*
X107411511Y-69797800D01*
X107515923Y-69754550D01*
X107577088Y-69729216D01*
X107703816Y-69602488D01*
X107772400Y-69436910D01*
X107772400Y-69431888D01*
X111663100Y-69431888D01*
X111663100Y-69611111D01*
X111731682Y-69776685D01*
X111731683Y-69776686D01*
X111731684Y-69776688D01*
X111858412Y-69903416D01*
X111858413Y-69903416D01*
X111858414Y-69903417D01*
X112023988Y-69972000D01*
X112023990Y-69972000D01*
X112203211Y-69972000D01*
X112307623Y-69928750D01*
X112368788Y-69903416D01*
X112495516Y-69776688D01*
X112564100Y-69611110D01*
X112564100Y-69431890D01*
X112564100Y-69431888D01*
X112495517Y-69266314D01*
X112495516Y-69266313D01*
X112495516Y-69266312D01*
X112368788Y-69139584D01*
X112368786Y-69139583D01*
X112368785Y-69139582D01*
X112203212Y-69071000D01*
X112203210Y-69071000D01*
X112023990Y-69071000D01*
X112023988Y-69071000D01*
X111858414Y-69139582D01*
X111731682Y-69266314D01*
X111663100Y-69431888D01*
X107772400Y-69431888D01*
X107772400Y-69257690D01*
X107772400Y-69257688D01*
X107703817Y-69092114D01*
X107703816Y-69092113D01*
X107703816Y-69092112D01*
X107577088Y-68965384D01*
X107577086Y-68965383D01*
X107577085Y-68965382D01*
X107411512Y-68896800D01*
X107411510Y-68896800D01*
X107232290Y-68896800D01*
X107232288Y-68896800D01*
X107066714Y-68965382D01*
X106939982Y-69092114D01*
X106871400Y-69257688D01*
X104300500Y-69257688D01*
X104300500Y-66062488D01*
X124584200Y-66062488D01*
X124584200Y-66241711D01*
X124652782Y-66407285D01*
X124652783Y-66407286D01*
X124652784Y-66407288D01*
X124779512Y-66534016D01*
X124779513Y-66534016D01*
X124779514Y-66534017D01*
X124945088Y-66602600D01*
X124945090Y-66602600D01*
X125124311Y-66602600D01*
X125228723Y-66559350D01*
X125289888Y-66534016D01*
X125416616Y-66407288D01*
X125442748Y-66344200D01*
X125485200Y-66241711D01*
X125485200Y-66062488D01*
X125416617Y-65896914D01*
X125416616Y-65896913D01*
X125416616Y-65896912D01*
X125323792Y-65804088D01*
X132307200Y-65804088D01*
X132307200Y-65983311D01*
X132375782Y-66148885D01*
X132375783Y-66148886D01*
X132375784Y-66148888D01*
X132502512Y-66275616D01*
X132502513Y-66275616D01*
X132502514Y-66275617D01*
X132668088Y-66344200D01*
X132668090Y-66344200D01*
X132847311Y-66344200D01*
X132951723Y-66300950D01*
X133012888Y-66275616D01*
X133139616Y-66148888D01*
X133205505Y-65989817D01*
X133208200Y-65983311D01*
X133208200Y-65804088D01*
X133139617Y-65638514D01*
X133139616Y-65638513D01*
X133139616Y-65638512D01*
X133012888Y-65511784D01*
X133012886Y-65511783D01*
X133012885Y-65511782D01*
X132847312Y-65443200D01*
X132847310Y-65443200D01*
X132668090Y-65443200D01*
X132668088Y-65443200D01*
X132502514Y-65511782D01*
X132375782Y-65638514D01*
X132307200Y-65804088D01*
X125323792Y-65804088D01*
X125289888Y-65770184D01*
X125289886Y-65770183D01*
X125289885Y-65770182D01*
X125124312Y-65701600D01*
X125124310Y-65701600D01*
X124945090Y-65701600D01*
X124945088Y-65701600D01*
X124779514Y-65770182D01*
X124652782Y-65896914D01*
X124584200Y-66062488D01*
X104300500Y-66062488D01*
X104300500Y-65518288D01*
X116092000Y-65518288D01*
X116092000Y-65697511D01*
X116160582Y-65863085D01*
X116160583Y-65863086D01*
X116160584Y-65863088D01*
X116287312Y-65989816D01*
X116287313Y-65989816D01*
X116287314Y-65989817D01*
X116452888Y-66058400D01*
X116452890Y-66058400D01*
X116632111Y-66058400D01*
X116736523Y-66015150D01*
X116797688Y-65989816D01*
X116924416Y-65863088D01*
X116993000Y-65697510D01*
X116993000Y-65518290D01*
X116993000Y-65518288D01*
X116924417Y-65352714D01*
X116924416Y-65352713D01*
X116924416Y-65352712D01*
X116797688Y-65225984D01*
X116797686Y-65225983D01*
X116797685Y-65225982D01*
X116632112Y-65157400D01*
X116632110Y-65157400D01*
X116452890Y-65157400D01*
X116452888Y-65157400D01*
X116287314Y-65225982D01*
X116160582Y-65352714D01*
X116092000Y-65518288D01*
X104300500Y-65518288D01*
X104300500Y-63508888D01*
X127186700Y-63508888D01*
X127186700Y-63688111D01*
X127255282Y-63853685D01*
X127255283Y-63853686D01*
X127255284Y-63853688D01*
X127382012Y-63980416D01*
X127382013Y-63980416D01*
X127382014Y-63980417D01*
X127547588Y-64049000D01*
X127547590Y-64049000D01*
X127726811Y-64049000D01*
X127831223Y-64005750D01*
X127892388Y-63980416D01*
X128019116Y-63853688D01*
X128087700Y-63688110D01*
X128087700Y-63508890D01*
X128087700Y-63508888D01*
X128019117Y-63343314D01*
X128019116Y-63343313D01*
X128019116Y-63343312D01*
X127892388Y-63216584D01*
X127892386Y-63216583D01*
X127892385Y-63216582D01*
X127726812Y-63148000D01*
X127726810Y-63148000D01*
X127547590Y-63148000D01*
X127547588Y-63148000D01*
X127382014Y-63216582D01*
X127255282Y-63343314D01*
X127186700Y-63508888D01*
X104300500Y-63508888D01*
X104300500Y-60540088D01*
X116094200Y-60540088D01*
X116094200Y-60719311D01*
X116162782Y-60884885D01*
X116162783Y-60884886D01*
X116162784Y-60884888D01*
X116289512Y-61011616D01*
X116289513Y-61011616D01*
X116289514Y-61011617D01*
X116455088Y-61080200D01*
X116455090Y-61080200D01*
X116634311Y-61080200D01*
X116662839Y-61068383D01*
X116738610Y-61068381D01*
X116792189Y-61121959D01*
X116792190Y-61121961D01*
X116842982Y-61244585D01*
X116842983Y-61244586D01*
X116842984Y-61244588D01*
X116969712Y-61371316D01*
X116969713Y-61371316D01*
X116969714Y-61371317D01*
X117135288Y-61439900D01*
X117135290Y-61439900D01*
X117314511Y-61439900D01*
X117418923Y-61396650D01*
X117480088Y-61371316D01*
X117606816Y-61244588D01*
X117646902Y-61147811D01*
X117675400Y-61079011D01*
X117675400Y-60968588D01*
X122986700Y-60968588D01*
X122986700Y-61147811D01*
X123055282Y-61313385D01*
X123055283Y-61313386D01*
X123055284Y-61313388D01*
X123182012Y-61440116D01*
X123182013Y-61440116D01*
X123182014Y-61440117D01*
X123347588Y-61508700D01*
X123347590Y-61508700D01*
X123526811Y-61508700D01*
X123631223Y-61465450D01*
X123692388Y-61440116D01*
X123819116Y-61313388D01*
X123887700Y-61147810D01*
X123887700Y-60968590D01*
X123887700Y-60968588D01*
X123819117Y-60803014D01*
X123819116Y-60803013D01*
X123819116Y-60803012D01*
X123692388Y-60676284D01*
X123692386Y-60676283D01*
X123692385Y-60676282D01*
X123526812Y-60607700D01*
X123526810Y-60607700D01*
X123347590Y-60607700D01*
X123347588Y-60607700D01*
X123182014Y-60676282D01*
X123055282Y-60803014D01*
X122986700Y-60968588D01*
X117675400Y-60968588D01*
X117675400Y-60899788D01*
X117606817Y-60734214D01*
X117606816Y-60734213D01*
X117606816Y-60734212D01*
X117480088Y-60607484D01*
X117480086Y-60607483D01*
X117480085Y-60607482D01*
X117314512Y-60538900D01*
X117314510Y-60538900D01*
X117135290Y-60538900D01*
X117135289Y-60538900D01*
X117106757Y-60550718D01*
X117030986Y-60550717D01*
X116977409Y-60497138D01*
X116926617Y-60374514D01*
X116926616Y-60374513D01*
X116926616Y-60374512D01*
X116799888Y-60247784D01*
X116799886Y-60247783D01*
X116799885Y-60247782D01*
X116713988Y-60212203D01*
X116713987Y-60212202D01*
X116634312Y-60179200D01*
X116634310Y-60179200D01*
X116455090Y-60179200D01*
X116455088Y-60179200D01*
X116289514Y-60247782D01*
X116162782Y-60374514D01*
X116094200Y-60540088D01*
X104300500Y-60540088D01*
X104300500Y-60130488D01*
X124926600Y-60130488D01*
X124926600Y-60309711D01*
X124995182Y-60475285D01*
X124995183Y-60475286D01*
X124995184Y-60475288D01*
X125121912Y-60602016D01*
X125121913Y-60602016D01*
X125121914Y-60602017D01*
X125287488Y-60670600D01*
X125287490Y-60670600D01*
X125466711Y-60670600D01*
X125618565Y-60607700D01*
X125632288Y-60602016D01*
X125759016Y-60475288D01*
X125783827Y-60415388D01*
X127328100Y-60415388D01*
X127328100Y-60594611D01*
X127396682Y-60760185D01*
X127396683Y-60760186D01*
X127396684Y-60760188D01*
X127523412Y-60886916D01*
X127523413Y-60886916D01*
X127523414Y-60886917D01*
X127688988Y-60955500D01*
X127688990Y-60955500D01*
X127868211Y-60955500D01*
X128002712Y-60899788D01*
X128033788Y-60886916D01*
X128160516Y-60760188D01*
X128223678Y-60607700D01*
X128229100Y-60594611D01*
X128229100Y-60415388D01*
X128160517Y-60249814D01*
X128160516Y-60249813D01*
X128160516Y-60249812D01*
X128033788Y-60123084D01*
X128033786Y-60123083D01*
X128033785Y-60123082D01*
X127868212Y-60054500D01*
X127868210Y-60054500D01*
X127688990Y-60054500D01*
X127688988Y-60054500D01*
X127523414Y-60123082D01*
X127396682Y-60249814D01*
X127328100Y-60415388D01*
X125783827Y-60415388D01*
X125800758Y-60374514D01*
X125803558Y-60367754D01*
X125803558Y-60367753D01*
X125827600Y-60309710D01*
X125827600Y-60130488D01*
X125759017Y-59964914D01*
X125759016Y-59964913D01*
X125759016Y-59964912D01*
X125632288Y-59838184D01*
X125632286Y-59838183D01*
X125632285Y-59838182D01*
X125466712Y-59769600D01*
X125466710Y-59769600D01*
X125287490Y-59769600D01*
X125287488Y-59769600D01*
X125121914Y-59838182D01*
X124995182Y-59964914D01*
X124926600Y-60130488D01*
X104300500Y-60130488D01*
X104300500Y-58963688D01*
X109204500Y-58963688D01*
X109204500Y-59142911D01*
X109273082Y-59308485D01*
X109273083Y-59308486D01*
X109273084Y-59308488D01*
X109399812Y-59435216D01*
X109399813Y-59435216D01*
X109399814Y-59435217D01*
X109565388Y-59503800D01*
X109565390Y-59503800D01*
X109744611Y-59503800D01*
X109849023Y-59460550D01*
X109910188Y-59435216D01*
X110036916Y-59308488D01*
X110104184Y-59146088D01*
X117298900Y-59146088D01*
X117298900Y-59325311D01*
X117367482Y-59490885D01*
X117367483Y-59490886D01*
X117367484Y-59490888D01*
X117494212Y-59617616D01*
X117494213Y-59617616D01*
X117494214Y-59617617D01*
X117659788Y-59686200D01*
X117659790Y-59686200D01*
X117839011Y-59686200D01*
X117943423Y-59642950D01*
X118004588Y-59617616D01*
X118131316Y-59490888D01*
X118199900Y-59325310D01*
X118199900Y-59173888D01*
X130023800Y-59173888D01*
X130023800Y-59353111D01*
X130092382Y-59518685D01*
X130092383Y-59518686D01*
X130092384Y-59518688D01*
X130219112Y-59645416D01*
X130219113Y-59645416D01*
X130219114Y-59645417D01*
X130384688Y-59714000D01*
X130384690Y-59714000D01*
X130563911Y-59714000D01*
X130668323Y-59670750D01*
X130729488Y-59645416D01*
X130856216Y-59518688D01*
X130881550Y-59457523D01*
X130924800Y-59353111D01*
X130924800Y-59173888D01*
X130856217Y-59008314D01*
X130856216Y-59008313D01*
X130856216Y-59008312D01*
X130729488Y-58881584D01*
X130729486Y-58881583D01*
X130729485Y-58881582D01*
X130563912Y-58813000D01*
X130563910Y-58813000D01*
X130384690Y-58813000D01*
X130384688Y-58813000D01*
X130219114Y-58881582D01*
X130092382Y-59008314D01*
X130023800Y-59173888D01*
X118199900Y-59173888D01*
X118199900Y-59146090D01*
X118199900Y-59146088D01*
X118131317Y-58980514D01*
X118131316Y-58980513D01*
X118131316Y-58980512D01*
X118004588Y-58853784D01*
X118004586Y-58853783D01*
X118004585Y-58853782D01*
X117839012Y-58785200D01*
X117839010Y-58785200D01*
X117659790Y-58785200D01*
X117659788Y-58785200D01*
X117494214Y-58853782D01*
X117367482Y-58980514D01*
X117298900Y-59146088D01*
X110104184Y-59146088D01*
X110105500Y-59142910D01*
X110105500Y-58963690D01*
X110105500Y-58963688D01*
X110036917Y-58798114D01*
X110036916Y-58798113D01*
X110036916Y-58798112D01*
X109910188Y-58671384D01*
X109910186Y-58671383D01*
X109910185Y-58671382D01*
X109744612Y-58602800D01*
X109744610Y-58602800D01*
X109565390Y-58602800D01*
X109565388Y-58602800D01*
X109399814Y-58671382D01*
X109273082Y-58798114D01*
X109204500Y-58963688D01*
X104300500Y-58963688D01*
X104300500Y-57327988D01*
X123726000Y-57327988D01*
X123726000Y-57507211D01*
X123794582Y-57672785D01*
X123794583Y-57672786D01*
X123794584Y-57672788D01*
X123921312Y-57799516D01*
X123921313Y-57799516D01*
X123921314Y-57799517D01*
X124086888Y-57868100D01*
X124086890Y-57868100D01*
X124266111Y-57868100D01*
X124370523Y-57824850D01*
X124431688Y-57799516D01*
X124558416Y-57672788D01*
X124623893Y-57514711D01*
X124627000Y-57507211D01*
X124627000Y-57327988D01*
X124625098Y-57318425D01*
X124628822Y-57317684D01*
X124628819Y-57256618D01*
X124682395Y-57203038D01*
X124720285Y-57195500D01*
X124882711Y-57195500D01*
X124987123Y-57152250D01*
X125048288Y-57126916D01*
X125114816Y-57060388D01*
X128376100Y-57060388D01*
X128376100Y-57239611D01*
X128444682Y-57405185D01*
X128444683Y-57405186D01*
X128444684Y-57405188D01*
X128571412Y-57531916D01*
X128571413Y-57531916D01*
X128571414Y-57531917D01*
X128736988Y-57600500D01*
X128736990Y-57600500D01*
X128916211Y-57600500D01*
X129020623Y-57557250D01*
X129081788Y-57531916D01*
X129208516Y-57405188D01*
X129237386Y-57335490D01*
X129237387Y-57335488D01*
X133474800Y-57335488D01*
X133474800Y-57514711D01*
X133543382Y-57680285D01*
X133543383Y-57680286D01*
X133543384Y-57680288D01*
X133670112Y-57807016D01*
X133670113Y-57807016D01*
X133670114Y-57807017D01*
X133835688Y-57875600D01*
X133835690Y-57875600D01*
X134014911Y-57875600D01*
X134119323Y-57832350D01*
X134180488Y-57807016D01*
X134307216Y-57680288D01*
X134375800Y-57514710D01*
X134375800Y-57335490D01*
X134375800Y-57335488D01*
X134307217Y-57169914D01*
X134307216Y-57169913D01*
X134307216Y-57169912D01*
X134180488Y-57043184D01*
X134180486Y-57043183D01*
X134180485Y-57043182D01*
X134014912Y-56974600D01*
X134014910Y-56974600D01*
X133835690Y-56974600D01*
X133835688Y-56974600D01*
X133670114Y-57043182D01*
X133543382Y-57169914D01*
X133474800Y-57335488D01*
X129237387Y-57335488D01*
X129257118Y-57287853D01*
X129257118Y-57287852D01*
X129277099Y-57239612D01*
X129277100Y-57239612D01*
X129277100Y-57060388D01*
X129208517Y-56894814D01*
X129208516Y-56894813D01*
X129208516Y-56894812D01*
X129081788Y-56768084D01*
X129081786Y-56768083D01*
X129081785Y-56768082D01*
X128916212Y-56699500D01*
X128916210Y-56699500D01*
X128736990Y-56699500D01*
X128736988Y-56699500D01*
X128571414Y-56768082D01*
X128444682Y-56894814D01*
X128376100Y-57060388D01*
X125114816Y-57060388D01*
X125175016Y-57000188D01*
X125239638Y-56844175D01*
X125243600Y-56834611D01*
X125243600Y-56655388D01*
X125175017Y-56489814D01*
X125175016Y-56489813D01*
X125175016Y-56489812D01*
X125129992Y-56444788D01*
X127364000Y-56444788D01*
X127364000Y-56624011D01*
X127432582Y-56789585D01*
X127432583Y-56789586D01*
X127432584Y-56789588D01*
X127559312Y-56916316D01*
X127559313Y-56916316D01*
X127559314Y-56916317D01*
X127724888Y-56984900D01*
X127724890Y-56984900D01*
X127904111Y-56984900D01*
X127966218Y-56959175D01*
X128043898Y-56926998D01*
X128069688Y-56916316D01*
X128196416Y-56789588D01*
X128265000Y-56624010D01*
X128265000Y-56444790D01*
X128265000Y-56444788D01*
X128196417Y-56279214D01*
X128196416Y-56279213D01*
X128196416Y-56279212D01*
X128069688Y-56152484D01*
X128069686Y-56152483D01*
X128069685Y-56152482D01*
X127904112Y-56083900D01*
X127904110Y-56083900D01*
X127724890Y-56083900D01*
X127724888Y-56083900D01*
X127559314Y-56152482D01*
X127432582Y-56279214D01*
X127364000Y-56444788D01*
X125129992Y-56444788D01*
X125048288Y-56363084D01*
X125048286Y-56363083D01*
X125048285Y-56363082D01*
X124882712Y-56294500D01*
X124882710Y-56294500D01*
X124716784Y-56294500D01*
X124646780Y-56265504D01*
X124617784Y-56195500D01*
X124625320Y-56157614D01*
X124641600Y-56118310D01*
X124641600Y-55939088D01*
X124573017Y-55773514D01*
X124573016Y-55773513D01*
X124573016Y-55773512D01*
X124446288Y-55646784D01*
X124446286Y-55646783D01*
X124446285Y-55646782D01*
X124280712Y-55578200D01*
X124280710Y-55578200D01*
X124101490Y-55578200D01*
X124101488Y-55578200D01*
X123935914Y-55646782D01*
X123809182Y-55773514D01*
X123740600Y-55939088D01*
X123740600Y-56118311D01*
X123809182Y-56283885D01*
X123809183Y-56283886D01*
X123809184Y-56283888D01*
X123935912Y-56410616D01*
X123935913Y-56410616D01*
X123935914Y-56410617D01*
X124101488Y-56479200D01*
X124267416Y-56479200D01*
X124337420Y-56508196D01*
X124366416Y-56578200D01*
X124358880Y-56616086D01*
X124342600Y-56655389D01*
X124342600Y-56834612D01*
X124344502Y-56844175D01*
X124340777Y-56844915D01*
X124340781Y-56905982D01*
X124287205Y-56959562D01*
X124249315Y-56967100D01*
X124086888Y-56967100D01*
X123921314Y-57035682D01*
X123794582Y-57162414D01*
X123726000Y-57327988D01*
X104300500Y-57327988D01*
X104300500Y-55861588D01*
X111268300Y-55861588D01*
X111268300Y-56040811D01*
X111336882Y-56206385D01*
X111336883Y-56206386D01*
X111336884Y-56206388D01*
X111463612Y-56333116D01*
X111463613Y-56333116D01*
X111463614Y-56333117D01*
X111629188Y-56401700D01*
X111629190Y-56401700D01*
X111808411Y-56401700D01*
X111912823Y-56358450D01*
X111973988Y-56333116D01*
X112100716Y-56206388D01*
X112169300Y-56040810D01*
X112169300Y-56015388D01*
X115474200Y-56015388D01*
X115474200Y-56194611D01*
X115542782Y-56360185D01*
X115542783Y-56360186D01*
X115542784Y-56360188D01*
X115669512Y-56486916D01*
X115669513Y-56486916D01*
X115669514Y-56486917D01*
X115835088Y-56555500D01*
X115835090Y-56555500D01*
X116014311Y-56555500D01*
X116128513Y-56508196D01*
X116179888Y-56486916D01*
X116306616Y-56360188D01*
X116345835Y-56265504D01*
X116375200Y-56194611D01*
X116375200Y-56015388D01*
X116306617Y-55849814D01*
X116306616Y-55849813D01*
X116306616Y-55849812D01*
X116179888Y-55723084D01*
X116179886Y-55723083D01*
X116179885Y-55723082D01*
X116014312Y-55654500D01*
X116014310Y-55654500D01*
X115835090Y-55654500D01*
X115835088Y-55654500D01*
X115669514Y-55723082D01*
X115542782Y-55849814D01*
X115474200Y-56015388D01*
X112169300Y-56015388D01*
X112169300Y-55861590D01*
X112169300Y-55861588D01*
X112100717Y-55696014D01*
X112100716Y-55696013D01*
X112100716Y-55696012D01*
X111973988Y-55569284D01*
X111973986Y-55569283D01*
X111973985Y-55569282D01*
X111808412Y-55500700D01*
X111808410Y-55500700D01*
X111629190Y-55500700D01*
X111629188Y-55500700D01*
X111463614Y-55569282D01*
X111336882Y-55696014D01*
X111268300Y-55861588D01*
X104300500Y-55861588D01*
X104300500Y-54210688D01*
X132082200Y-54210688D01*
X132082200Y-54389911D01*
X132150782Y-54555485D01*
X132150783Y-54555486D01*
X132150784Y-54555488D01*
X132277512Y-54682216D01*
X132277513Y-54682216D01*
X132277514Y-54682217D01*
X132443088Y-54750800D01*
X132443090Y-54750800D01*
X132622311Y-54750800D01*
X132726723Y-54707550D01*
X132787888Y-54682216D01*
X132914616Y-54555488D01*
X132983200Y-54389910D01*
X132983200Y-54210690D01*
X132983200Y-54210688D01*
X132914617Y-54045114D01*
X132914616Y-54045113D01*
X132914616Y-54045112D01*
X132787888Y-53918384D01*
X132787886Y-53918383D01*
X132787885Y-53918382D01*
X132622312Y-53849800D01*
X132622310Y-53849800D01*
X132443090Y-53849800D01*
X132443088Y-53849800D01*
X132277514Y-53918382D01*
X132150782Y-54045114D01*
X132082200Y-54210688D01*
X104300500Y-54210688D01*
X104300500Y-51394253D01*
X104329496Y-51324249D01*
X104368940Y-51300088D01*
X104715681Y-51187560D01*
X105127989Y-50976484D01*
X105270666Y-50871909D01*
X107699500Y-50871909D01*
X107699500Y-51128090D01*
X107732818Y-51295590D01*
X107738518Y-51324249D01*
X107749477Y-51379341D01*
X107749477Y-51379343D01*
X107847508Y-51616013D01*
X107847514Y-51616025D01*
X107949289Y-51768340D01*
X107989835Y-51829021D01*
X108170979Y-52010165D01*
X108261791Y-52070844D01*
X108383974Y-52152485D01*
X108383986Y-52152491D01*
X108471412Y-52188703D01*
X108620658Y-52250523D01*
X108871912Y-52300500D01*
X108871913Y-52300500D01*
X109128087Y-52300500D01*
X109128088Y-52300500D01*
X109379342Y-52250523D01*
X109616018Y-52152489D01*
X109616020Y-52152487D01*
X109616025Y-52152485D01*
X109677527Y-52111389D01*
X109829021Y-52010165D01*
X110010165Y-51829021D01*
X110129783Y-51650000D01*
X110152485Y-51616025D01*
X110152491Y-51616013D01*
X110159124Y-51599999D01*
X110250523Y-51379342D01*
X110300500Y-51128088D01*
X110300500Y-50871912D01*
X110250523Y-50620658D01*
X110152489Y-50383982D01*
X110152485Y-50383974D01*
X110070844Y-50261791D01*
X110010165Y-50170979D01*
X109829021Y-49989835D01*
X109768340Y-49949289D01*
X109616025Y-49847514D01*
X109616013Y-49847508D01*
X109379342Y-49749477D01*
X109128090Y-49699500D01*
X109128088Y-49699500D01*
X108871912Y-49699500D01*
X108871909Y-49699500D01*
X108620658Y-49749477D01*
X108620656Y-49749477D01*
X108383986Y-49847508D01*
X108383974Y-49847514D01*
X108170979Y-49989835D01*
X108170975Y-49989838D01*
X107989838Y-50170975D01*
X107989835Y-50170979D01*
X107847514Y-50383974D01*
X107847508Y-50383986D01*
X107749477Y-50620656D01*
X107749477Y-50620658D01*
X107699500Y-50871909D01*
X105270666Y-50871909D01*
X105501582Y-50702660D01*
X105826993Y-50373026D01*
X106095978Y-49995933D01*
X106301721Y-49580938D01*
X106439009Y-49138554D01*
X106504364Y-48679991D01*
X106496128Y-48216867D01*
X106414513Y-47760917D01*
X106261584Y-47323694D01*
X106041217Y-46916275D01*
X106009696Y-46875252D01*
X105758998Y-46548986D01*
X105676876Y-46471512D01*
X105645854Y-46402382D01*
X105672800Y-46331564D01*
X105741930Y-46300542D01*
X105744812Y-46300500D01*
X110901000Y-46300500D01*
X110971004Y-46329496D01*
G37*
%TD.AperFunction*%
%TD*%
M02*
