%TF.GenerationSoftware,KiCad,Pcbnew,9.0.9*%
%TF.CreationDate,2026-09-28T04:16:46+00:00*%
%TF.ProjectId,NIVA-pod,4e495641-2d70-46f6-942e-6b696361645f,rev?*%
%TF.SameCoordinates,Original*%
%TF.FileFunction,Legend,Bot*%
%TF.FilePolarity,Positive*%
%FSLAX46Y46*%
G04 Gerber Fmt 4.6, Leading zero omitted, Abs format (unit mm)*
G04 Created by KiCad (PCBNEW 9.0.9) date 2026-09-28 04:16:46*
%MOMM*%
%LPD*%
G01*
G04 APERTURE LIST*
%ADD10C,0.120000*%
%ADD11C,0.260000*%
%ADD12C,2.200000*%
%ADD13C,0.990600*%
%ADD14C,0.787400*%
%ADD15R,1.600000X2.400000*%
G04 APERTURE END LIST*
D10*
X124219046Y-60363855D02*
X124219046Y-59563855D01*
X124219046Y-59563855D02*
X123761903Y-60363855D01*
X123761903Y-60363855D02*
X123761903Y-59563855D01*
X123380951Y-60363855D02*
X123380951Y-59563855D01*
X123114285Y-59563855D02*
X122847618Y-60363855D01*
X122847618Y-60363855D02*
X122580952Y-59563855D01*
X122352381Y-60135283D02*
X121971428Y-60135283D01*
X122428571Y-60363855D02*
X122161904Y-59563855D01*
X122161904Y-59563855D02*
X121895238Y-60363855D01*
X120561904Y-60363855D02*
X120828571Y-59982902D01*
X121019047Y-60363855D02*
X121019047Y-59563855D01*
X121019047Y-59563855D02*
X120714285Y-59563855D01*
X120714285Y-59563855D02*
X120638095Y-59601950D01*
X120638095Y-59601950D02*
X120600000Y-59640045D01*
X120600000Y-59640045D02*
X120561904Y-59716236D01*
X120561904Y-59716236D02*
X120561904Y-59830521D01*
X120561904Y-59830521D02*
X120600000Y-59906712D01*
X120600000Y-59906712D02*
X120638095Y-59944807D01*
X120638095Y-59944807D02*
X120714285Y-59982902D01*
X120714285Y-59982902D02*
X121019047Y-59982902D01*
X120219047Y-59944807D02*
X119952381Y-59944807D01*
X119838095Y-60363855D02*
X120219047Y-60363855D01*
X120219047Y-60363855D02*
X120219047Y-59563855D01*
X120219047Y-59563855D02*
X119838095Y-59563855D01*
X119609523Y-59563855D02*
X119342856Y-60363855D01*
X119342856Y-60363855D02*
X119076190Y-59563855D01*
X117742856Y-60287664D02*
X117780952Y-60325760D01*
X117780952Y-60325760D02*
X117895237Y-60363855D01*
X117895237Y-60363855D02*
X117971428Y-60363855D01*
X117971428Y-60363855D02*
X118085714Y-60325760D01*
X118085714Y-60325760D02*
X118161904Y-60249569D01*
X118161904Y-60249569D02*
X118199999Y-60173379D01*
X118199999Y-60173379D02*
X118238095Y-60020998D01*
X118238095Y-60020998D02*
X118238095Y-59906712D01*
X118238095Y-59906712D02*
X118199999Y-59754331D01*
X118199999Y-59754331D02*
X118161904Y-59678140D01*
X118161904Y-59678140D02*
X118085714Y-59601950D01*
X118085714Y-59601950D02*
X117971428Y-59563855D01*
X117971428Y-59563855D02*
X117895237Y-59563855D01*
X117895237Y-59563855D02*
X117780952Y-59601950D01*
X117780952Y-59601950D02*
X117742856Y-59640045D01*
X123285714Y-68925760D02*
X123171428Y-68963855D01*
X123171428Y-68963855D02*
X122980952Y-68963855D01*
X122980952Y-68963855D02*
X122904761Y-68925760D01*
X122904761Y-68925760D02*
X122866666Y-68887664D01*
X122866666Y-68887664D02*
X122828571Y-68811474D01*
X122828571Y-68811474D02*
X122828571Y-68735283D01*
X122828571Y-68735283D02*
X122866666Y-68659093D01*
X122866666Y-68659093D02*
X122904761Y-68620998D01*
X122904761Y-68620998D02*
X122980952Y-68582902D01*
X122980952Y-68582902D02*
X123133333Y-68544807D01*
X123133333Y-68544807D02*
X123209523Y-68506712D01*
X123209523Y-68506712D02*
X123247618Y-68468617D01*
X123247618Y-68468617D02*
X123285714Y-68392426D01*
X123285714Y-68392426D02*
X123285714Y-68316236D01*
X123285714Y-68316236D02*
X123247618Y-68240045D01*
X123247618Y-68240045D02*
X123209523Y-68201950D01*
X123209523Y-68201950D02*
X123133333Y-68163855D01*
X123133333Y-68163855D02*
X122942856Y-68163855D01*
X122942856Y-68163855D02*
X122828571Y-68201950D01*
X122485713Y-68544807D02*
X122219047Y-68544807D01*
X122104761Y-68963855D02*
X122485713Y-68963855D01*
X122485713Y-68963855D02*
X122485713Y-68163855D01*
X122485713Y-68163855D02*
X122104761Y-68163855D01*
X121304760Y-68963855D02*
X121571427Y-68582902D01*
X121761903Y-68963855D02*
X121761903Y-68163855D01*
X121761903Y-68163855D02*
X121457141Y-68163855D01*
X121457141Y-68163855D02*
X121380951Y-68201950D01*
X121380951Y-68201950D02*
X121342856Y-68240045D01*
X121342856Y-68240045D02*
X121304760Y-68316236D01*
X121304760Y-68316236D02*
X121304760Y-68430521D01*
X121304760Y-68430521D02*
X121342856Y-68506712D01*
X121342856Y-68506712D02*
X121380951Y-68544807D01*
X121380951Y-68544807D02*
X121457141Y-68582902D01*
X121457141Y-68582902D02*
X121761903Y-68582902D01*
X121076189Y-68163855D02*
X120809522Y-68963855D01*
X120809522Y-68963855D02*
X120542856Y-68163855D01*
X120276189Y-68963855D02*
X120276189Y-68163855D01*
X119438094Y-68887664D02*
X119476190Y-68925760D01*
X119476190Y-68925760D02*
X119590475Y-68963855D01*
X119590475Y-68963855D02*
X119666666Y-68963855D01*
X119666666Y-68963855D02*
X119780952Y-68925760D01*
X119780952Y-68925760D02*
X119857142Y-68849569D01*
X119857142Y-68849569D02*
X119895237Y-68773379D01*
X119895237Y-68773379D02*
X119933333Y-68620998D01*
X119933333Y-68620998D02*
X119933333Y-68506712D01*
X119933333Y-68506712D02*
X119895237Y-68354331D01*
X119895237Y-68354331D02*
X119857142Y-68278140D01*
X119857142Y-68278140D02*
X119780952Y-68201950D01*
X119780952Y-68201950D02*
X119666666Y-68163855D01*
X119666666Y-68163855D02*
X119590475Y-68163855D01*
X119590475Y-68163855D02*
X119476190Y-68201950D01*
X119476190Y-68201950D02*
X119438094Y-68240045D01*
X119095237Y-68544807D02*
X118828571Y-68544807D01*
X118714285Y-68963855D02*
X119095237Y-68963855D01*
X119095237Y-68963855D02*
X119095237Y-68163855D01*
X119095237Y-68163855D02*
X118714285Y-68163855D01*
X131552380Y-75687664D02*
X131590476Y-75725760D01*
X131590476Y-75725760D02*
X131704761Y-75763855D01*
X131704761Y-75763855D02*
X131780952Y-75763855D01*
X131780952Y-75763855D02*
X131895238Y-75725760D01*
X131895238Y-75725760D02*
X131971428Y-75649569D01*
X131971428Y-75649569D02*
X132009523Y-75573379D01*
X132009523Y-75573379D02*
X132047619Y-75420998D01*
X132047619Y-75420998D02*
X132047619Y-75306712D01*
X132047619Y-75306712D02*
X132009523Y-75154331D01*
X132009523Y-75154331D02*
X131971428Y-75078140D01*
X131971428Y-75078140D02*
X131895238Y-75001950D01*
X131895238Y-75001950D02*
X131780952Y-74963855D01*
X131780952Y-74963855D02*
X131704761Y-74963855D01*
X131704761Y-74963855D02*
X131590476Y-75001950D01*
X131590476Y-75001950D02*
X131552380Y-75040045D01*
X131247619Y-75535283D02*
X130866666Y-75535283D01*
X131323809Y-75763855D02*
X131057142Y-74963855D01*
X131057142Y-74963855D02*
X130790476Y-75763855D01*
X130066666Y-75763855D02*
X130333333Y-75382902D01*
X130523809Y-75763855D02*
X130523809Y-74963855D01*
X130523809Y-74963855D02*
X130219047Y-74963855D01*
X130219047Y-74963855D02*
X130142857Y-75001950D01*
X130142857Y-75001950D02*
X130104762Y-75040045D01*
X130104762Y-75040045D02*
X130066666Y-75116236D01*
X130066666Y-75116236D02*
X130066666Y-75230521D01*
X130066666Y-75230521D02*
X130104762Y-75306712D01*
X130104762Y-75306712D02*
X130142857Y-75344807D01*
X130142857Y-75344807D02*
X130219047Y-75382902D01*
X130219047Y-75382902D02*
X130523809Y-75382902D01*
X129838095Y-74963855D02*
X129380952Y-74963855D01*
X129609524Y-75763855D02*
X129609524Y-74963855D01*
X128657142Y-75763855D02*
X128923809Y-75382902D01*
X129114285Y-75763855D02*
X129114285Y-74963855D01*
X129114285Y-74963855D02*
X128809523Y-74963855D01*
X128809523Y-74963855D02*
X128733333Y-75001950D01*
X128733333Y-75001950D02*
X128695238Y-75040045D01*
X128695238Y-75040045D02*
X128657142Y-75116236D01*
X128657142Y-75116236D02*
X128657142Y-75230521D01*
X128657142Y-75230521D02*
X128695238Y-75306712D01*
X128695238Y-75306712D02*
X128733333Y-75344807D01*
X128733333Y-75344807D02*
X128809523Y-75382902D01*
X128809523Y-75382902D02*
X129114285Y-75382902D01*
X128314285Y-75763855D02*
X128314285Y-74963855D01*
X127933333Y-75763855D02*
X127933333Y-74963855D01*
X127933333Y-74963855D02*
X127742857Y-74963855D01*
X127742857Y-74963855D02*
X127628571Y-75001950D01*
X127628571Y-75001950D02*
X127552381Y-75078140D01*
X127552381Y-75078140D02*
X127514286Y-75154331D01*
X127514286Y-75154331D02*
X127476190Y-75306712D01*
X127476190Y-75306712D02*
X127476190Y-75420998D01*
X127476190Y-75420998D02*
X127514286Y-75573379D01*
X127514286Y-75573379D02*
X127552381Y-75649569D01*
X127552381Y-75649569D02*
X127628571Y-75725760D01*
X127628571Y-75725760D02*
X127742857Y-75763855D01*
X127742857Y-75763855D02*
X127933333Y-75763855D01*
X126714286Y-75001950D02*
X126790476Y-74963855D01*
X126790476Y-74963855D02*
X126904762Y-74963855D01*
X126904762Y-74963855D02*
X127019048Y-75001950D01*
X127019048Y-75001950D02*
X127095238Y-75078140D01*
X127095238Y-75078140D02*
X127133333Y-75154331D01*
X127133333Y-75154331D02*
X127171429Y-75306712D01*
X127171429Y-75306712D02*
X127171429Y-75420998D01*
X127171429Y-75420998D02*
X127133333Y-75573379D01*
X127133333Y-75573379D02*
X127095238Y-75649569D01*
X127095238Y-75649569D02*
X127019048Y-75725760D01*
X127019048Y-75725760D02*
X126904762Y-75763855D01*
X126904762Y-75763855D02*
X126828571Y-75763855D01*
X126828571Y-75763855D02*
X126714286Y-75725760D01*
X126714286Y-75725760D02*
X126676190Y-75687664D01*
X126676190Y-75687664D02*
X126676190Y-75420998D01*
X126676190Y-75420998D02*
X126828571Y-75420998D01*
X126333333Y-75344807D02*
X126066667Y-75344807D01*
X125952381Y-75763855D02*
X126333333Y-75763855D01*
X126333333Y-75763855D02*
X126333333Y-74963855D01*
X126333333Y-74963855D02*
X125952381Y-74963855D01*
X129266666Y-80663855D02*
X129266666Y-81235283D01*
X129266666Y-81235283D02*
X129304761Y-81349569D01*
X129304761Y-81349569D02*
X129380952Y-81425760D01*
X129380952Y-81425760D02*
X129495237Y-81463855D01*
X129495237Y-81463855D02*
X129571428Y-81463855D01*
X128923809Y-80740045D02*
X128885713Y-80701950D01*
X128885713Y-80701950D02*
X128809523Y-80663855D01*
X128809523Y-80663855D02*
X128619047Y-80663855D01*
X128619047Y-80663855D02*
X128542856Y-80701950D01*
X128542856Y-80701950D02*
X128504761Y-80740045D01*
X128504761Y-80740045D02*
X128466666Y-80816236D01*
X128466666Y-80816236D02*
X128466666Y-80892426D01*
X128466666Y-80892426D02*
X128504761Y-81006712D01*
X128504761Y-81006712D02*
X128961904Y-81463855D01*
X128961904Y-81463855D02*
X128466666Y-81463855D01*
%TO.C,J3*%
X119095000Y-70730000D02*
X119095000Y-71365000D01*
X119730000Y-70730000D02*
X119095000Y-70730000D01*
%TO.C,J2*%
X123250000Y-76750000D02*
X134750000Y-76750000D01*
X123250000Y-80250000D02*
X134750000Y-80250000D01*
D11*
X123830000Y-80700000D02*
G75*
G02*
X123570000Y-80700000I-130000J0D01*
G01*
X123570000Y-80700000D02*
G75*
G02*
X123830000Y-80700000I130000J0D01*
G01*
%TD*%
%LPC*%
D12*
%TO.C,H2*%
X133000000Y-51000000D03*
%TD*%
%TO.C,H1*%
X109000000Y-51000000D03*
%TD*%
D13*
%TO.C,J3*%
X118460000Y-72000000D03*
X123540000Y-70984000D03*
X123540000Y-73016000D03*
D14*
X119730000Y-71365000D03*
X119730000Y-72635000D03*
X121000000Y-71365000D03*
X121000000Y-72635000D03*
X122270000Y-71365000D03*
X122270000Y-72635000D03*
%TD*%
D15*
%TO.C,J2*%
X125190000Y-78500000D03*
X127730000Y-78500000D03*
X130270000Y-78500000D03*
X132810000Y-78500000D03*
%TD*%
%LPD*%
M02*
