M48
; DRILL file {KiCad 9.0.9} date 2026-09-28T04:16:47+0000
; FORMAT={-:-/ absolute / metric / decimal}
; #@! TF.CreationDate,2026-09-28T04:16:47+00:00
; #@! TF.GenerationSoftware,Kicad,Pcbnew,9.0.9
; #@! TF.FileFunction,Plated,1,4,PTH
FMAT,2
METRIC
; #@! TA.AperFunction,Plated,PTH,ViaDrill
T1C0.250
%
G90
G05
T1
X105.4Y-80.4
X105.4Y-83.85
X107.2Y-80.4
X107.322Y-69.347
X108.3Y-55.8
X108.548Y-70.209
X108.7Y-68.4
X109.0Y-80.4
X109.0Y-83.85
X109.655Y-59.053
X110.154Y-80.519
X110.8Y-80.4
X111.719Y-55.951
X112.114Y-69.522
X112.6Y-80.4
X112.6Y-83.85
X112.7Y-68.4
X113.001Y-52.262
X113.341Y-83.96
X113.725Y-61.1
X114.253Y-53.978
X114.254Y-52.22
X114.27Y-53.067
X114.349Y-73.301
X114.445Y-78.869
X114.538Y-61.888
X114.559Y-62.831
X114.969Y-80.418
X115.362Y-52.208
X115.467Y-78.275
X115.925Y-56.105
X116.175Y-52.147
X116.2Y-83.85
X116.542Y-65.608
X116.545Y-60.63
X116.592Y-76.025
X116.69Y-70.832
X116.953Y-52.283
X117.216Y-84.254
X117.225Y-60.989
X117.47Y-62.933
X117.688Y-68.5
X117.749Y-59.236
X117.77Y-52.166
X118.0Y-80.35
X118.065Y-79.145
X118.227Y-55.568
X118.56Y-52.217
X119.025Y-57.25
X119.025Y-59.225
X119.363Y-52.202
X119.549Y-70.486
X119.779Y-75.76
X119.8Y-80.4
X119.8Y-83.85
X120.525Y-83.811
X120.677Y-70.078
X121.0Y-55.275
X121.0Y-57.25
X121.0Y-59.225
X121.088Y-68.5
X121.723Y-83.899
X121.821Y-52.13
X122.537Y-73.435
X122.572Y-87.585
X122.637Y-52.202
X122.975Y-55.275
X122.975Y-57.25
X122.975Y-59.225
X123.437Y-61.058
X123.44Y-52.217
X123.935Y-79.145
X124.176Y-57.418
X124.191Y-56.029
X124.23Y-52.166
X124.3Y-85.1
X124.656Y-82.125
X124.763Y-88.017
X124.793Y-56.745
X125.035Y-66.152
X125.047Y-52.283
X125.2Y-83.9
X125.377Y-60.22
X125.825Y-52.147
X126.638Y-52.208
X126.7Y-63.5
X127.0Y-80.4
X127.108Y-83.85
X127.441Y-62.831
X127.637Y-63.598
X127.746Y-52.22
X127.779Y-60.505
X127.814Y-56.534
X127.86Y-88.744
X128.25Y-65.2
X128.8Y-80.4
X128.8Y-83.85
X128.827Y-57.15
X128.989Y-71.712
X129.705Y-83.872
X129.8Y-56.1
X129.846Y-69.243
X129.846Y-71.757
X130.474Y-59.264
X130.6Y-83.9
X130.75Y-77.8
X131.5Y-71.55
X131.592Y-57.09
X131.592Y-57.91
X131.699Y-77.675
X132.194Y-85.628
X132.528Y-81.354
X132.533Y-54.3
X132.7Y-61.8
X132.758Y-65.894
X133.299Y-70.956
X133.5Y-59.175
X133.925Y-57.425
X134.239Y-77.675
X134.366Y-59.081
X134.44Y-83.217
X135.236Y-80.605
X135.6Y-62.8
X135.6Y-68.1
X136.0Y-83.9
X136.7Y-55.8
M30
