%TF.GenerationSoftware,KiCad,Pcbnew,9.0.9*%
%TF.CreationDate,2026-09-28T03:21:21+00:00*%
%TF.ProjectId,NIVA-dock,4e495641-2d64-46f6-936b-2e6b69636164,rev?*%
%TF.SameCoordinates,Original*%
%TF.FileFunction,Copper,L2,Bot*%
%TF.FilePolarity,Positive*%
%FSLAX46Y46*%
G04 Gerber Fmt 4.6, Leading zero omitted, Abs format (unit mm)*
G04 Created by KiCad (PCBNEW 9.0.9) date 2026-09-28 03:21:21*
%MOMM*%
%LPD*%
G01*
G04 APERTURE LIST*
%TA.AperFunction,HeatsinkPad*%
%ADD10O,1.700000X1.100000*%
%TD*%
%TA.AperFunction,ViaPad*%
%ADD11C,0.600000*%
%TD*%
%TA.AperFunction,Conductor*%
%ADD12C,0.200000*%
%TD*%
%TA.AperFunction,Conductor*%
%ADD13C,0.400000*%
%TD*%
G04 APERTURE END LIST*
D10*
%TO.P,J1,S1*%
%TO.N,GND*%
X154500000Y-54320000D03*
X158300000Y-54320000D03*
X154500000Y-45680000D03*
X158300000Y-45680000D03*
%TD*%
D11*
%TO.N,/STAT*%
X151891000Y-60947000D03*
X159590000Y-60126200D03*
%TO.N,/TEMP_OK*%
X115995000Y-72720900D03*
X155602500Y-64177200D03*
X114212200Y-68763100D03*
%TO.N,/VTH_LO*%
X110315300Y-70783100D03*
X104047100Y-76285500D03*
%TO.N,GND*%
X109714300Y-59710700D03*
%TO.N,VBUS*%
X153036400Y-62427300D03*
X114788000Y-63894400D03*
%TD*%
D12*
%TO.N,/STAT*%
X158769200Y-60947000D02*
X159590000Y-60126200D01*
X151891000Y-60947000D02*
X158769200Y-60947000D01*
%TO.N,/TEMP_OK*%
X114212200Y-70938100D02*
X114212200Y-68763100D01*
X115995000Y-72720900D02*
X114212200Y-70938100D01*
X151016600Y-68763100D02*
X114212200Y-68763100D01*
X155602500Y-64177200D02*
X151016600Y-68763100D01*
%TO.N,/VTH_LO*%
X110315300Y-70783100D02*
X104812900Y-76285500D01*
X104812900Y-76285500D02*
X104047100Y-76285500D01*
D13*
%TO.N,GND*%
X115105000Y-54320000D02*
X109714300Y-59710700D01*
X154500000Y-54320000D02*
X115105000Y-54320000D01*
X158300000Y-45680000D02*
X154500000Y-45680000D01*
X158300000Y-54320000D02*
X154500000Y-54320000D01*
%TO.N,VBUS*%
X114788000Y-63894400D02*
X151569300Y-63894400D01*
X151569300Y-63894400D02*
X153036400Y-62427300D01*
%TD*%
%TA.AperFunction,Conductor*%
%TO.N,GND*%
G36*
X160720504Y-41279496D02*
G01*
X160749500Y-41349500D01*
X160749500Y-96650500D01*
X160720504Y-96720504D01*
X160650500Y-96749500D01*
X103349500Y-96749500D01*
X103279496Y-96720504D01*
X103250500Y-96650500D01*
X103250500Y-93371909D01*
X105199500Y-93371909D01*
X105199500Y-93628090D01*
X105249477Y-93879341D01*
X105249477Y-93879343D01*
X105347508Y-94116013D01*
X105347514Y-94116025D01*
X105449289Y-94268340D01*
X105489835Y-94329021D01*
X105670979Y-94510165D01*
X105761791Y-94570844D01*
X105883974Y-94652485D01*
X105883986Y-94652491D01*
X105971412Y-94688703D01*
X106120658Y-94750523D01*
X106371912Y-94800500D01*
X106371913Y-94800500D01*
X106628087Y-94800500D01*
X106628088Y-94800500D01*
X106879342Y-94750523D01*
X107116018Y-94652489D01*
X107116020Y-94652487D01*
X107116025Y-94652485D01*
X107177527Y-94611389D01*
X107329021Y-94510165D01*
X107510165Y-94329021D01*
X107611389Y-94177527D01*
X107652485Y-94116025D01*
X107652491Y-94116013D01*
X107750523Y-93879342D01*
X107800500Y-93628088D01*
X107800500Y-93371912D01*
X107800499Y-93371909D01*
X156199500Y-93371909D01*
X156199500Y-93628090D01*
X156249477Y-93879341D01*
X156249477Y-93879343D01*
X156347508Y-94116013D01*
X156347514Y-94116025D01*
X156449289Y-94268340D01*
X156489835Y-94329021D01*
X156670979Y-94510165D01*
X156761791Y-94570844D01*
X156883974Y-94652485D01*
X156883986Y-94652491D01*
X156971412Y-94688703D01*
X157120658Y-94750523D01*
X157371912Y-94800500D01*
X157371913Y-94800500D01*
X157628087Y-94800500D01*
X157628088Y-94800500D01*
X157879342Y-94750523D01*
X158116018Y-94652489D01*
X158116020Y-94652487D01*
X158116025Y-94652485D01*
X158177527Y-94611389D01*
X158329021Y-94510165D01*
X158510165Y-94329021D01*
X158611389Y-94177527D01*
X158652485Y-94116025D01*
X158652491Y-94116013D01*
X158750523Y-93879342D01*
X158800500Y-93628088D01*
X158800500Y-93371912D01*
X158750523Y-93120658D01*
X158652489Y-92883982D01*
X158652485Y-92883974D01*
X158570844Y-92761791D01*
X158510165Y-92670979D01*
X158329021Y-92489835D01*
X158268340Y-92449289D01*
X158116025Y-92347514D01*
X158116013Y-92347508D01*
X157879342Y-92249477D01*
X157628090Y-92199500D01*
X157628088Y-92199500D01*
X157371912Y-92199500D01*
X157371909Y-92199500D01*
X157120658Y-92249477D01*
X157120656Y-92249477D01*
X156883986Y-92347508D01*
X156883974Y-92347514D01*
X156670979Y-92489835D01*
X156670975Y-92489838D01*
X156489838Y-92670975D01*
X156489835Y-92670979D01*
X156347514Y-92883974D01*
X156347508Y-92883986D01*
X156249477Y-93120656D01*
X156249477Y-93120658D01*
X156199500Y-93371909D01*
X107800499Y-93371909D01*
X107750523Y-93120658D01*
X107652489Y-92883982D01*
X107652485Y-92883974D01*
X107570844Y-92761791D01*
X107510165Y-92670979D01*
X107329021Y-92489835D01*
X107268340Y-92449289D01*
X107116025Y-92347514D01*
X107116013Y-92347508D01*
X106879342Y-92249477D01*
X106628090Y-92199500D01*
X106628088Y-92199500D01*
X106371912Y-92199500D01*
X106371909Y-92199500D01*
X106120658Y-92249477D01*
X106120656Y-92249477D01*
X105883986Y-92347508D01*
X105883974Y-92347514D01*
X105670979Y-92489835D01*
X105670975Y-92489838D01*
X105489838Y-92670975D01*
X105489835Y-92670979D01*
X105347514Y-92883974D01*
X105347508Y-92883986D01*
X105249477Y-93120656D01*
X105249477Y-93120658D01*
X105199500Y-93371909D01*
X103250500Y-93371909D01*
X103250500Y-76185944D01*
X103546600Y-76185944D01*
X103546600Y-76385056D01*
X103586405Y-76481153D01*
X103622795Y-76569007D01*
X103622796Y-76569008D01*
X103622797Y-76569010D01*
X103763590Y-76709803D01*
X103947544Y-76786000D01*
X103947546Y-76786000D01*
X104146654Y-76786000D01*
X104146656Y-76786000D01*
X104330610Y-76709803D01*
X104378013Y-76662399D01*
X104425418Y-76614996D01*
X104495421Y-76586000D01*
X104872672Y-76586000D01*
X104872673Y-76586000D01*
X104950770Y-76553650D01*
X104983120Y-76540251D01*
X110210775Y-71312596D01*
X110280779Y-71283600D01*
X110414854Y-71283600D01*
X110414856Y-71283600D01*
X110598810Y-71207403D01*
X110739603Y-71066610D01*
X110815800Y-70882656D01*
X110815800Y-70683544D01*
X110739603Y-70499590D01*
X110598810Y-70358797D01*
X110598808Y-70358796D01*
X110598807Y-70358795D01*
X110510953Y-70322405D01*
X110414856Y-70282600D01*
X110215744Y-70282600D01*
X110139549Y-70314161D01*
X110031792Y-70358795D01*
X109890995Y-70499592D01*
X109814800Y-70683545D01*
X109814800Y-70817621D01*
X109785804Y-70887625D01*
X104717425Y-75956004D01*
X104647421Y-75985000D01*
X104495421Y-75985000D01*
X104425417Y-75956004D01*
X104425416Y-75956002D01*
X104330609Y-75861196D01*
X104254413Y-75829634D01*
X104146656Y-75785000D01*
X103947544Y-75785000D01*
X103871349Y-75816561D01*
X103763592Y-75861195D01*
X103622795Y-76001992D01*
X103566502Y-76137895D01*
X103546600Y-76185944D01*
X103250500Y-76185944D01*
X103250500Y-68663544D01*
X113711700Y-68663544D01*
X113711700Y-68862656D01*
X113751505Y-68958753D01*
X113787895Y-69046607D01*
X113787896Y-69046608D01*
X113787897Y-69046610D01*
X113882704Y-69141417D01*
X113911700Y-69211420D01*
X113911700Y-70997872D01*
X113940172Y-71066610D01*
X113957447Y-71108317D01*
X113957448Y-71108318D01*
X113957449Y-71108320D01*
X115465504Y-72616375D01*
X115494500Y-72686378D01*
X115494500Y-72820456D01*
X115534305Y-72916553D01*
X115570695Y-73004407D01*
X115570696Y-73004408D01*
X115570697Y-73004410D01*
X115711490Y-73145203D01*
X115895444Y-73221400D01*
X115895446Y-73221400D01*
X116094554Y-73221400D01*
X116094556Y-73221400D01*
X116278510Y-73145203D01*
X116419303Y-73004410D01*
X116495500Y-72820456D01*
X116495500Y-72621344D01*
X116419303Y-72437390D01*
X116278510Y-72296597D01*
X116278508Y-72296596D01*
X116278507Y-72296595D01*
X116190653Y-72260205D01*
X116094556Y-72220400D01*
X116094554Y-72220400D01*
X115960480Y-72220400D01*
X115890476Y-72191404D01*
X114541696Y-70842624D01*
X114512700Y-70772620D01*
X114512700Y-69211421D01*
X114541696Y-69141417D01*
X114590517Y-69092596D01*
X114660521Y-69063600D01*
X151076372Y-69063600D01*
X151076373Y-69063600D01*
X151154470Y-69031250D01*
X151186820Y-69017851D01*
X155497975Y-64706696D01*
X155567979Y-64677700D01*
X155702054Y-64677700D01*
X155702056Y-64677700D01*
X155886010Y-64601503D01*
X156026803Y-64460710D01*
X156103000Y-64276756D01*
X156103000Y-64077644D01*
X156026803Y-63893690D01*
X155886010Y-63752897D01*
X155886008Y-63752896D01*
X155886007Y-63752895D01*
X155798153Y-63716505D01*
X155702056Y-63676700D01*
X155502944Y-63676700D01*
X155426749Y-63708261D01*
X155318992Y-63752895D01*
X155178195Y-63893692D01*
X155102000Y-64077645D01*
X155102000Y-64211721D01*
X155073004Y-64281725D01*
X150921125Y-68433604D01*
X150851121Y-68462600D01*
X114660521Y-68462600D01*
X114590518Y-68433604D01*
X114495709Y-68338796D01*
X114419513Y-68307234D01*
X114311756Y-68262600D01*
X114112644Y-68262600D01*
X114036449Y-68294161D01*
X113928692Y-68338795D01*
X113787895Y-68479592D01*
X113731602Y-68615495D01*
X113711700Y-68663544D01*
X103250500Y-68663544D01*
X103250500Y-63794844D01*
X114287500Y-63794844D01*
X114287500Y-63993956D01*
X114327305Y-64090053D01*
X114363695Y-64177907D01*
X114363696Y-64177908D01*
X114363697Y-64177910D01*
X114504490Y-64318703D01*
X114688444Y-64394900D01*
X114688446Y-64394900D01*
X114887554Y-64394900D01*
X114887556Y-64394900D01*
X115071510Y-64318703D01*
X115071511Y-64318702D01*
X115079616Y-64313287D01*
X115082285Y-64317281D01*
X115136320Y-64294900D01*
X151648963Y-64294900D01*
X151648964Y-64294900D01*
X151796165Y-64233927D01*
X153073296Y-62956796D01*
X153127327Y-62934415D01*
X153126390Y-62929703D01*
X153135953Y-62927800D01*
X153135956Y-62927800D01*
X153319910Y-62851603D01*
X153460703Y-62710810D01*
X153536900Y-62526856D01*
X153536900Y-62327744D01*
X153460703Y-62143790D01*
X153319910Y-62002997D01*
X153319908Y-62002996D01*
X153319907Y-62002995D01*
X153232053Y-61966605D01*
X153135956Y-61926800D01*
X152936844Y-61926800D01*
X152860649Y-61958361D01*
X152752892Y-62002995D01*
X152612095Y-62143792D01*
X152535899Y-62327746D01*
X152533997Y-62337310D01*
X152529284Y-62336372D01*
X152506904Y-62390404D01*
X151432404Y-63464904D01*
X151362400Y-63493900D01*
X115136320Y-63493900D01*
X115082285Y-63471518D01*
X115079616Y-63475513D01*
X115071511Y-63470097D01*
X115010192Y-63444698D01*
X114887556Y-63393900D01*
X114688444Y-63393900D01*
X114612249Y-63425461D01*
X114504492Y-63470095D01*
X114363695Y-63610892D01*
X114336437Y-63676700D01*
X114287500Y-63794844D01*
X103250500Y-63794844D01*
X103250500Y-60847444D01*
X151390500Y-60847444D01*
X151390500Y-61046556D01*
X151430305Y-61142653D01*
X151466695Y-61230507D01*
X151466696Y-61230508D01*
X151466697Y-61230510D01*
X151607490Y-61371303D01*
X151791444Y-61447500D01*
X151791446Y-61447500D01*
X151990554Y-61447500D01*
X151990556Y-61447500D01*
X152174510Y-61371303D01*
X152221913Y-61323899D01*
X152269318Y-61276496D01*
X152339321Y-61247500D01*
X158828972Y-61247500D01*
X158828973Y-61247500D01*
X158907070Y-61215150D01*
X158939420Y-61201751D01*
X159485475Y-60655696D01*
X159555479Y-60626700D01*
X159689554Y-60626700D01*
X159689556Y-60626700D01*
X159873510Y-60550503D01*
X160014303Y-60409710D01*
X160090500Y-60225756D01*
X160090500Y-60026644D01*
X160014303Y-59842690D01*
X159873510Y-59701897D01*
X159873508Y-59701896D01*
X159873507Y-59701895D01*
X159785653Y-59665505D01*
X159689556Y-59625700D01*
X159490444Y-59625700D01*
X159414249Y-59657261D01*
X159306492Y-59701895D01*
X159165695Y-59842692D01*
X159089500Y-60026645D01*
X159089500Y-60160721D01*
X159060504Y-60230725D01*
X158673725Y-60617504D01*
X158603721Y-60646500D01*
X152339321Y-60646500D01*
X152269318Y-60617504D01*
X152174509Y-60522696D01*
X152098313Y-60491134D01*
X151990556Y-60446500D01*
X151791444Y-60446500D01*
X151715249Y-60478061D01*
X151607492Y-60522695D01*
X151466695Y-60663492D01*
X151410402Y-60799395D01*
X151390500Y-60847444D01*
X103250500Y-60847444D01*
X103250500Y-54170000D01*
X153411972Y-54170000D01*
X153937415Y-54170000D01*
X153900000Y-54260326D01*
X153900000Y-54379674D01*
X153937415Y-54470000D01*
X153411972Y-54470000D01*
X153454520Y-54628792D01*
X153559839Y-54811208D01*
X153708791Y-54960160D01*
X153891208Y-55065479D01*
X153891207Y-55065479D01*
X154094679Y-55120000D01*
X154349999Y-55120000D01*
X154350000Y-55119999D01*
X154350000Y-54620000D01*
X154650000Y-54620000D01*
X154650000Y-55119999D01*
X154650001Y-55120000D01*
X154905321Y-55120000D01*
X155108792Y-55065479D01*
X155291208Y-54960160D01*
X155440160Y-54811208D01*
X155545479Y-54628792D01*
X155588028Y-54470000D01*
X155062585Y-54470000D01*
X155100000Y-54379674D01*
X155100000Y-54260326D01*
X155062585Y-54170000D01*
X155588028Y-54170000D01*
X157211972Y-54170000D01*
X157737415Y-54170000D01*
X157700000Y-54260326D01*
X157700000Y-54379674D01*
X157737415Y-54470000D01*
X157211972Y-54470000D01*
X157254520Y-54628792D01*
X157359839Y-54811208D01*
X157508791Y-54960160D01*
X157691208Y-55065479D01*
X157691207Y-55065479D01*
X157894679Y-55120000D01*
X158149999Y-55120000D01*
X158150000Y-55119999D01*
X158150000Y-54620000D01*
X158450000Y-54620000D01*
X158450000Y-55119999D01*
X158450001Y-55120000D01*
X158705321Y-55120000D01*
X158908792Y-55065479D01*
X159091208Y-54960160D01*
X159240160Y-54811208D01*
X159345479Y-54628792D01*
X159388028Y-54470000D01*
X158862585Y-54470000D01*
X158900000Y-54379674D01*
X158900000Y-54260326D01*
X158862585Y-54170000D01*
X159388028Y-54170000D01*
X159345479Y-54011207D01*
X159240160Y-53828791D01*
X159091208Y-53679839D01*
X158908791Y-53574520D01*
X158908792Y-53574520D01*
X158705321Y-53520000D01*
X158450001Y-53520000D01*
X158450000Y-53520001D01*
X158450000Y-54020000D01*
X158150000Y-54020000D01*
X158150000Y-53520001D01*
X158149999Y-53520000D01*
X157894679Y-53520000D01*
X157691207Y-53574520D01*
X157508791Y-53679839D01*
X157359839Y-53828791D01*
X157254520Y-54011207D01*
X157211972Y-54170000D01*
X155588028Y-54170000D01*
X155545479Y-54011207D01*
X155440160Y-53828791D01*
X155291208Y-53679839D01*
X155108791Y-53574520D01*
X155108792Y-53574520D01*
X154905321Y-53520000D01*
X154650001Y-53520000D01*
X154650000Y-53520001D01*
X154650000Y-54020000D01*
X154350000Y-54020000D01*
X154350000Y-53520001D01*
X154349999Y-53520000D01*
X154094679Y-53520000D01*
X153891207Y-53574520D01*
X153708791Y-53679839D01*
X153559839Y-53828791D01*
X153454520Y-54011207D01*
X153411972Y-54170000D01*
X103250500Y-54170000D01*
X103250500Y-44371909D01*
X105199500Y-44371909D01*
X105199500Y-44628090D01*
X105249477Y-44879341D01*
X105249477Y-44879343D01*
X105347508Y-45116013D01*
X105347514Y-45116025D01*
X105449289Y-45268340D01*
X105489835Y-45329021D01*
X105670979Y-45510165D01*
X105761791Y-45570844D01*
X105883974Y-45652485D01*
X105883986Y-45652491D01*
X105971412Y-45688703D01*
X106120658Y-45750523D01*
X106371912Y-45800500D01*
X106371913Y-45800500D01*
X106628087Y-45800500D01*
X106628088Y-45800500D01*
X106879342Y-45750523D01*
X107116018Y-45652489D01*
X107116020Y-45652487D01*
X107116025Y-45652485D01*
X107177527Y-45611389D01*
X107329021Y-45510165D01*
X107510165Y-45329021D01*
X107611389Y-45177527D01*
X107652485Y-45116025D01*
X107652491Y-45116013D01*
X107684043Y-45039839D01*
X107750523Y-44879342D01*
X107800500Y-44628088D01*
X107800500Y-44371912D01*
X107800499Y-44371909D01*
X145699500Y-44371909D01*
X145699500Y-44628090D01*
X145749477Y-44879341D01*
X145749477Y-44879343D01*
X145847508Y-45116013D01*
X145847514Y-45116025D01*
X145949289Y-45268340D01*
X145989835Y-45329021D01*
X146170979Y-45510165D01*
X146261791Y-45570844D01*
X146383974Y-45652485D01*
X146383986Y-45652491D01*
X146471412Y-45688703D01*
X146620658Y-45750523D01*
X146871912Y-45800500D01*
X146871913Y-45800500D01*
X147128087Y-45800500D01*
X147128088Y-45800500D01*
X147379342Y-45750523D01*
X147616018Y-45652489D01*
X147616020Y-45652487D01*
X147616025Y-45652485D01*
X147677527Y-45611389D01*
X147799336Y-45530000D01*
X153411972Y-45530000D01*
X153937415Y-45530000D01*
X153900000Y-45620326D01*
X153900000Y-45739674D01*
X153937415Y-45830000D01*
X153411972Y-45830000D01*
X153454520Y-45988792D01*
X153559839Y-46171208D01*
X153708791Y-46320160D01*
X153891208Y-46425479D01*
X153891207Y-46425479D01*
X154094679Y-46480000D01*
X154349999Y-46480000D01*
X154350000Y-46479999D01*
X154350000Y-45980000D01*
X154650000Y-45980000D01*
X154650000Y-46479999D01*
X154650001Y-46480000D01*
X154905321Y-46480000D01*
X155108792Y-46425479D01*
X155291208Y-46320160D01*
X155440160Y-46171208D01*
X155545479Y-45988792D01*
X155588028Y-45830000D01*
X155062585Y-45830000D01*
X155100000Y-45739674D01*
X155100000Y-45620326D01*
X155062585Y-45530000D01*
X155588028Y-45530000D01*
X157211972Y-45530000D01*
X157737415Y-45530000D01*
X157700000Y-45620326D01*
X157700000Y-45739674D01*
X157737415Y-45830000D01*
X157211972Y-45830000D01*
X157254520Y-45988792D01*
X157359839Y-46171208D01*
X157508791Y-46320160D01*
X157691208Y-46425479D01*
X157691207Y-46425479D01*
X157894679Y-46480000D01*
X158149999Y-46480000D01*
X158150000Y-46479999D01*
X158150000Y-45980000D01*
X158450000Y-45980000D01*
X158450000Y-46479999D01*
X158450001Y-46480000D01*
X158705321Y-46480000D01*
X158908792Y-46425479D01*
X159091208Y-46320160D01*
X159240160Y-46171208D01*
X159345479Y-45988792D01*
X159388028Y-45830000D01*
X158862585Y-45830000D01*
X158900000Y-45739674D01*
X158900000Y-45620326D01*
X158862585Y-45530000D01*
X159388028Y-45530000D01*
X159345479Y-45371207D01*
X159240160Y-45188791D01*
X159091208Y-45039839D01*
X158908791Y-44934520D01*
X158908792Y-44934520D01*
X158705321Y-44880000D01*
X158450001Y-44880000D01*
X158450000Y-44880001D01*
X158450000Y-45380000D01*
X158150000Y-45380000D01*
X158150000Y-44880001D01*
X158149999Y-44880000D01*
X157894679Y-44880000D01*
X157691207Y-44934520D01*
X157508791Y-45039839D01*
X157359839Y-45188791D01*
X157254520Y-45371207D01*
X157211972Y-45530000D01*
X155588028Y-45530000D01*
X155545479Y-45371207D01*
X155440160Y-45188791D01*
X155291208Y-45039839D01*
X155108791Y-44934520D01*
X155108792Y-44934520D01*
X154905321Y-44880000D01*
X154650001Y-44880000D01*
X154650000Y-44880001D01*
X154650000Y-45380000D01*
X154350000Y-45380000D01*
X154350000Y-44880001D01*
X154349999Y-44880000D01*
X154094679Y-44880000D01*
X153891207Y-44934520D01*
X153708791Y-45039839D01*
X153559839Y-45188791D01*
X153454520Y-45371207D01*
X153411972Y-45530000D01*
X147799336Y-45530000D01*
X147829021Y-45510165D01*
X148010165Y-45329021D01*
X148111389Y-45177527D01*
X148152485Y-45116025D01*
X148152491Y-45116013D01*
X148184043Y-45039839D01*
X148250523Y-44879342D01*
X148300500Y-44628088D01*
X148300500Y-44371912D01*
X148250523Y-44120658D01*
X148152489Y-43883982D01*
X148152485Y-43883974D01*
X148070844Y-43761791D01*
X148010165Y-43670979D01*
X147829021Y-43489835D01*
X147768340Y-43449289D01*
X147616025Y-43347514D01*
X147616013Y-43347508D01*
X147379342Y-43249477D01*
X147128090Y-43199500D01*
X147128088Y-43199500D01*
X146871912Y-43199500D01*
X146871909Y-43199500D01*
X146620658Y-43249477D01*
X146620656Y-43249477D01*
X146383986Y-43347508D01*
X146383974Y-43347514D01*
X146170979Y-43489835D01*
X146170975Y-43489838D01*
X145989838Y-43670975D01*
X145989835Y-43670979D01*
X145847514Y-43883974D01*
X145847508Y-43883986D01*
X145749477Y-44120656D01*
X145749477Y-44120658D01*
X145699500Y-44371909D01*
X107800499Y-44371909D01*
X107750523Y-44120658D01*
X107652489Y-43883982D01*
X107652485Y-43883974D01*
X107570844Y-43761791D01*
X107510165Y-43670979D01*
X107329021Y-43489835D01*
X107268340Y-43449289D01*
X107116025Y-43347514D01*
X107116013Y-43347508D01*
X106879342Y-43249477D01*
X106628090Y-43199500D01*
X106628088Y-43199500D01*
X106371912Y-43199500D01*
X106371909Y-43199500D01*
X106120658Y-43249477D01*
X106120656Y-43249477D01*
X105883986Y-43347508D01*
X105883974Y-43347514D01*
X105670979Y-43489835D01*
X105670975Y-43489838D01*
X105489838Y-43670975D01*
X105489835Y-43670979D01*
X105347514Y-43883974D01*
X105347508Y-43883986D01*
X105249477Y-44120656D01*
X105249477Y-44120658D01*
X105199500Y-44371909D01*
X103250500Y-44371909D01*
X103250500Y-41349500D01*
X103279496Y-41279496D01*
X103349500Y-41250500D01*
X160650500Y-41250500D01*
X160720504Y-41279496D01*
G37*
%TD.AperFunction*%
%TD*%
M02*
